<?xml version="1.0" encoding="utf-8"?>
<!-- Generator: Adobe Illustrator 16.0.0, SVG Export Plug-In . SVG Version: 6.00 Build 0)  -->
<!DOCTYPE svg PUBLIC "-//W3C//DTD SVG 1.1//EN" "http://www.w3.org/Graphics/SVG/1.1/DTD/svg11.dtd">
<svg version="1.1" id="Layer_1" xmlns="http://www.w3.org/2000/svg" xmlns:xlink="http://www.w3.org/1999/xlink" x="0px" y="0px"
	 width="137px" height="59.917px" viewBox="0 0 137 59.917" enable-background="new 0 0 137 59.917" xml:space="preserve">
<rect x="-24.137" y="-4.431" fill="none" width="183.229" height="75.743"/>
<g>
	<g>
		<g>
			<path fill="#FFFFFF" d="M68.742,57.753c0,0,0.157-0.219,0.52-0.574c0.367-0.346,0.925-0.854,1.732-1.354
				c0.404-0.249,0.844-0.547,1.363-0.79c0.512-0.257,1.059-0.562,1.681-0.791c1.216-0.535,2.644-0.997,4.228-1.402
				c0.799-0.177,1.629-0.362,2.488-0.552c0.871-0.124,1.771-0.253,2.695-0.385c0.926-0.155,1.885-0.167,2.863-0.259
				c0.979-0.085,1.979-0.144,2.995-0.128c1.017-0.005,2.051-0.012,3.099-0.017c1.044,0.037,2.102,0.101,3.164,0.165
				c2.137,0.078,4.279,0.387,6.432,0.609c1.078,0.106,2.143,0.294,3.204,0.475c1.062,0.179,2.119,0.355,3.167,0.532
				c1.053,0.155,2.083,0.384,3.098,0.615c1.018,0.226,2.02,0.45,3.008,0.668c1.994,0.435,3.816,0.892,5.634,1.171
				c1.8,0.288,3.515,0.488,5.101,0.58c1.586,0.082,3.045,0.074,4.326-0.054c1.281-0.119,2.379-0.384,3.24-0.713
				c0.856-0.336,1.496-0.705,1.877-1.028c0.206-0.146,0.328-0.297,0.428-0.381c0.094-0.089,0.144-0.136,0.144-0.136
				s-0.042,0.053-0.126,0.153c-0.086,0.096-0.191,0.264-0.38,0.436c-0.351,0.368-0.942,0.852-1.804,1.275
				c-1.718,0.861-4.46,1.454-7.728,1.469c-1.634,0.019-3.403-0.068-5.261-0.285c-1.848-0.191-3.831-0.574-5.779-0.957
				c-1.971-0.36-3.996-0.805-6.074-1.124c-1.038-0.164-2.084-0.328-3.133-0.495c-1.05-0.17-2.104-0.341-3.167-0.44
				c-2.117-0.237-4.229-0.564-6.323-0.659c-1.045-0.076-2.082-0.152-3.106-0.227c-1.024-0.023-2.038-0.047-3.034-0.072
				c-0.998-0.049-1.975-0.004-2.932,0.024c-0.955,0.044-1.9,0.008-2.805,0.117c-0.907,0.082-1.79,0.162-2.646,0.24
				c-0.845,0.129-1.665,0.253-2.449,0.374c-1.557,0.305-2.986,0.619-4.213,1.025c-0.629,0.167-1.182,0.413-1.703,0.617
				c-0.531,0.189-0.98,0.437-1.396,0.645c-0.828,0.424-1.445,0.827-1.846,1.129C68.928,57.554,68.742,57.753,68.742,57.753z"/>
		</g>
		<g>
			<path fill="#FFFFFF" d="M68.43,57.753c0,0-0.188-0.2-0.584-0.502c-0.4-0.303-1.018-0.705-1.845-1.129
				c-0.417-0.207-0.866-0.455-1.397-0.645c-0.522-0.204-1.074-0.449-1.703-0.617c-1.227-0.406-2.654-0.72-4.212-1.025
				c-0.786-0.121-1.604-0.246-2.452-0.374c-0.854-0.078-1.738-0.158-2.645-0.24c-0.905-0.109-1.85-0.073-2.805-0.117
				c-0.958-0.028-1.934-0.073-2.933-0.024c-0.995,0.023-2.009,0.048-3.033,0.073c-1.024,0.074-2.062,0.149-3.106,0.225
				c-2.094,0.095-4.205,0.421-6.324,0.659c-1.061,0.099-2.115,0.27-3.164,0.44c-1.05,0.167-2.098,0.332-3.135,0.495
				c-2.077,0.319-4.104,0.764-6.075,1.124c-1.947,0.382-3.931,0.766-5.779,0.957c-1.855,0.219-3.626,0.304-5.26,0.285
				c-3.269-0.015-6.011-0.608-7.728-1.469c-0.861-0.423-1.455-0.907-1.803-1.275c-0.188-0.17-0.293-0.34-0.382-0.436
				c-0.083-0.1-0.125-0.153-0.125-0.153s0.049,0.047,0.144,0.136c0.1,0.084,0.221,0.235,0.426,0.381
				c0.383,0.322,1.022,0.69,1.879,1.028c0.861,0.329,1.959,0.594,3.24,0.713c1.282,0.127,2.738,0.135,4.326,0.054
				c1.586-0.092,3.301-0.292,5.102-0.58c1.816-0.278,3.639-0.736,5.633-1.171c0.988-0.22,1.991-0.443,3.008-0.668
				c1.016-0.23,2.045-0.461,3.098-0.615c1.049-0.176,2.107-0.353,3.168-0.532c1.06-0.181,2.125-0.367,3.202-0.475
				c2.153-0.222,4.296-0.531,6.431-0.609c1.065-0.064,2.121-0.127,3.167-0.165c1.046,0.005,2.08,0.011,3.099,0.018
				c1.016-0.017,2.018,0.042,2.995,0.127c0.978,0.093,1.936,0.104,2.86,0.259c0.926,0.132,1.827,0.26,2.697,0.385
				c0.86,0.19,1.69,0.376,2.488,0.552c1.582,0.405,3.01,0.867,4.229,1.402c0.621,0.229,1.168,0.534,1.68,0.791
				c0.52,0.243,0.959,0.54,1.363,0.79c0.809,0.5,1.365,1.008,1.732,1.354C68.271,57.536,68.43,57.753,68.43,57.753z"/>
		</g>
	</g>
</g>
<g>
	<path fill="#FFFFFF" d="M9.464,2.629v15.059H7.12V2.629H1.659V0.52h13.512v2.109H9.464z"/>
	<path fill="#FFFFFF" d="M31.259,17.922h-0.738l-4.09-11.836l-3.82,11.836h-0.738L16.458,0.52h2.438l3.445,11.988L26.114,0.52h0.82
		l3.727,11.965L34.165,0.52h2.438L31.259,17.922z"/>
	<path fill="#FFFFFF" d="M38.849,17.688V0.52h2.344v17.168H38.849z"/>
	<path fill="#FFFFFF" d="M56.021,17.922L47.15,5.372v12.316h-2.227V0.52h0.938l8.637,11.871V0.52h2.227v17.402H56.021z"/>
	<path fill="#FFFFFF" d="M78.907,1.153l-0.785,2.004c-0.75-0.547-1.93-0.82-3.539-0.82c-1.508,0-2.717,0.648-3.627,1.945
		s-1.365,2.969-1.365,5.016c0,1.953,0.467,3.537,1.4,4.752s2.139,1.822,3.615,1.822c1.609,0,2.848-0.57,3.715-1.711l1.289,1.793
		c-1.359,1.352-3.109,2.027-5.25,2.027c-2.242,0-4.008-0.809-5.297-2.426s-1.934-3.75-1.934-6.398c0-2.562,0.688-4.691,2.062-6.387
		s3.152-2.543,5.332-2.543C76.392,0.227,77.853,0.536,78.907,1.153z"/>
	<path fill="#FFFFFF" d="M82.251,17.688V0.52h2.344v17.168H82.251z"/>
	<path fill="#FFFFFF" d="M94.677,2.629v15.059h-2.344V2.629h-5.461V0.52h13.512v2.109H94.677z"/>
	<path fill="#FFFFFF" d="M102.662,17.688V0.52h2.344v17.168H102.662z"/>
	<path fill="#FFFFFF" d="M111.081,2.629v4.77h5.672v1.992h-5.672v6.188h7.781v2.109h-10.125V0.52h10.254v2.109H111.081z"/>
	<path fill="#FFFFFF" d="M120.935,16.903l0.855-2.156c0.438,0.32,0.982,0.588,1.635,0.803s1.236,0.322,1.752,0.322
		c0.914,0,1.648-0.25,2.203-0.75s0.832-1.137,0.832-1.91c0-0.578-0.154-1.115-0.463-1.611s-1.084-1.037-2.326-1.623l-1.383-0.645
		c-1.172-0.547-1.99-1.195-2.455-1.945s-0.697-1.652-0.697-2.707c0-1.281,0.453-2.344,1.359-3.188s2.07-1.266,3.492-1.266
		c1.898,0,3.219,0.309,3.961,0.926l-0.691,2.039c-0.312-0.227-0.789-0.445-1.43-0.656s-1.234-0.316-1.781-0.316
		c-0.797,0-1.424,0.227-1.881,0.68s-0.686,1.035-0.686,1.746c0,0.438,0.082,0.836,0.246,1.195s0.393,0.66,0.686,0.902
		s0.893,0.582,1.799,1.02l1.406,0.668c1.172,0.555,1.994,1.217,2.467,1.986s0.709,1.748,0.709,2.936
		c0,1.289-0.518,2.383-1.553,3.281s-2.42,1.348-4.154,1.348C123.313,17.981,122.013,17.622,120.935,16.903z"/>
	<path fill="#FFFFFF" d="M6.572,43.688V22.943h2.832v18.196h9.374v2.549H6.572z"/>
	<path fill="#FFFFFF" d="M21.536,43.688V22.943h2.832v20.745H21.536z"/>
	<path fill="#FFFFFF" d="M34.75,43.688h-5.919V22.943c2.521-0.123,4.338-0.184,5.452-0.184c2.048,0,3.634,0.441,4.758,1.324
		c1.123,0.882,1.685,2.145,1.685,3.788c0,0.963-0.358,1.841-1.076,2.634s-1.511,1.289-2.379,1.487
		c1.643,0.396,2.839,1.053,3.59,1.968c0.75,0.916,1.126,2.162,1.126,3.738c0,1.822-0.668,3.276-2.004,4.361
		S36.902,43.688,34.75,43.688z M31.663,25.209v5.961c0.595,0.057,1.331,0.085,2.209,0.085c2.681,0,4.021-1.09,4.021-3.271
		c0-1.917-1.231-2.875-3.696-2.875C33.254,25.11,32.409,25.143,31.663,25.209z M31.663,33.365v7.916
		c0.973,0.094,1.718,0.142,2.237,0.142c1.774,0,3.07-0.333,3.887-0.998c0.816-0.666,1.225-1.726,1.225-3.179
		c0-1.35-0.389-2.346-1.168-2.988c-0.778-0.642-2.079-0.963-3.9-0.963L31.663,33.365z"/>
	<path fill="#FFFFFF" d="M56.631,43.688l-5.537-8.907c-0.633,0-1.633-0.047-3.002-0.142v9.048H45.26V22.943
		c0.104,0,0.838-0.036,2.202-0.106c1.364-0.071,2.357-0.106,2.98-0.106c4.984,0,7.477,1.982,7.477,5.947
		c0,1.303-0.401,2.476-1.204,3.519c-0.802,1.043-1.756,1.692-2.859,1.947l6.018,9.544H56.631z M48.092,25.492v6.74
		c0.68,0.094,1.341,0.142,1.982,0.142c1.699,0,2.936-0.274,3.71-0.821s1.161-1.524,1.161-2.931c0-1.161-0.415-1.997-1.246-2.506
		s-2.143-0.765-3.937-0.765C49.479,25.351,48.923,25.398,48.092,25.492z"/>
	<path fill="#FFFFFF" d="M75.074,43.688l-1.431-4.375h-7.717l-1.529,4.375h-3.172l8.426-21.028h0.75l7.816,21.028H75.074z
		 M69.892,28.098l-3.215,9.133h6.16L69.892,28.098z"/>
	<path fill="#FFFFFF" d="M92.019,43.688l-5.537-8.907c-0.633,0-1.633-0.047-3.002-0.142v9.048h-2.832V22.943
		c0.104,0,0.838-0.036,2.202-0.106c1.364-0.071,2.357-0.106,2.98-0.106c4.984,0,7.477,1.982,7.477,5.947
		c0,1.303-0.401,2.476-1.204,3.519c-0.802,1.043-1.756,1.692-2.859,1.947l6.018,9.544H92.019z M83.479,25.492v6.74
		c0.68,0.094,1.341,0.142,1.982,0.142c1.699,0,2.936-0.274,3.71-0.821s1.161-1.524,1.161-2.931c0-1.161-0.415-1.997-1.246-2.506
		s-2.143-0.765-3.937-0.765C84.867,25.351,84.311,25.398,83.479,25.492z"/>
	<path fill="#FFFFFF" d="M97.848,43.688V22.943h2.832v20.745H97.848z"/>
	<path fill="#FFFFFF" d="M107.975,25.492v5.763h6.854v2.407h-6.854v7.477h9.402v2.549h-12.234V22.943h12.39v2.549H107.975z"/>
	<path fill="#FFFFFF" d="M119.838,42.739l1.033-2.605c0.529,0.387,1.188,0.71,1.976,0.97c0.788,0.259,1.494,0.389,2.117,0.389
		c1.104,0,1.992-0.302,2.662-0.906s1.005-1.374,1.005-2.308c0-0.699-0.186-1.348-0.559-1.947c-0.373-0.599-1.311-1.253-2.811-1.961
		l-1.672-0.779c-1.416-0.661-2.404-1.444-2.966-2.351s-0.843-1.997-0.843-3.271c0-1.548,0.548-2.832,1.643-3.852
		s2.502-1.529,4.22-1.529c2.294,0,3.89,0.373,4.786,1.119l-0.836,2.464c-0.377-0.274-0.953-0.538-1.727-0.793
		c-0.774-0.255-1.492-0.382-2.152-0.382c-0.963,0-1.721,0.274-2.273,0.821c-0.552,0.547-0.828,1.251-0.828,2.11
		c0,0.529,0.1,1.01,0.297,1.444c0.199,0.434,0.475,0.798,0.829,1.09c0.354,0.292,1.078,0.703,2.173,1.232l1.699,0.807
		c1.416,0.67,2.41,1.47,2.981,2.4c0.571,0.93,0.856,2.112,0.856,3.547c0,1.558-0.625,2.879-1.876,3.965s-2.925,1.628-5.021,1.628
		C122.713,44.042,121.141,43.608,119.838,42.739z"/>
</g>
</svg>
