<?xml version="1.0" encoding="utf-8"?>
<!-- Generator: Adobe Illustrator 21.1.0, SVG Export Plug-In . SVG Version: 6.00 Build 0)  -->
<svg version="1.1" id="Layer_1" xmlns="http://www.w3.org/2000/svg" xmlns:xlink="http://www.w3.org/1999/xlink" x="0px" y="0px"
	 viewBox="0 0 289 64" style="enable-background:new 0 0 289 64;" xml:space="preserve">
<style type="text/css">
	.st0{enable-background:new    ;}
	.st1{fill:#1B1464;}
</style>
<title>peacock_wordmark</title>
<g class="st0">
	<path class="st1" d="M32.9,52.4c0,0.9-0.1,1.7-0.4,2.4s-0.6,1.3-1.1,1.8s-1,0.9-1.7,1.2s-1.4,0.4-2.2,0.4c-0.8,0-1.5-0.1-2.2-0.4
		c-0.7-0.3-1.2-0.7-1.7-1.2c-0.5-0.5-0.8-1.1-1.1-1.8c-0.3-0.7-0.4-1.5-0.4-2.4c0-0.9,0.1-1.7,0.4-2.4c0.3-0.7,0.6-1.3,1.1-1.8
		c0.5-0.5,1-0.9,1.7-1.2c0.7-0.3,1.4-0.4,2.2-0.4c0.8,0,1.5,0.1,2.2,0.4s1.2,0.7,1.7,1.2s0.8,1.1,1.1,1.8S32.9,51.5,32.9,52.4z
		 M32,52.4c0-0.8-0.1-1.5-0.3-2.1s-0.5-1.2-0.9-1.6c-0.4-0.4-0.9-0.8-1.4-1c-0.6-0.2-1.2-0.3-1.9-0.3c-0.7,0-1.3,0.1-1.8,0.3
		c-0.6,0.2-1,0.6-1.4,1c-0.4,0.4-0.7,1-0.9,1.6c-0.2,0.6-0.3,1.3-0.3,2.1c0,0.8,0.1,1.5,0.3,2.1c0.2,0.6,0.5,1.2,0.9,1.6
		c0.4,0.4,0.9,0.8,1.4,1c0.6,0.2,1.2,0.3,1.8,0.3c0.7,0,1.3-0.1,1.9-0.3c0.6-0.2,1-0.6,1.4-1c0.4-0.4,0.7-1,0.9-1.6
		C31.9,53.9,32,53.2,32,52.4z"/>
</g>
<g class="st0">
	<path class="st1" d="M40.8,47.4v4.8h5.2v0.7h-5.2V58H40V46.7h6.8v0.7H40.8z"/>
</g>
<g class="st0">
	<path class="st1" d="M70.7,46.7V58h-0.8v-5.4h-7.1V58h-0.8V46.7h0.8V52h7.1v-5.3H70.7z"/>
	<path class="st1" d="M79.3,58h-0.8V46.7h0.8V58z"/>
	<path class="st1" d="M96.2,52.9v4c-0.6,0.4-1.2,0.7-1.8,0.9c-0.6,0.2-1.4,0.3-2.2,0.3c-0.9,0-1.7-0.1-2.4-0.4
		c-0.7-0.3-1.3-0.7-1.8-1.2s-0.9-1.1-1.2-1.8c-0.3-0.7-0.4-1.5-0.4-2.4s0.1-1.7,0.4-2.4s0.6-1.3,1.1-1.8c0.5-0.5,1.1-0.9,1.8-1.2
		s1.5-0.4,2.4-0.4c0.4,0,0.8,0,1.2,0.1c0.4,0.1,0.7,0.1,1,0.3c0.3,0.1,0.6,0.3,0.9,0.4s0.5,0.4,0.8,0.6l-0.2,0.4
		c-0.1,0.1-0.2,0.2-0.3,0.1c-0.1,0-0.2-0.1-0.3-0.2s-0.4-0.2-0.6-0.4s-0.6-0.2-1-0.3s-0.9-0.2-1.4-0.2c-0.7,0-1.4,0.1-2,0.4
		c-0.6,0.2-1.1,0.6-1.5,1c-0.4,0.4-0.7,1-1,1.6c-0.2,0.6-0.3,1.3-0.3,2.1c0,0.8,0.1,1.5,0.3,2.1s0.6,1.2,1,1.6c0.4,0.4,1,0.8,1.6,1
		c0.6,0.2,1.3,0.4,2.1,0.4c0.3,0,0.6,0,0.9-0.1c0.3,0,0.6-0.1,0.8-0.2c0.3-0.1,0.5-0.2,0.8-0.3c0.2-0.1,0.5-0.2,0.7-0.4v-3h-2.2
		c-0.1,0-0.1,0-0.1-0.1c0,0-0.1-0.1-0.1-0.1v-0.4H96.2z"/>
	<path class="st1" d="M112.1,46.7V58h-0.8v-5.4h-7.1V58h-0.8V46.7h0.8V52h7.1v-5.3H112.1z"/>
	<path class="st1" d="M126.1,57.3V58H120V46.7h0.8v10.6H126.1z"/>
	<path class="st1" d="M141.1,58h-0.6c-0.1,0-0.1,0-0.2-0.1c0,0-0.1-0.1-0.1-0.2l-1.3-3.3h-5.6l-1.3,3.3c0,0.1-0.1,0.1-0.1,0.2
		c-0.1,0-0.1,0.1-0.2,0.1h-0.6l4.6-11.3h0.8L141.1,58z M138.6,53.9l-2.3-5.7c-0.1-0.2-0.2-0.4-0.2-0.7c0,0.1-0.1,0.2-0.1,0.4
		c0,0.1-0.1,0.2-0.1,0.3l-2.3,5.7H138.6z"/>
	<path class="st1" d="M156.2,46.7V58h-0.4c-0.1,0-0.1,0-0.2,0c0,0-0.1-0.1-0.1-0.1l-7.4-9.8c0,0.2,0,0.3,0,0.5V58h-0.7V46.7h0.4
		c0.1,0,0.1,0,0.2,0s0.1,0.1,0.1,0.1l7.3,9.8c0-0.2,0-0.3,0-0.5v-9.5H156.2z"/>
	<path class="st1" d="M173.6,52.4c0,0.9-0.1,1.7-0.4,2.4c-0.3,0.7-0.6,1.3-1.1,1.8c-0.5,0.5-1,0.9-1.7,1.1c-0.7,0.3-1.4,0.4-2.2,0.4
		h-4.1V46.7h4.1c0.8,0,1.5,0.1,2.2,0.4c0.7,0.3,1.2,0.6,1.7,1.1c0.5,0.5,0.8,1.1,1.1,1.8C173.5,50.7,173.6,51.5,173.6,52.4z
		 M172.7,52.4c0-0.8-0.1-1.5-0.3-2.1c-0.2-0.6-0.5-1.1-0.9-1.6c-0.4-0.4-0.9-0.8-1.4-1c-0.6-0.2-1.2-0.3-1.9-0.3h-3.3v10h3.3
		c0.7,0,1.3-0.1,1.9-0.3c0.6-0.2,1-0.5,1.4-1c0.4-0.4,0.7-0.9,0.9-1.6S172.7,53.2,172.7,52.4z"/>
</g>
<g class="st0">
	<path class="st1" d="M199.1,52.4c0,0.9-0.1,1.7-0.4,2.4c-0.3,0.7-0.6,1.3-1.1,1.8c-0.5,0.5-1,0.9-1.7,1.1c-0.7,0.3-1.4,0.4-2.2,0.4
		h-4.1V46.7h4.1c0.8,0,1.5,0.1,2.2,0.4c0.7,0.3,1.2,0.6,1.7,1.1c0.5,0.5,0.8,1.1,1.1,1.8C198.9,50.7,199.1,51.5,199.1,52.4z
		 M198.2,52.4c0-0.8-0.1-1.5-0.3-2.1c-0.2-0.6-0.5-1.1-0.9-1.6c-0.4-0.4-0.9-0.8-1.4-1c-0.6-0.2-1.2-0.3-1.9-0.3h-3.3v10h3.3
		c0.7,0,1.3-0.1,1.9-0.3c0.6-0.2,1-0.5,1.4-1c0.4-0.4,0.7-0.9,0.9-1.6S198.2,53.2,198.2,52.4z"/>
</g>
<g class="st0">
	<path class="st1" d="M214.5,58h-0.6c-0.1,0-0.1,0-0.2-0.1c0,0-0.1-0.1-0.1-0.2l-1.3-3.3h-5.6l-1.3,3.3c0,0.1-0.1,0.1-0.1,0.2
		c-0.1,0-0.1,0.1-0.2,0.1h-0.6l4.6-11.3h0.8L214.5,58z M212,53.9l-2.3-5.7c-0.1-0.2-0.2-0.4-0.2-0.7c0,0.1-0.1,0.2-0.1,0.4
		c0,0.1-0.1,0.2-0.1,0.3l-2.3,5.7H212z"/>
	<path class="st1" d="M229.6,46.7V58h-0.4c-0.1,0-0.1,0-0.2,0c0,0-0.1-0.1-0.1-0.1l-7.4-9.8c0,0.2,0,0.3,0,0.5V58h-0.7V46.7h0.4
		c0.1,0,0.1,0,0.2,0c0,0,0.1,0.1,0.1,0.1l7.3,9.8c0-0.2,0-0.3,0-0.5v-9.5H229.6z"/>
	<path class="st1" d="M245.6,56.1c0.1,0,0.1,0,0.1,0.1l0.3,0.3c-0.2,0.3-0.5,0.5-0.8,0.7s-0.6,0.4-0.9,0.5c-0.3,0.1-0.7,0.3-1.1,0.3
		s-0.8,0.1-1.3,0.1c-0.8,0-1.5-0.1-2.2-0.4c-0.7-0.3-1.2-0.7-1.7-1.2s-0.8-1.1-1.1-1.8c-0.3-0.7-0.4-1.5-0.4-2.4
		c0-0.9,0.1-1.6,0.4-2.4c0.3-0.7,0.6-1.3,1.1-1.8c0.5-0.5,1.1-0.9,1.7-1.2c0.7-0.3,1.4-0.4,2.2-0.4c0.8,0,1.5,0.1,2.1,0.4
		s1.1,0.6,1.6,1l-0.2,0.4c0,0.1-0.1,0.1-0.2,0.1c-0.1,0-0.2-0.1-0.3-0.2s-0.3-0.2-0.6-0.4c-0.3-0.1-0.6-0.3-1-0.4
		c-0.4-0.1-0.8-0.2-1.4-0.2c-0.7,0-1.3,0.1-1.9,0.4c-0.6,0.2-1.1,0.6-1.5,1s-0.7,1-1,1.6c-0.2,0.6-0.3,1.3-0.3,2.1
		c0,0.8,0.1,1.5,0.3,2.1c0.2,0.6,0.5,1.2,1,1.6c0.4,0.4,0.9,0.8,1.4,1c0.6,0.2,1.1,0.3,1.8,0.3c0.4,0,0.8,0,1.1-0.1
		c0.3-0.1,0.6-0.1,0.9-0.2c0.3-0.1,0.5-0.2,0.7-0.4c0.2-0.2,0.5-0.3,0.7-0.5C245.5,56.2,245.5,56.2,245.6,56.1
		C245.5,56.1,245.6,56.1,245.6,56.1z"/>
	<path class="st1" d="M259.5,57.4l0,0.7h-6.8V46.7h6.8v0.7h-6V52h5v0.7h-5v4.7H259.5z"/>
</g>
<path class="st1" d="M23.7,11.9h-6.5v18.4h-4V11.9H6.5V8.6h17.1V11.9z"/>
<path class="st1" d="M29.4,16.5c0.6-0.6,1.3-1,2-1.4c0.8-0.4,1.7-0.5,2.5-0.5c0.8,0,1.5,0.1,2.2,0.4c0.6,0.3,1.2,0.7,1.6,1.2
	c0.5,0.5,0.8,1.2,1,1.9c0.2,0.8,0.3,1.6,0.3,2.4v9.8h-3.7v-9.8c0-0.8-0.2-1.6-0.6-2.2c-0.5-0.6-1.2-0.8-2-0.8
	c-0.6,0-1.2,0.1-1.8,0.4c-0.6,0.3-1.1,0.7-1.6,1.2v11.1h-3.7V7.9h3.7V16.5z"/>
<path class="st1" d="M45.4,23c0,0.7,0.2,1.4,0.4,2c0.2,0.5,0.5,1,0.9,1.4c0.4,0.4,0.8,0.7,1.3,0.8c0.5,0.2,1.1,0.3,1.6,0.3
	c0.5,0,1-0.1,1.5-0.2c0.4-0.1,0.8-0.3,1.1-0.5l0.8-0.5c0.2-0.1,0.5-0.2,0.7-0.2c0.3,0,0.5,0.1,0.7,0.4l1.1,1.4
	c-0.4,0.5-0.9,0.9-1.4,1.2c-0.5,0.3-1,0.6-1.6,0.8c-0.6,0.2-1.1,0.3-1.7,0.4c-0.6,0.1-1.1,0.1-1.7,0.1c-1,0-2-0.2-3-0.5
	c-0.9-0.3-1.7-0.9-2.4-1.6c-0.7-0.7-1.3-1.6-1.6-2.6c-0.4-1.1-0.6-2.3-0.6-3.6c0-1,0.2-2,0.5-3c0.3-0.9,0.8-1.7,1.5-2.4
	c0.7-0.7,1.5-1.2,2.3-1.5c1-0.4,2-0.6,3.1-0.6c0.9,0,1.8,0.1,2.7,0.5c0.8,0.3,1.5,0.8,2.1,1.4c0.6,0.6,1.1,1.4,1.4,2.2
	c0.4,1,0.5,2,0.5,3c0,0.4,0,0.8-0.2,1.1c-0.2,0.2-0.4,0.3-0.7,0.3L45.4,23z M52.5,20.8c0-0.5-0.1-0.9-0.2-1.4
	c-0.1-0.4-0.3-0.8-0.6-1.1c-0.3-0.3-0.6-0.6-1-0.8c-0.5-0.2-1-0.3-1.5-0.3c-0.9-0.1-1.8,0.3-2.5,0.9c-0.7,0.7-1.1,1.6-1.2,2.6
	L52.5,20.8z"/>
<path class="st1" d="M73.5,8.6c1.3,0,2.5,0.1,3.8,0.5c1,0.3,1.9,0.8,2.6,1.4c0.7,0.6,1.2,1.3,1.5,2.2c0.3,0.9,0.5,1.8,0.5,2.8
	c0,1-0.2,2-0.5,2.9c-0.3,0.9-0.9,1.6-1.6,2.3c-0.8,0.7-1.7,1.2-2.6,1.5c-1.2,0.4-2.4,0.6-3.7,0.5h-3v7.6h-4V8.6H73.5z M73.5,19.5
	c0.7,0,1.3-0.1,1.9-0.3c0.5-0.2,1-0.4,1.4-0.8c0.4-0.3,0.6-0.8,0.8-1.3c0.2-0.5,0.3-1.1,0.3-1.7c0-0.5-0.1-1.1-0.3-1.6
	c-0.2-0.5-0.4-0.9-0.8-1.2c-0.4-0.3-0.9-0.6-1.4-0.8c-0.6-0.2-1.3-0.3-2-0.3h-3v7.8L73.5,19.5z"/>
<path class="st1" d="M86.6,23c0,0.7,0.2,1.4,0.4,2c0.2,0.5,0.5,1,0.9,1.4c0.4,0.4,0.8,0.7,1.3,0.8c0.5,0.2,1.1,0.3,1.6,0.3
	c0.5,0,1-0.1,1.6-0.2c0.4-0.1,0.8-0.3,1.1-0.5l0.9-0.5c0.2-0.1,0.5-0.2,0.7-0.2c0.3,0,0.5,0.1,0.7,0.4l1.1,1.4
	c-0.4,0.5-0.9,0.9-1.4,1.2c-0.5,0.3-1,0.6-1.6,0.8c-0.6,0.2-1.1,0.3-1.7,0.4c-0.6,0.1-1.1,0.1-1.7,0.1c-1,0-2-0.2-3-0.5
	c-0.9-0.3-1.7-0.9-2.4-1.6c-0.7-0.7-1.3-1.6-1.6-2.6c-0.4-1.1-0.6-2.3-0.6-3.6c0-1,0.2-2,0.5-3c0.3-0.9,0.8-1.7,1.5-2.4
	c0.7-0.7,1.4-1.3,2.3-1.6c1-0.4,2-0.6,3.1-0.6c0.9,0,1.8,0.1,2.7,0.5c0.8,0.3,1.5,0.8,2.1,1.4c0.6,0.6,1.1,1.4,1.4,2.2
	c0.4,1,0.5,2,0.5,3c0,0.4,0,0.8-0.2,1.1c-0.2,0.2-0.4,0.3-0.7,0.3L86.6,23z M93.7,20.8c0-0.5-0.1-0.9-0.2-1.4
	c-0.1-0.4-0.3-0.8-0.6-1.1c-0.3-0.3-0.6-0.6-1-0.8c-0.5-0.2-1-0.3-1.4-0.3c-0.9-0.1-1.8,0.3-2.5,0.9c-0.7,0.7-1.1,1.6-1.2,2.6
	L93.7,20.8z"/>
<path class="st1" d="M99.4,17c1.7-1.6,4-2.5,6.4-2.4c0.8,0,1.7,0.1,2.4,0.4c0.7,0.3,1.3,0.7,1.8,1.2c0.5,0.5,0.9,1.2,1.1,1.9
	c0.3,0.8,0.4,1.6,0.4,2.4v9.7h-1.7c-0.3,0-0.6,0-0.8-0.2c-0.2-0.2-0.4-0.4-0.4-0.6l-0.3-1.1c-0.4,0.3-0.7,0.6-1.1,0.9
	c-0.4,0.3-0.8,0.5-1.2,0.7c-0.4,0.2-0.8,0.3-1.3,0.4c-0.5,0.1-1,0.1-1.5,0.1c-0.6,0-1.2-0.1-1.8-0.3c-0.5-0.2-1-0.4-1.4-0.8
	c-0.4-0.4-0.7-0.8-0.9-1.3c-0.2-0.6-0.3-1.2-0.3-1.8c0-0.4,0.1-0.8,0.2-1.2c0.1-0.4,0.4-0.8,0.6-1.1c0.3-0.4,0.7-0.7,1.2-1
	c0.5-0.3,1.1-0.6,1.7-0.8c0.8-0.3,1.6-0.4,2.4-0.6c1-0.2,2.1-0.2,3.1-0.3v-0.9c0.1-0.8-0.2-1.6-0.7-2.3c-0.5-0.5-1.2-0.8-1.9-0.7
	c-0.5,0-1,0.1-1.5,0.2c-0.3,0.1-0.7,0.3-1,0.5l-0.8,0.5c-0.2,0.1-0.5,0.2-0.8,0.2c-0.2,0-0.5-0.1-0.7-0.2c-0.2-0.1-0.3-0.3-0.4-0.5
	L99.4,17z M107.9,23.7c-0.9,0-1.8,0.1-2.7,0.3c-0.6,0.1-1.2,0.3-1.8,0.5c-0.4,0.2-0.7,0.4-0.9,0.7c-0.5,0.7-0.4,1.7,0.3,2.3
	c0.4,0.3,1,0.4,1.5,0.4c0.7,0,1.4-0.1,2-0.4c0.6-0.3,1.2-0.7,1.6-1.2L107.9,23.7z"/>
<path class="st1" d="M126,18.1c-0.1,0.1-0.2,0.2-0.3,0.3c-0.1,0.1-0.3,0.1-0.5,0.1c-0.2,0-0.4-0.1-0.6-0.2L124,18
	c-0.3-0.2-0.6-0.3-0.9-0.4c-0.4-0.1-0.8-0.2-1.3-0.2c-0.6,0-1.2,0.1-1.7,0.4c-0.5,0.2-0.9,0.6-1.2,1c-0.3,0.5-0.6,1-0.7,1.6
	c-0.2,0.7-0.2,1.4-0.2,2.1c0,0.7,0.1,1.5,0.3,2.2c0.1,0.6,0.4,1.1,0.8,1.6c0.3,0.4,0.7,0.8,1.2,1c0.5,0.2,1,0.3,1.6,0.3
	c0.5,0,1-0.1,1.4-0.2c0.3-0.1,0.6-0.3,0.9-0.5l0.7-0.5c0.2-0.1,0.4-0.2,0.6-0.2c0.3,0,0.5,0.1,0.7,0.4l1.1,1.4
	c-0.4,0.5-0.8,0.9-1.3,1.2c-0.5,0.3-1,0.6-1.5,0.8c-0.5,0.2-1,0.3-1.6,0.4c-0.5,0.1-1.1,0.1-1.6,0.1c-0.9,0-1.8-0.2-2.7-0.5
	c-0.8-0.4-1.6-0.9-2.2-1.5c-0.7-0.7-1.2-1.6-1.5-2.5c-0.4-1.1-0.6-2.2-0.6-3.4c0-1.1,0.2-2.1,0.5-3.1c0.3-0.9,0.8-1.8,1.4-2.5
	c0.6-0.7,1.4-1.3,2.3-1.7c1-0.4,2.1-0.6,3.2-0.6c1,0,2,0.2,3,0.6c0.9,0.4,1.7,0.9,2.4,1.6L126,18.1z"/>
<path class="st1" d="M136,14.6c1.1,0,2.1,0.2,3.1,0.6c0.9,0.4,1.7,0.9,2.4,1.6c0.7,0.7,1.2,1.6,1.5,2.5c0.4,1.1,0.6,2.2,0.5,3.3
	c0,1.1-0.2,2.2-0.5,3.3c-0.3,0.9-0.9,1.8-1.5,2.5c-0.7,0.7-1.5,1.2-2.4,1.6c-1,0.4-2,0.6-3.1,0.5c-1.1,0-2.1-0.2-3.1-0.5
	c-0.9-0.3-1.7-0.9-2.4-1.6c-0.7-0.7-1.2-1.6-1.5-2.5c-0.4-1.1-0.6-2.2-0.6-3.3c0-1.1,0.2-2.2,0.6-3.3c0.3-0.9,0.9-1.8,1.5-2.5
	c0.7-0.7,1.5-1.2,2.4-1.6C133.8,14.8,134.9,14.6,136,14.6z M136,27.6c1.1,0.1,2.2-0.4,2.8-1.3c0.7-1.1,1-2.5,0.9-3.8
	c0.1-1.3-0.2-2.6-0.9-3.8c-0.7-0.9-1.7-1.4-2.8-1.3c-1.1-0.1-2.2,0.4-2.9,1.3c-0.7,1.1-1,2.5-0.9,3.8c-0.1,1.3,0.2,2.6,0.9,3.8
	C133.8,27.2,134.9,27.7,136,27.6z"/>
<path class="st1" d="M157.4,18.1c-0.1,0.1-0.2,0.2-0.3,0.3c-0.1,0.1-0.3,0.1-0.5,0.1c-0.2,0-0.4-0.1-0.6-0.2l-0.6-0.4
	c-0.3-0.2-0.6-0.3-0.9-0.4c-0.4-0.1-0.8-0.2-1.3-0.2c-0.6,0-1.2,0.1-1.7,0.4c-0.5,0.2-0.9,0.6-1.2,1c-0.3,0.5-0.6,1-0.7,1.6
	c-0.2,0.7-0.2,1.4-0.2,2.1c0,0.7,0.1,1.5,0.3,2.2c0.1,0.6,0.4,1.1,0.8,1.6c0.3,0.4,0.7,0.8,1.2,1c0.5,0.2,1,0.3,1.6,0.3
	c0.5,0,1-0.1,1.4-0.2c0.3-0.1,0.6-0.3,0.9-0.5l0.6-0.5c0.2-0.1,0.4-0.2,0.6-0.2c0.3,0,0.5,0.1,0.7,0.4l1.1,1.4
	c-0.4,0.5-0.8,0.9-1.3,1.2c-0.5,0.3-1,0.6-1.5,0.8c-0.5,0.2-1,0.3-1.6,0.4c-0.5,0.1-1.1,0.1-1.6,0.1c-0.9,0-1.8-0.2-2.7-0.5
	c-0.8-0.4-1.6-0.9-2.2-1.5c-0.7-0.7-1.2-1.6-1.5-2.5c-0.4-1.1-0.6-2.2-0.6-3.4c0-1.1,0.2-2.1,0.5-3.1c0.3-0.9,0.8-1.8,1.4-2.5
	c0.6-0.7,1.4-1.3,2.3-1.7c1-0.4,2.1-0.6,3.2-0.6c1,0,2,0.2,3,0.6c0.9,0.4,1.7,0.9,2.3,1.6L157.4,18.1z"/>
<path class="st1" d="M164.6,7.9v12.8h0.7c0.2,0,0.4,0,0.6-0.1c0.2-0.1,0.3-0.2,0.4-0.4l3.8-4.7c0.1-0.2,0.3-0.4,0.5-0.5
	c0.2-0.1,0.5-0.2,0.8-0.2h3.4l-4.8,5.7c-0.3,0.4-0.7,0.7-1.1,1c0.2,0.1,0.4,0.3,0.6,0.5c0.2,0.2,0.3,0.4,0.5,0.6l5.1,7.5h-3.3
	c-0.3,0-0.5,0-0.8-0.1c-0.2-0.1-0.4-0.3-0.5-0.5l-3.9-5.8c-0.1-0.2-0.2-0.3-0.4-0.5c-0.2-0.1-0.4-0.1-0.7-0.1h-0.8v7h-3.7V7.9H164.6
	z"/>
<path class="st1" d="M196.3,12.5c-0.1,0.2-0.2,0.4-0.3,0.5c-0.1,0.1-0.3,0.1-0.5,0.1c-0.2,0-0.5-0.1-0.7-0.2
	c-0.2-0.2-0.5-0.3-0.9-0.5c-0.4-0.2-0.8-0.4-1.2-0.5c-0.5-0.2-1.1-0.2-1.6-0.2c-0.5,0-1,0.1-1.5,0.2c-0.4,0.1-0.7,0.3-1.1,0.6
	c-0.3,0.2-0.5,0.5-0.6,0.9c-0.1,0.3-0.2,0.7-0.2,1.1c0,0.5,0.1,0.9,0.4,1.3c0.3,0.4,0.7,0.7,1.1,0.9c0.5,0.3,1.1,0.5,1.6,0.6
	l1.8,0.6c0.6,0.2,1.2,0.5,1.9,0.8c0.6,0.3,1.1,0.6,1.6,1.1c0.5,0.5,0.9,1,1.1,1.6c0.3,0.7,0.5,1.5,0.4,2.3c0,0.9-0.2,1.9-0.5,2.8
	c-0.3,0.8-0.8,1.6-1.5,2.2c-0.7,0.7-1.5,1.2-2.4,1.5c-1,0.4-2.1,0.6-3.2,0.5c-0.7,0-1.3-0.1-2-0.2c-0.7-0.1-1.3-0.3-1.9-0.6
	c-0.6-0.2-1.2-0.5-1.7-0.9c-0.5-0.3-1-0.7-1.4-1.2l1.2-1.9c0.1-0.1,0.2-0.3,0.4-0.4c0.2-0.1,0.3-0.1,0.5-0.1c0.3,0,0.6,0.1,0.8,0.3
	c0.3,0.2,0.6,0.4,1,0.7c0.4,0.3,0.9,0.5,1.4,0.7c0.6,0.2,1.3,0.3,1.9,0.3c1,0.1,1.9-0.2,2.7-0.8c0.7-0.6,1-1.5,0.9-2.4
	c0-0.5-0.1-1-0.4-1.4c-0.3-0.4-0.7-0.7-1.1-0.9c-0.5-0.3-1-0.5-1.6-0.6c-0.6-0.2-1.2-0.4-1.8-0.5c-0.6-0.2-1.2-0.4-1.8-0.7
	c-0.6-0.3-1.1-0.6-1.6-1.1c-0.5-0.5-0.9-1.1-1.2-1.8c-0.3-0.8-0.5-1.6-0.4-2.5c0-0.8,0.2-1.6,0.5-2.3c0.3-0.8,0.8-1.4,1.4-2
	c0.6-0.6,1.4-1.1,2.2-1.4c1-0.4,2-0.5,3-0.5c1.2,0,2.4,0.2,3.5,0.6c1,0.4,2,0.9,2.8,1.7L196.3,12.5z"/>
<path class="st1" d="M211.6,18.1c-0.1,0.1-0.2,0.2-0.3,0.3c-0.1,0.1-0.3,0.1-0.5,0.1c-0.2,0-0.4-0.1-0.6-0.2l-0.6-0.4
	c-0.3-0.2-0.6-0.3-0.9-0.4c-0.4-0.1-0.8-0.2-1.3-0.2c-0.6,0-1.2,0.1-1.7,0.4c-0.5,0.2-0.9,0.6-1.2,1c-0.3,0.5-0.6,1-0.7,1.6
	c-0.2,0.7-0.2,1.4-0.2,2.1c0,0.7,0.1,1.5,0.3,2.2c0.1,0.6,0.4,1.1,0.8,1.6c0.3,0.4,0.7,0.8,1.2,1c0.5,0.2,1,0.3,1.6,0.3
	c0.5,0,1-0.1,1.4-0.2c0.3-0.1,0.6-0.3,0.9-0.5l0.6-0.5c0.2-0.1,0.4-0.2,0.6-0.2c0.3,0,0.5,0.1,0.7,0.4l1.1,1.4
	c-0.4,0.5-0.8,0.9-1.3,1.2c-0.5,0.3-1,0.6-1.5,0.8c-0.5,0.2-1,0.3-1.6,0.4c-0.5,0.1-1.1,0.1-1.6,0.1c-0.9,0-1.8-0.2-2.7-0.5
	c-0.8-0.4-1.6-0.9-2.2-1.5c-0.7-0.7-1.2-1.6-1.5-2.5c-0.4-1.1-0.6-2.2-0.6-3.4c0-1.1,0.2-2.1,0.5-3.1c0.3-0.9,0.8-1.8,1.4-2.5
	c0.6-0.7,1.4-1.3,2.3-1.7c1-0.4,2.1-0.6,3.2-0.6c1,0,2,0.2,3,0.6c0.9,0.4,1.7,0.9,2.3,1.6L211.6,18.1z"/>
<path class="st1" d="M218.8,16.5c0.6-0.6,1.3-1,2-1.4c0.8-0.4,1.7-0.5,2.5-0.5c0.8,0,1.5,0.1,2.2,0.4c0.6,0.3,1.2,0.7,1.6,1.2
	c0.5,0.5,0.8,1.2,1,1.9c0.2,0.8,0.3,1.6,0.3,2.4v9.8h-3.7v-9.8c0-0.8-0.2-1.6-0.6-2.2c-0.5-0.6-1.2-0.8-2-0.8
	c-0.6,0-1.2,0.1-1.8,0.4c-0.6,0.3-1.1,0.7-1.6,1.2v11.1h-3.7V7.9h3.7V16.5z"/>
<path class="st1" d="M275.2,7.9v22.3h-3.7V7.9H275.2z"/>
<path class="st1" d="M239.6,17.6h0.1c1.5,0,4.9,2.3,7.9,4.9c-3.1,2.6-6.7,4.9-8.2,4.9c-2.7,0-4.9-2.3-4.8-5
	C234.6,19.7,236.8,17.6,239.6,17.6 M239.5,14.6c-4.4-0.1-8,3.4-8,7.8c-0.1,4.4,3.4,8,7.8,8l0,0h0.1c4.4,0,12.6-7.9,12.6-7.9
	s-7.9-7.8-12.3-7.9H239.5z"/>
<path class="st1" d="M260.6,14.7v3c2.7,0,4.9,2.3,4.8,5c0,2.7-2.3,4.9-5,4.8h-0.2c-1.5,0-4.9-2.3-7.9-5c3.1-2.6,6.7-4.9,8.2-4.9
	L260.6,14.7 M260.6,14.7c-4.4,0-12.6,7.8-12.6,7.8s7.9,7.9,12.3,8h0.2c4.4,0.1,8-3.4,8-7.8c0.1-4.4-3.4-8-7.8-8H260.6z"/>
</svg>
