<?xml version="1.0" encoding="utf-8"?>
<!-- Generator: Adobe Illustrator 21.1.0, SVG Export Plug-In . SVG Version: 6.00 Build 0)  -->
<svg version="1.1" id="Layer_1" xmlns="http://www.w3.org/2000/svg" xmlns:xlink="http://www.w3.org/1999/xlink" x="0px" y="0px"
	 viewBox="0 0 426 496.5" style="enable-background:new 0 0 426 496.5;" xml:space="preserve">
<style type="text/css">
	.st0{fill:#2B7CA7;}
	.st1{fill:none;stroke:#2B7CA7;stroke-miterlimit:10;}
	.st2{fill:#FFFFFF;}
	.st3{fill:none;stroke:#CCCCCB;stroke-miterlimit:10;}
	.st4{enable-background:new    ;}
	.st5{fill:#6E828C;}
	.st6{fill:#2B7CA7;stroke:#2B7CA7;stroke-miterlimit:10;}
	.st7{fill:#C62026;}
	.st8{fill:#37474F;}
	.st9{fill:none;stroke:#C62026;stroke-miterlimit:10;}
	.st10{fill:#3B74BA;}
	.st11{opacity:0.25;fill:#2B7CA7;stroke:#2B7CA7;stroke-miterlimit:10;enable-background:new    ;}
	.st12{fill:none;stroke:#E6E6E6;stroke-miterlimit:10;}
	.st13{fill:none;stroke:#2B7CA7;stroke-width:3;stroke-miterlimit:10;}
</style>
<title>timeline_events</title>
<g>
	<g id="event_hover">
		
			<image style="overflow:visible;opacity:0.3;enable-background:new    ;" width="35" height="35" xlink:href="92906DD20E15470.png"  transform="matrix(0.9714 0 0 0.9714 268.98 177.25)">
		</image>
		
			<image style="overflow:visible;opacity:0.25;enable-background:new    ;" width="30" height="30" xlink:href="92906DD20E15471.png"  transform="matrix(0.9667 0 0 0.9667 271.48 178.75)">
		</image>
		<circle class="st0" cx="285.6" cy="193.6" r="12"/>
		<circle class="st1" cx="285.6" cy="193.6" r="12"/>
		<path class="st2" d="M288,192.2l-2.4,4.6l-2.4-4.6c-1.6,0.3-3.6,1.1-3.6,2.4v5c3.6,2.7,8.4,2.7,12,0v-5
			C291.6,193.3,289.5,192.5,288,192.2z M285.6,192.1c1.8,0,3.2-1.5,3.2-3.2s-1.5-3.2-3.2-3.2s-3.2,1.5-3.2,3.2l0,0
			C282.3,190.6,283.8,192.1,285.6,192.1L285.6,192.1z"/>
		
			<image style="overflow:visible;opacity:0.7;enable-background:new    ;" width="420" height="301" xlink:href="92906DD20E15476.png"  transform="matrix(0.9976 0 0 0.9967 4.29 195.17)">
		</image>
		<polygon class="st2" points="23.1,473.5 403.8,473.5 403.8,217.2 289.7,217.2 284.6,211.5 279.5,217.2 23.1,217.2 		"/>
		<polygon class="st3" points="23.1,473.5 403.8,473.5 403.8,217.2 289.7,217.2 284.6,211.5 279.5,217.2 23.1,217.2 		"/>
		<g class="st4">
			<path d="M91.5,245.9c-2.2,0-3.9-0.7-5.2-2.2c-1.3-1.4-2-3.3-2-5.6c0-2.5,0.7-4.5,2-5.9c1.3-1.5,3.2-2.2,5.5-2.2
				c2.1,0,3.8,0.7,5.1,2.1s1.9,3.3,1.9,5.6c0,2.5-0.7,4.5-2,6S93.7,245.9,91.5,245.9z M91.6,231.6c-1.6,0-2.9,0.6-3.9,1.8
				s-1.5,2.7-1.5,4.6s0.5,3.4,1.5,4.6c1,1.2,2.3,1.7,3.9,1.7c1.7,0,3-0.6,4-1.7c1-1.1,1.5-2.6,1.5-4.6c0-2-0.5-3.6-1.4-4.7
				S93.2,231.6,91.6,231.6z"/>
		</g>
		<g class="st4">
			<path d="M107.1,230.9c-0.3-0.2-0.7-0.3-1.2-0.3c-1.2,0-1.8,0.8-1.8,2.3v1.7h2.6v1.5h-2.6v9.5h-1.8v-9.5h-1.9v-1.5h1.9v-1.8
				c0-1.2,0.3-2.1,1-2.7c0.7-0.7,1.5-1,2.5-1c0.5,0,1,0.1,1.3,0.2V230.9z"/>
		</g>
		<g class="st4">
			<path d="M114.7,230.9c-0.3-0.2-0.7-0.3-1.2-0.3c-1.2,0-1.8,0.8-1.8,2.3v1.7h2.6v1.5h-2.6v9.5h-1.8v-9.5H108v-1.5h1.9v-1.8
				c0-1.2,0.3-2.1,1-2.7c0.7-0.7,1.5-1,2.5-1c0.5,0,1,0.1,1.3,0.2V230.9z"/>
		</g>
		<g class="st4">
			<path d="M117.4,231.8c-0.3,0-0.6-0.1-0.8-0.3c-0.2-0.2-0.3-0.5-0.3-0.8s0.1-0.6,0.3-0.8c0.2-0.2,0.5-0.3,0.8-0.3
				c0.3,0,0.6,0.1,0.8,0.3c0.2,0.2,0.3,0.5,0.3,0.8c0,0.3-0.1,0.6-0.3,0.8S117.7,231.8,117.4,231.8z M118.2,245.6h-1.8v-11h1.8
				V245.6z"/>
		</g>
		<g class="st4">
			<path d="M129,245.1c-0.8,0.5-1.8,0.8-3,0.8c-1.6,0-2.8-0.5-3.8-1.5c-1-1-1.4-2.3-1.4-4c0-1.8,0.5-3.3,1.6-4.4
				c1-1.1,2.4-1.6,4.2-1.6c1,0,1.8,0.2,2.6,0.5v1.8c-0.8-0.6-1.7-0.9-2.6-0.9c-1.1,0-2,0.4-2.8,1.2c-0.7,0.8-1.1,1.9-1.1,3.2
				c0,1.3,0.3,2.3,1,3.1s1.6,1.1,2.7,1.1c1,0,1.9-0.3,2.7-1V245.1z"/>
		</g>
		<g class="st4">
			<path d="M140.2,240.6h-7.8c0,1.2,0.4,2.2,1,2.8c0.6,0.7,1.5,1,2.6,1c1.2,0,2.4-0.4,3.4-1.2v1.7c-1,0.7-2.2,1.1-3.8,1.1
				c-1.6,0-2.8-0.5-3.7-1.5c-0.9-1-1.3-2.4-1.3-4.2c0-1.7,0.5-3.1,1.5-4.2c1-1.1,2.2-1.6,3.6-1.6s2.6,0.5,3.3,1.4
				c0.8,0.9,1.2,2.2,1.2,3.9V240.6z M138.4,239.1c0-1-0.3-1.8-0.7-2.4s-1.2-0.8-2-0.8c-0.8,0-1.5,0.3-2.1,0.9s-0.9,1.4-1.1,2.3
				H138.4z"/>
		</g>
		<g class="st4">
			<path d="M160.6,230.2l-5.7,15.4h-2l-5.6-15.4h2l4.3,12.2c0.1,0.4,0.2,0.8,0.3,1.4h0c0.1-0.4,0.2-0.9,0.4-1.4l4.4-12.2H160.6z"/>
		</g>
		<g class="st4">
			<path d="M163.6,231.8c-0.3,0-0.6-0.1-0.8-0.3c-0.2-0.2-0.3-0.5-0.3-0.8s0.1-0.6,0.3-0.8c0.2-0.2,0.5-0.3,0.8-0.3
				c0.3,0,0.6,0.1,0.8,0.3c0.2,0.2,0.3,0.5,0.3,0.8c0,0.3-0.1,0.6-0.3,0.8S163.9,231.8,163.6,231.8z M164.4,245.6h-1.8v-11h1.8
				V245.6z"/>
		</g>
		<g class="st4">
			<path d="M167.1,245.2v-1.9c1,0.7,2,1.1,3.2,1.1c1.5,0,2.3-0.5,2.3-1.5c0-0.3-0.1-0.5-0.2-0.7c-0.1-0.2-0.3-0.4-0.5-0.5
				s-0.5-0.3-0.8-0.4c-0.3-0.1-0.6-0.3-1-0.4c-0.5-0.2-0.9-0.4-1.3-0.6c-0.4-0.2-0.7-0.4-0.9-0.7c-0.2-0.2-0.4-0.5-0.6-0.8
				c-0.1-0.3-0.2-0.7-0.2-1.1c0-0.5,0.1-1,0.4-1.4c0.2-0.4,0.6-0.7,0.9-1c0.4-0.3,0.8-0.5,1.3-0.6s1-0.2,1.6-0.2
				c1,0,1.8,0.2,2.6,0.5v1.8c-0.8-0.5-1.7-0.8-2.8-0.8c-0.3,0-0.6,0-0.9,0.1c-0.3,0.1-0.5,0.2-0.7,0.3c-0.2,0.1-0.3,0.3-0.4,0.5
				c-0.1,0.2-0.2,0.4-0.2,0.6c0,0.3,0.1,0.5,0.2,0.7c0.1,0.2,0.3,0.4,0.5,0.5c0.2,0.2,0.4,0.3,0.7,0.4c0.3,0.1,0.6,0.3,1,0.4
				c0.5,0.2,0.9,0.4,1.3,0.6c0.4,0.2,0.7,0.4,1,0.7c0.3,0.2,0.5,0.5,0.6,0.9c0.1,0.3,0.2,0.7,0.2,1.1c0,0.5-0.1,1-0.4,1.4
				c-0.2,0.4-0.6,0.7-1,1c-0.4,0.3-0.9,0.5-1.4,0.6c-0.5,0.1-1.1,0.2-1.6,0.2C168.9,245.9,167.9,245.7,167.1,245.2z"/>
		</g>
		<g class="st4">
			<path d="M177.7,231.8c-0.3,0-0.6-0.1-0.8-0.3c-0.2-0.2-0.3-0.5-0.3-0.8s0.1-0.6,0.3-0.8c0.2-0.2,0.5-0.3,0.8-0.3
				c0.3,0,0.6,0.1,0.8,0.3c0.2,0.2,0.3,0.5,0.3,0.8c0,0.3-0.1,0.6-0.3,0.8S178,231.8,177.7,231.8z M178.5,245.6h-1.8v-11h1.8V245.6z
				"/>
		</g>
		<g class="st4">
			<path d="M187,245.5c-0.4,0.2-1,0.3-1.6,0.3c-1.9,0-2.9-1.1-2.9-3.2v-6.5h-1.9v-1.5h1.9v-2.7l1.8-0.6v3.3h2.8v1.5h-2.8v6.2
				c0,0.7,0.1,1.3,0.4,1.6c0.3,0.3,0.7,0.5,1.2,0.5c0.4,0,0.8-0.1,1.1-0.4V245.5z"/>
		</g>
		<g class="st4">
			<path class="st0" d="M95.6,265.7h-2v-5.4c0-0.6,0-1.2,0.1-1.9h-0.1c-0.1,0.6-0.2,1-0.3,1.2l-2.1,6.2h-1.7l-2.2-6.1
				c-0.1-0.2-0.2-0.6-0.3-1.3H87c0.1,0.9,0.1,1.7,0.1,2.4v5h-1.8v-9.1h3l1.9,5.4c0.1,0.4,0.3,0.9,0.3,1.3h0c0.1-0.5,0.2-0.9,0.4-1.3
				l1.9-5.4h2.9V265.7z"/>
			<path class="st0" d="M103.4,263.1h-4.2c0.1,0.9,0.7,1.4,1.8,1.4c0.7,0,1.3-0.2,1.9-0.5v1.4c-0.6,0.3-1.4,0.5-2.3,0.5
				c-1,0-1.9-0.3-2.4-0.9s-0.9-1.4-0.9-2.4c0-1.1,0.3-1.9,0.9-2.6s1.4-0.9,2.3-0.9c0.9,0,1.7,0.3,2.2,0.8c0.5,0.6,0.8,1.3,0.8,2.3
				V263.1z M101.5,261.8c0-0.9-0.4-1.4-1.1-1.4c-0.3,0-0.6,0.1-0.8,0.4c-0.2,0.3-0.4,0.6-0.4,1H101.5z"/>
		</g>
		<g class="st4">
			<path class="st5" d="M107.8,268.8v-13h0.8v13H107.8z"/>
		</g>
		<g class="st4">
			<path class="st5" d="M115.3,257.4v3.4h3.3v0.8h-3.3v4.1h-0.8v-9.1h4.4v0.8H115.3z"/>
		</g>
		<g class="st4">
			<path class="st5" d="M123.8,265.7v-1.2h0c-0.2,0.4-0.5,0.7-0.9,1c-0.4,0.2-0.8,0.3-1.2,0.3c-0.3,0-0.6,0-0.8-0.1
				c-0.3-0.1-0.5-0.2-0.6-0.4c-0.2-0.2-0.3-0.4-0.4-0.6c-0.1-0.2-0.1-0.5-0.1-0.8c0-0.6,0.2-1.1,0.5-1.4c0.4-0.3,0.9-0.6,1.7-0.7
				l2-0.3c0-1.2-0.5-1.9-1.5-1.9c-0.8,0-1.5,0.3-2.1,0.8v-0.9c0.1-0.1,0.3-0.2,0.5-0.3c0.2-0.1,0.4-0.1,0.5-0.2
				c0.2-0.1,0.4-0.1,0.6-0.1c0.2,0,0.4,0,0.6,0c0.7,0,1.3,0.2,1.6,0.6s0.6,1,0.6,1.8v4.2H123.8z M122.1,262.6
				c-0.3,0-0.5,0.1-0.7,0.2c-0.2,0.1-0.4,0.1-0.5,0.3c-0.1,0.1-0.2,0.2-0.3,0.4c-0.1,0.2-0.1,0.4-0.1,0.6c0,0.2,0,0.3,0.1,0.5
				c0.1,0.1,0.2,0.3,0.3,0.4c0.1,0.1,0.3,0.2,0.4,0.3s0.4,0.1,0.6,0.1c0.3,0,0.6-0.1,0.8-0.2s0.5-0.3,0.6-0.5
				c0.2-0.2,0.3-0.4,0.4-0.7s0.1-0.6,0.1-0.9v-0.6L122.1,262.6z"/>
			<path class="st5" d="M134.7,265.7v-3.8c0-0.4,0-0.7-0.1-1c-0.1-0.3-0.2-0.5-0.3-0.7c-0.1-0.2-0.3-0.3-0.5-0.4s-0.4-0.1-0.7-0.1
				c-0.2,0-0.5,0.1-0.7,0.2c-0.2,0.1-0.4,0.3-0.6,0.5c-0.2,0.2-0.3,0.4-0.4,0.7c-0.1,0.3-0.1,0.6-0.1,0.9v3.8h-0.8v-3.9
				c0-1.4-0.5-2-1.6-2c-0.2,0-0.5,0.1-0.7,0.2c-0.2,0.1-0.4,0.3-0.5,0.5c-0.2,0.2-0.3,0.4-0.4,0.7c-0.1,0.3-0.1,0.6-0.1,0.9v3.7
				h-0.8v-6.5h0.8v1.1h0c0.5-0.8,1.1-1.2,2-1.2c0.2,0,0.4,0,0.6,0.1c0.2,0.1,0.4,0.2,0.5,0.3c0.2,0.1,0.3,0.3,0.4,0.4
				c0.1,0.2,0.2,0.4,0.3,0.6c0.2-0.5,0.5-0.8,0.9-1.1c0.4-0.2,0.8-0.4,1.2-0.4c1.4,0,2.1,0.9,2.1,2.6v4H134.7z"/>
			<path class="st5" d="M137.9,257.6c-0.2,0-0.3-0.1-0.4-0.2c-0.1-0.1-0.2-0.2-0.2-0.4c0-0.2,0.1-0.3,0.2-0.4
				c0.1-0.1,0.2-0.2,0.4-0.2c0.1,0,0.2,0,0.2,0c0.1,0,0.1,0.1,0.2,0.1c0.1,0.1,0.1,0.1,0.1,0.2c0,0.1,0,0.1,0,0.2c0,0.1,0,0.2,0,0.2
				c0,0.1-0.1,0.1-0.1,0.2c-0.1,0.1-0.1,0.1-0.2,0.1C138.1,257.6,138,257.6,137.9,257.6z M137.5,265.7v-6.5h0.8v6.5H137.5z"/>
			<path class="st5" d="M140.4,265.7v-9.6h0.8v9.6H140.4z"/>
			<path class="st5" d="M145.2,266.9c-0.3,0.6-0.5,1.1-0.9,1.4s-0.7,0.5-1.2,0.5c-0.2,0-0.4,0-0.6-0.1v-0.8c0.1,0,0.2,0.1,0.3,0.1
				c0.1,0,0.2,0,0.3,0c0.3,0,0.5-0.1,0.7-0.3c0.2-0.2,0.4-0.4,0.5-0.8l0.6-1.3l-2.5-6.5h0.9l1.9,5.1c0,0.1,0,0.1,0.1,0.2
				c0,0.1,0,0.2,0.1,0.3h0c0-0.1,0-0.1,0.1-0.2c0-0.1,0-0.2,0.1-0.2l2-5.2h0.9L145.2,266.9z"/>
			<path class="st5" d="M153.9,262.2v3.5h-0.8v-9.1h2.3c0.5,0,0.9,0.1,1.3,0.2s0.7,0.3,0.9,0.5c0.3,0.2,0.4,0.5,0.6,0.8
				c0.1,0.3,0.2,0.7,0.2,1.1c0,0.4-0.1,0.8-0.2,1.2c-0.1,0.4-0.4,0.7-0.6,0.9c-0.3,0.3-0.6,0.5-1,0.6c-0.4,0.1-0.8,0.2-1.4,0.2
				H153.9z M153.9,257.4v4h1.2c0.8,0,1.4-0.2,1.8-0.5s0.6-0.9,0.6-1.5c0-1.3-0.7-1.9-2.2-1.9H153.9z"/>
			<path class="st5" d="M163.4,260.1c-0.2-0.1-0.4-0.2-0.7-0.2c-0.2,0-0.4,0-0.6,0.1c-0.2,0.1-0.3,0.2-0.4,0.3s-0.2,0.3-0.3,0.5
				c-0.1,0.2-0.2,0.4-0.2,0.6c-0.1,0.2-0.1,0.4-0.1,0.6c0,0.2,0,0.4,0,0.6v3.2h-0.8v-6.5h0.8v1.4h0c0.1-0.2,0.2-0.5,0.3-0.6
				c0.1-0.2,0.2-0.3,0.4-0.5s0.3-0.2,0.5-0.3c0.2-0.1,0.4-0.1,0.6-0.1c0.1,0,0.2,0,0.4,0c0.1,0,0.2,0,0.3,0.1V260.1z"/>
			<path class="st5" d="M168.3,265.7v-1.2h0c-0.2,0.4-0.5,0.7-0.9,1s-0.8,0.3-1.2,0.3c-0.3,0-0.6,0-0.8-0.1
				c-0.3-0.1-0.5-0.2-0.6-0.4s-0.3-0.4-0.4-0.6c-0.1-0.2-0.1-0.5-0.1-0.8c0-0.6,0.2-1.1,0.5-1.4c0.4-0.3,0.9-0.6,1.7-0.7l2-0.3
				c0-1.2-0.5-1.9-1.5-1.9c-0.8,0-1.5,0.3-2.1,0.8v-0.9c0.1-0.1,0.3-0.2,0.5-0.3c0.2-0.1,0.4-0.1,0.5-0.2c0.2-0.1,0.4-0.1,0.6-0.1
				c0.2,0,0.4,0,0.6,0c0.7,0,1.3,0.2,1.6,0.6c0.4,0.4,0.6,1,0.6,1.8v4.2H168.3z M166.6,262.6c-0.3,0-0.5,0.1-0.7,0.2
				c-0.2,0.1-0.4,0.1-0.5,0.3c-0.1,0.1-0.2,0.2-0.3,0.4c-0.1,0.2-0.1,0.4-0.1,0.6c0,0.2,0,0.3,0.1,0.5s0.2,0.3,0.3,0.4
				c0.1,0.1,0.3,0.2,0.4,0.3c0.2,0.1,0.4,0.1,0.6,0.1c0.3,0,0.6-0.1,0.8-0.2s0.4-0.3,0.6-0.5s0.3-0.4,0.4-0.7
				c0.1-0.3,0.1-0.6,0.1-0.9v-0.6L166.6,262.6z"/>
			<path class="st5" d="M175.4,265.4c-0.5,0.3-1.1,0.4-1.8,0.5c-0.5,0-0.9-0.1-1.3-0.2c-0.4-0.2-0.7-0.4-1-0.7
				c-0.3-0.3-0.5-0.6-0.6-1c-0.1-0.4-0.2-0.8-0.2-1.3c0-0.5,0.1-0.9,0.2-1.4c0.1-0.4,0.4-0.8,0.6-1.1c0.3-0.3,0.6-0.6,1-0.8
				c0.4-0.2,0.9-0.3,1.4-0.3c0.5,0,1,0.1,1.5,0.3v0.9c-0.5-0.3-1-0.5-1.5-0.5c-0.4,0-0.7,0.1-1,0.2c-0.3,0.1-0.6,0.3-0.8,0.6
				c-0.2,0.3-0.4,0.5-0.5,0.9c-0.1,0.3-0.2,0.7-0.2,1.1c0,0.3,0,0.7,0.1,1c0.1,0.3,0.2,0.6,0.4,0.8c0.2,0.2,0.4,0.4,0.7,0.6
				c0.3,0.1,0.6,0.2,1,0.2c0.6,0,1.2-0.2,1.7-0.5V265.4z"/>
			<path class="st5" d="M179.7,265.7c-0.3,0.1-0.6,0.2-0.9,0.2c-1,0-1.6-0.6-1.6-1.8V260h-1.1v-0.7h1.1v-1.6l0.8-0.3v1.9h1.7v0.7
				h-1.7v4c0,0.4,0.1,0.8,0.2,1c0.1,0.2,0.4,0.3,0.7,0.3c0.3,0,0.5-0.1,0.7-0.2V265.7z"/>
			<path class="st5" d="M181.5,257.6c-0.2,0-0.3-0.1-0.4-0.2c-0.1-0.1-0.2-0.2-0.2-0.4c0-0.2,0.1-0.3,0.2-0.4
				c0.1-0.1,0.2-0.2,0.4-0.2c0.1,0,0.2,0,0.2,0c0.1,0,0.1,0.1,0.2,0.1c0.1,0.1,0.1,0.1,0.1,0.2c0,0.1,0,0.1,0,0.2c0,0.1,0,0.2,0,0.2
				c0,0.1-0.1,0.1-0.1,0.2c-0.1,0.1-0.1,0.1-0.2,0.1C181.6,257.6,181.6,257.6,181.5,257.6z M181.1,265.7v-6.5h0.8v6.5H181.1z"/>
			<path class="st5" d="M188.3,265.4c-0.5,0.3-1.1,0.4-1.8,0.5c-0.5,0-0.9-0.1-1.3-0.2c-0.4-0.2-0.7-0.4-1-0.7
				c-0.3-0.3-0.5-0.6-0.6-1c-0.1-0.4-0.2-0.8-0.2-1.3c0-0.5,0.1-0.9,0.2-1.4c0.1-0.4,0.4-0.8,0.6-1.1c0.3-0.3,0.6-0.6,1-0.8
				c0.4-0.2,0.9-0.3,1.4-0.3c0.5,0,1,0.1,1.5,0.3v0.9c-0.5-0.3-1-0.5-1.5-0.5c-0.4,0-0.7,0.1-1,0.2c-0.3,0.1-0.6,0.3-0.8,0.6
				c-0.2,0.3-0.4,0.5-0.5,0.9c-0.1,0.3-0.2,0.7-0.2,1.1c0,0.3,0,0.7,0.1,1c0.1,0.3,0.2,0.6,0.4,0.8c0.2,0.2,0.4,0.4,0.7,0.6
				c0.3,0.1,0.6,0.2,1,0.2c0.6,0,1.2-0.2,1.7-0.5V265.4z"/>
			<path class="st5" d="M190.3,262.6c0,0.4,0.1,0.8,0.2,1.1s0.2,0.6,0.4,0.8c0.2,0.2,0.4,0.4,0.7,0.5c0.3,0.1,0.6,0.2,0.9,0.2
				c0.7,0,1.4-0.3,2.1-0.8v0.8c-0.6,0.4-1.4,0.7-2.3,0.7c-0.4,0-0.8-0.1-1.2-0.2s-0.7-0.4-0.9-0.7c-0.2-0.3-0.4-0.6-0.6-1.1
				c-0.1-0.4-0.2-0.9-0.2-1.4c0-0.5,0.1-0.9,0.2-1.4c0.1-0.4,0.4-0.8,0.6-1.1c0.3-0.3,0.6-0.5,0.9-0.7c0.4-0.2,0.8-0.3,1.2-0.3
				c0.4,0,0.8,0.1,1.1,0.2c0.3,0.1,0.6,0.4,0.8,0.6c0.2,0.3,0.4,0.6,0.5,1c0.1,0.4,0.2,0.8,0.2,1.3v0.4H190.3z M194.1,261.9
				c0-0.7-0.2-1.2-0.5-1.6c-0.3-0.4-0.7-0.6-1.3-0.6c-0.3,0-0.5,0-0.8,0.1c-0.2,0.1-0.4,0.2-0.6,0.4c-0.2,0.2-0.3,0.4-0.4,0.7
				s-0.2,0.6-0.2,0.9H194.1z"/>
			<path class="st5" d="M200,262.4v-0.7h3.5v0.7H200z"/>
			<path class="st5" d="M217,265.7v-6.3c0-0.3,0-0.8,0.1-1.6h0c-0.1,0.2-0.1,0.4-0.2,0.5c0,0.1-0.1,0.3-0.1,0.3l-3.2,7h-0.4l-3.2-7
				c-0.1-0.2-0.2-0.5-0.3-0.9h0c0,0.2,0,0.4,0,0.7c0,0.2,0,0.5,0,0.8v6.4H209v-9.1h1l3.1,6.8c0.1,0.1,0.1,0.3,0.2,0.4
				c0.1,0.2,0.1,0.3,0.2,0.5h0c0.1-0.2,0.1-0.3,0.2-0.5c0-0.1,0.1-0.3,0.2-0.5l3.1-6.8h0.9v9.1H217z"/>
			<path class="st5" d="M223.8,265.7v-1.2h0c-0.2,0.4-0.5,0.7-0.9,1s-0.8,0.3-1.2,0.3c-0.3,0-0.6,0-0.8-0.1
				c-0.3-0.1-0.5-0.2-0.6-0.4s-0.3-0.4-0.4-0.6c-0.1-0.2-0.1-0.5-0.1-0.8c0-0.6,0.2-1.1,0.5-1.4c0.4-0.3,0.9-0.6,1.7-0.7l2-0.3
				c0-1.2-0.5-1.9-1.5-1.9c-0.8,0-1.5,0.3-2.1,0.8v-0.9c0.1-0.1,0.3-0.2,0.5-0.3c0.2-0.1,0.4-0.1,0.5-0.2c0.2-0.1,0.4-0.1,0.6-0.1
				c0.2,0,0.4,0,0.6,0c0.7,0,1.3,0.2,1.6,0.6c0.4,0.4,0.6,1,0.6,1.8v4.2H223.8z M222.2,262.6c-0.3,0-0.5,0.1-0.7,0.2
				c-0.2,0.1-0.4,0.1-0.5,0.3c-0.1,0.1-0.2,0.2-0.3,0.4c-0.1,0.2-0.1,0.4-0.1,0.6c0,0.2,0,0.3,0.1,0.5s0.2,0.3,0.3,0.4
				c0.1,0.1,0.3,0.2,0.4,0.3c0.2,0.1,0.4,0.1,0.6,0.1c0.3,0,0.6-0.1,0.8-0.2s0.4-0.3,0.6-0.5s0.3-0.4,0.4-0.7
				c0.1-0.3,0.1-0.6,0.1-0.9v-0.6L222.2,262.6z"/>
			<path class="st5" d="M229.8,260.1c-0.2-0.1-0.4-0.2-0.7-0.2c-0.2,0-0.4,0-0.6,0.1c-0.2,0.1-0.3,0.2-0.4,0.3s-0.2,0.3-0.3,0.5
				c-0.1,0.2-0.2,0.4-0.2,0.6c-0.1,0.2-0.1,0.4-0.1,0.6c0,0.2,0,0.4,0,0.6v3.2h-0.8v-6.5h0.8v1.4h0c0.1-0.2,0.2-0.5,0.3-0.6
				c0.1-0.2,0.2-0.3,0.4-0.5s0.3-0.2,0.5-0.3c0.2-0.1,0.4-0.1,0.6-0.1c0.1,0,0.2,0,0.4,0c0.1,0,0.2,0,0.3,0.1V260.1z"/>
			<path class="st5" d="M234.5,264.6c0.6,0.4,1.2,0.5,1.8,0.5c0.3,0,0.7-0.1,0.9-0.2s0.5-0.2,0.7-0.4c0.2-0.2,0.3-0.4,0.5-0.7
				c0.1-0.3,0.2-0.6,0.2-0.9c0-0.7-0.2-1.2-0.6-1.5c-0.4-0.4-1-0.5-1.8-0.5c-0.3,0-0.8,0-1.4,0.1l0.3-4.5h4v0.7h-3.3l-0.2,3
				c0.4,0,0.7,0,0.9,0c0.5,0,0.9,0.1,1.3,0.2c0.4,0.1,0.7,0.3,0.9,0.5c0.3,0.2,0.4,0.5,0.6,0.8c0.1,0.3,0.2,0.7,0.2,1.1
				c0,0.4-0.1,0.8-0.2,1.2s-0.3,0.7-0.6,0.9s-0.6,0.5-1,0.6c-0.4,0.1-0.8,0.2-1.3,0.2c-0.7,0-1.3-0.1-1.8-0.4V264.6z"/>
			<path class="st5" d="M241.3,267.4h-0.6l0.8-3.1h0.8L241.3,267.4z"/>
			<path class="st5" d="M251.8,259c0-0.3,0-0.5-0.1-0.8c-0.1-0.2-0.2-0.4-0.4-0.6c-0.2-0.2-0.3-0.3-0.6-0.3
				c-0.2-0.1-0.5-0.1-0.7-0.1c-0.4,0-0.8,0.1-1.2,0.3c-0.4,0.2-0.7,0.4-1.1,0.8v-0.9c0.3-0.3,0.7-0.5,1.1-0.6s0.8-0.2,1.3-0.2
				c0.1,0,0.1,0,0.2,0c0.1,0,0.1,0,0.2,0c0.3,0,0.6,0.1,0.9,0.2s0.5,0.3,0.7,0.5c0.2,0.2,0.3,0.4,0.4,0.7c0.1,0.3,0.1,0.6,0.1,0.9
				c0,0.4-0.1,0.7-0.2,1s-0.2,0.6-0.4,0.9c-0.2,0.3-0.4,0.5-0.7,0.7s-0.6,0.5-0.9,0.7c-0.4,0.3-0.7,0.5-0.9,0.7
				c-0.3,0.2-0.5,0.4-0.6,0.6c-0.2,0.2-0.3,0.4-0.4,0.5s-0.1,0.4-0.2,0.6c0,0.1,0,0.1,0,0.2c0,0.1,0,0.1,0,0.2h4.5v0.7h-5.4v-0.4
				c0-0.4,0-0.8,0.1-1.1c0.1-0.3,0.2-0.6,0.4-0.8c0.2-0.3,0.5-0.5,0.8-0.8s0.7-0.5,1.1-0.9c0.3-0.2,0.6-0.4,0.8-0.6
				c0.2-0.2,0.4-0.4,0.6-0.6c0.2-0.2,0.3-0.4,0.4-0.7C251.8,259.5,251.8,259.3,251.8,259z"/>
			<path class="st5" d="M257,265.9c-0.4,0-0.8-0.1-1.2-0.3s-0.6-0.5-0.9-0.9c-0.2-0.4-0.4-0.8-0.5-1.4c-0.1-0.6-0.2-1.2-0.2-1.9
				c0-1.6,0.3-2.8,0.8-3.7s1.2-1.2,2.2-1.2c1.8,0,2.7,1.6,2.7,4.7c0,0.8-0.1,1.5-0.2,2c-0.1,0.6-0.3,1.1-0.6,1.5s-0.6,0.7-0.9,0.9
				C257.9,265.8,257.4,265.9,257,265.9z M257.1,257.2c-0.7,0-1.2,0.3-1.5,1s-0.5,1.7-0.5,3.1c0,1.3,0.2,2.2,0.5,2.9s0.8,1,1.5,1
				c0.3,0,0.6-0.1,0.9-0.3c0.3-0.2,0.5-0.4,0.6-0.8c0.2-0.3,0.3-0.7,0.4-1.2c0.1-0.5,0.1-1.1,0.1-1.7
				C259.1,258.5,258.4,257.2,257.1,257.2z"/>
			<path class="st5" d="M263.2,265.7v-8.1c-0.1,0.1-0.3,0.2-0.5,0.4c-0.2,0.1-0.4,0.2-0.6,0.3s-0.4,0.2-0.6,0.3
				c-0.2,0.1-0.4,0.2-0.5,0.2v-0.7c0.5-0.2,1-0.4,1.4-0.7s0.9-0.6,1.3-1h0.2v9.3H263.2z"/>
			<path class="st5" d="M271.7,262.9c0,0.4-0.1,0.9-0.2,1.2c-0.1,0.4-0.3,0.7-0.6,1c-0.2,0.3-0.5,0.5-0.9,0.6
				c-0.3,0.2-0.7,0.2-1.1,0.2c-0.4,0-0.8-0.1-1.2-0.3c-0.3-0.2-0.6-0.5-0.9-0.8c-0.2-0.4-0.4-0.8-0.5-1.3s-0.2-1.1-0.2-1.8
				c0-0.8,0.1-1.5,0.3-2.2s0.4-1.2,0.7-1.7c0.3-0.5,0.7-0.8,1.1-1.1c0.4-0.2,1-0.4,1.5-0.4c0.6,0,1,0.1,1.4,0.2v0.8
				c-0.4-0.2-0.9-0.3-1.4-0.3c-0.4,0-0.8,0.1-1.2,0.3s-0.6,0.5-0.9,0.9s-0.4,0.8-0.6,1.3c-0.1,0.5-0.2,1.1-0.2,1.7h0
				c0.4-0.9,1.2-1.3,2.2-1.3c0.4,0,0.7,0.1,1,0.2c0.3,0.1,0.6,0.3,0.8,0.6c0.2,0.2,0.4,0.5,0.5,0.9
				C271.6,262.1,271.7,262.4,271.7,262.9z M270.9,263c0-0.3,0-0.6-0.1-0.9c-0.1-0.3-0.2-0.5-0.4-0.7c-0.2-0.2-0.4-0.3-0.6-0.4
				c-0.2-0.1-0.5-0.2-0.8-0.2c-0.3,0-0.5,0.1-0.8,0.2c-0.2,0.1-0.4,0.3-0.6,0.4c-0.2,0.2-0.3,0.4-0.4,0.6c-0.1,0.2-0.1,0.5-0.1,0.8
				c0,0.3,0,0.6,0.1,0.9c0.1,0.3,0.2,0.6,0.4,0.8c0.2,0.2,0.4,0.4,0.6,0.5c0.2,0.1,0.5,0.2,0.8,0.2c0.3,0,0.5-0.1,0.8-0.2
				c0.2-0.1,0.4-0.3,0.6-0.5c0.2-0.2,0.3-0.4,0.4-0.7C270.8,263.6,270.9,263.3,270.9,263z"/>
		</g>
		<circle class="st6" cx="56.3" cy="248.1" r="20.7"/>
		<path class="st2" d="M60.5,245.7l-4.2,7.9l-4.1-7.9c-2.7,0.5-6.2,1.8-6.2,4.1v8.6c0,0,3.4,3.5,10.3,3.5c7,0,10.4-3.5,10.4-3.5
			v-8.6C66.7,247.5,63.1,246.2,60.5,245.7z M56.3,245.5c3.1,0,5.6-2.5,5.6-5.6s-2.5-5.6-5.6-5.6s-5.6,2.5-5.6,5.6
			C50.7,242.9,53.2,245.5,56.3,245.5C56.3,245.5,56.3,245.5,56.3,245.5L56.3,245.5z"/>
		<g class="st4">
			<path class="st7" d="M92.3,365.2H90l-0.6-2h-3.2l-0.6,2h-2.2l3.3-9.1H89L92.3,365.2z M88.9,361.6l-1-3.1
				c-0.1-0.2-0.1-0.5-0.2-0.8h-0.1c0,0.3-0.1,0.5-0.2,0.8l-1,3.1H88.9z"/>
			<path class="st7" d="M97.7,355.9v9.3h-2v-7c-0.1,0.1-0.2,0.2-0.4,0.3c-0.2,0.1-0.3,0.2-0.5,0.2c-0.2,0.1-0.3,0.1-0.5,0.2
				s-0.4,0.1-0.5,0.1v-1.7c0.5-0.2,1-0.3,1.5-0.6c0.5-0.2,0.9-0.5,1.3-0.8H97.7z"/>
			<path class="st7" d="M107.4,364.9c-0.7,0.3-1.5,0.5-2.6,0.5c-1.4,0-2.5-0.4-3.3-1.2c-0.8-0.8-1.2-1.9-1.2-3.3
				c0-1.5,0.4-2.6,1.3-3.5c0.9-0.9,2.1-1.4,3.5-1.4c0.9,0,1.6,0.1,2.2,0.3v2c-0.6-0.4-1.3-0.5-2.1-0.5c-0.9,0-1.5,0.3-2.1,0.8
				c-0.5,0.5-0.8,1.3-0.8,2.2c0,0.9,0.2,1.6,0.7,2.1s1.2,0.8,2,0.8c0.8,0,1.5-0.2,2.2-0.6V364.9z"/>
		</g>
		<g class="st4">
			<path class="st5" d="M110,368.3v-13h0.8v13H110z"/>
		</g>
		<g class="st4">
			<path class="st7" d="M123,364.9c-0.7,0.3-1.5,0.5-2.6,0.5c-1.4,0-2.5-0.4-3.3-1.2c-0.8-0.8-1.2-1.9-1.2-3.3
				c0-1.5,0.4-2.6,1.3-3.5c0.9-0.9,2.1-1.4,3.5-1.4c0.9,0,1.6,0.1,2.2,0.3v2c-0.6-0.4-1.3-0.5-2.1-0.5c-0.9,0-1.5,0.3-2.1,0.8
				c-0.5,0.5-0.8,1.3-0.8,2.2c0,0.9,0.2,1.6,0.7,2.1s1.2,0.8,2,0.8c0.8,0,1.5-0.2,2.2-0.6V364.9z"/>
			<path class="st7" d="M130.6,365.2h-2v-3.7c0-1-0.3-1.4-1-1.4c-0.4,0-0.6,0.1-0.9,0.4s-0.3,0.6-0.3,1v3.7h-2v-9.6h2v4.1h0
				c0.5-0.7,1.2-1.1,2-1.1c1.5,0,2.2,0.9,2.2,2.7V365.2z"/>
			<path class="st7" d="M135.3,365.4c-1.1,0-1.9-0.3-2.6-0.9c-0.6-0.6-0.9-1.4-0.9-2.5c0-1.1,0.3-1.9,1-2.5s1.5-0.9,2.6-0.9
				c1.1,0,1.9,0.3,2.5,0.9s0.9,1.4,0.9,2.4c0,1.1-0.3,1.9-0.9,2.6C137.3,365,136.4,365.4,135.3,365.4z M135.4,360.1
				c-0.5,0-0.8,0.2-1.1,0.5s-0.4,0.8-0.4,1.4c0,1.2,0.5,1.9,1.5,1.9c1,0,1.4-0.6,1.4-1.9C136.8,360.7,136.3,360.1,135.4,360.1z"/>
			<path class="st7" d="M142.2,365.2h-2v-9.6h2V365.2z"/>
			<path class="st7" d="M149.7,362.5h-4.2c0.1,0.9,0.7,1.4,1.8,1.4c0.7,0,1.3-0.2,1.9-0.5v1.4c-0.6,0.3-1.4,0.5-2.3,0.5
				c-1,0-1.9-0.3-2.4-0.9s-0.9-1.4-0.9-2.4c0-1.1,0.3-1.9,0.9-2.6s1.4-0.9,2.3-0.9c0.9,0,1.7,0.3,2.2,0.8c0.5,0.6,0.8,1.3,0.8,2.3
				V362.5z M147.8,361.3c0-0.9-0.4-1.4-1.1-1.4c-0.3,0-0.6,0.1-0.8,0.4c-0.2,0.3-0.4,0.6-0.4,1H147.8z"/>
			<path class="st7" d="M150.5,365v-1.6c0.3,0.2,0.7,0.3,1,0.4c0.3,0.1,0.6,0.1,0.9,0.1c0.4,0,0.6,0,0.8-0.1
				c0.2-0.1,0.3-0.2,0.3-0.4c0-0.1,0-0.2-0.1-0.3c-0.1-0.1-0.2-0.2-0.4-0.2c-0.1-0.1-0.3-0.1-0.5-0.2s-0.3-0.1-0.5-0.2
				c-0.3-0.1-0.5-0.2-0.7-0.3c-0.2-0.1-0.4-0.2-0.5-0.4c-0.1-0.1-0.2-0.3-0.3-0.5c-0.1-0.2-0.1-0.4-0.1-0.7c0-0.4,0.1-0.7,0.2-0.9
				c0.2-0.3,0.4-0.5,0.6-0.6c0.3-0.2,0.6-0.3,0.9-0.4c0.3-0.1,0.7-0.1,1.1-0.1c0.3,0,0.6,0,0.9,0.1c0.3,0,0.6,0.1,0.9,0.2v1.5
				c-0.3-0.1-0.5-0.3-0.8-0.3c-0.3-0.1-0.6-0.1-0.9-0.1c-0.1,0-0.3,0-0.4,0c-0.1,0-0.2,0.1-0.3,0.1c-0.1,0-0.2,0.1-0.2,0.2
				c-0.1,0.1-0.1,0.1-0.1,0.2c0,0.1,0,0.2,0.1,0.3s0.2,0.2,0.3,0.2s0.3,0.1,0.4,0.2c0.2,0,0.3,0.1,0.4,0.1c0.3,0.1,0.5,0.2,0.7,0.3
				s0.4,0.2,0.6,0.4c0.2,0.1,0.3,0.3,0.4,0.5c0.1,0.2,0.1,0.4,0.1,0.7c0,0.4-0.1,0.7-0.3,1c-0.2,0.3-0.4,0.5-0.7,0.7
				c-0.3,0.2-0.6,0.3-1,0.4c-0.4,0.1-0.7,0.1-1.1,0.1C151.7,365.4,151.1,365.2,150.5,365z"/>
		</g>
		<g class="st4">
			<path class="st7" d="M159.5,365.1c-0.3,0.2-0.7,0.2-1.3,0.2c-1.4,0-2.1-0.7-2.1-2.2v-3H155v-1.5h1.1v-1.4l2-0.6v2h1.5v1.5H158
				v2.6c0,0.7,0.3,1,0.8,1c0.2,0,0.4-0.1,0.7-0.2V365.1z"/>
		</g>
		<g class="st4">
			<path class="st7" d="M166,362.5h-4.2c0.1,0.9,0.7,1.4,1.8,1.4c0.7,0,1.3-0.2,1.9-0.5v1.4c-0.6,0.3-1.4,0.5-2.3,0.5
				c-1,0-1.9-0.3-2.4-0.9s-0.9-1.4-0.9-2.4c0-1.1,0.3-1.9,0.9-2.6s1.4-0.9,2.3-0.9c0.9,0,1.7,0.3,2.2,0.8c0.5,0.6,0.8,1.3,0.8,2.3
				V362.5z M164.2,361.3c0-0.9-0.4-1.4-1.1-1.4c-0.3,0-0.6,0.1-0.8,0.4c-0.2,0.3-0.4,0.6-0.4,1H164.2z"/>
		</g>
		<g class="st4">
			<path class="st7" d="M171.3,360.5c-0.2-0.1-0.5-0.2-0.8-0.2c-0.4,0-0.8,0.2-1,0.5c-0.2,0.3-0.4,0.8-0.4,1.3v3.1h-2v-6.5h2v1.2h0
				c0.3-0.9,0.9-1.3,1.7-1.3c0.2,0,0.4,0,0.5,0.1V360.5z"/>
		</g>
		<g class="st4">
			<path class="st7" d="M174.9,365.4c-1.1,0-1.9-0.3-2.6-0.9c-0.6-0.6-0.9-1.4-0.9-2.5c0-1.1,0.3-1.9,1-2.5s1.5-0.9,2.6-0.9
				c1.1,0,1.9,0.3,2.5,0.9s0.9,1.4,0.9,2.4c0,1.1-0.3,1.9-0.9,2.6C176.9,365,176,365.4,174.9,365.4z M174.9,360.1
				c-0.5,0-0.8,0.2-1.1,0.5s-0.4,0.8-0.4,1.4c0,1.2,0.5,1.9,1.5,1.9c1,0,1.4-0.6,1.4-1.9C176.4,360.7,175.9,360.1,174.9,360.1z"/>
			<path class="st7" d="M181.7,365.2h-2v-9.6h2V365.2z"/>
		</g>
		<g class="st4">
			<path class="st5" d="M186.8,368.3v-13h0.8v13H186.8z"/>
		</g>
		<g class="st4">
			<path class="st8" d="M199.6,364.8c-0.7,0.4-1.5,0.5-2.5,0.5c-1.3,0-2.3-0.4-3.1-1.2c-0.8-0.8-1.2-1.9-1.2-3.3
				c0-1.5,0.4-2.6,1.3-3.5s2-1.3,3.3-1.3c0.9,0,1.6,0.1,2.1,0.4v1.1c-0.7-0.4-1.4-0.5-2.2-0.5c-1,0-1.9,0.3-2.5,1
				c-0.6,0.7-1,1.6-1,2.8c0,1.1,0.3,2,0.9,2.7c0.6,0.7,1.4,1,2.4,1c0.9,0,1.7-0.2,2.4-0.6V364.8z"/>
			<path class="st8" d="M206.8,365.2h-1v-3.7c0-1.4-0.5-2-1.5-2c-0.5,0-0.9,0.2-1.3,0.6s-0.5,0.9-0.5,1.5v3.7h-1v-9.6h1v4.2h0
				c0.5-0.8,1.2-1.2,2.1-1.2c1.5,0,2.2,0.9,2.2,2.6V365.2z"/>
			<path class="st8" d="M213.9,362.2h-4.6c0,0.7,0.2,1.3,0.6,1.7c0.4,0.4,0.9,0.6,1.5,0.6c0.7,0,1.4-0.2,2-0.7v1
				c-0.6,0.4-1.3,0.6-2.3,0.6c-0.9,0-1.6-0.3-2.2-0.9c-0.5-0.6-0.8-1.4-0.8-2.5c0-1,0.3-1.8,0.9-2.5c0.6-0.6,1.3-1,2.1-1
				s1.5,0.3,2,0.8s0.7,1.3,0.7,2.3V362.2z M212.9,361.3c0-0.6-0.1-1.1-0.4-1.4c-0.3-0.3-0.7-0.5-1.2-0.5c-0.5,0-0.9,0.2-1.3,0.5
				c-0.3,0.4-0.6,0.8-0.6,1.4H212.9z"/>
			<path class="st8" d="M215.1,365v-1.1c0.6,0.4,1.2,0.6,1.9,0.6c0.9,0,1.4-0.3,1.4-0.9c0-0.2,0-0.3-0.1-0.4
				c-0.1-0.1-0.2-0.2-0.3-0.3c-0.1-0.1-0.3-0.2-0.5-0.3c-0.2-0.1-0.4-0.2-0.6-0.2c-0.3-0.1-0.5-0.2-0.8-0.3s-0.4-0.2-0.5-0.4
				c-0.1-0.1-0.3-0.3-0.3-0.5c-0.1-0.2-0.1-0.4-0.1-0.7c0-0.3,0.1-0.6,0.2-0.8c0.1-0.2,0.3-0.4,0.6-0.6c0.2-0.2,0.5-0.3,0.8-0.4
				c0.3-0.1,0.6-0.1,0.9-0.1c0.6,0,1.1,0.1,1.5,0.3v1.1c-0.5-0.3-1-0.5-1.7-0.5c-0.2,0-0.4,0-0.5,0.1c-0.2,0-0.3,0.1-0.4,0.2
				s-0.2,0.2-0.3,0.3c-0.1,0.1-0.1,0.2-0.1,0.4c0,0.2,0,0.3,0.1,0.4c0.1,0.1,0.2,0.2,0.3,0.3c0.1,0.1,0.3,0.2,0.4,0.2
				c0.2,0.1,0.4,0.1,0.6,0.2c0.3,0.1,0.5,0.2,0.8,0.3s0.4,0.2,0.6,0.4c0.2,0.1,0.3,0.3,0.4,0.5c0.1,0.2,0.1,0.4,0.1,0.7
				c0,0.3-0.1,0.6-0.2,0.8s-0.3,0.4-0.6,0.6c-0.2,0.2-0.5,0.3-0.8,0.3c-0.3,0.1-0.6,0.1-1,0.1C216.2,365.4,215.6,365.2,215.1,365z"
				/>
			<path class="st8" d="M224,365.1c-0.2,0.1-0.6,0.2-1,0.2c-1.1,0-1.7-0.6-1.7-1.9v-3.8h-1.1v-0.9h1.1v-1.6l1-0.3v1.9h1.6v0.9h-1.6
				v3.7c0,0.4,0.1,0.7,0.2,0.9c0.1,0.2,0.4,0.3,0.7,0.3c0.3,0,0.5-0.1,0.7-0.2V365.1z"/>
			<path class="st8" d="M235.4,365.2h-1.3l-2.1-3.5c-0.1-0.1-0.1-0.3-0.2-0.5h0c0,0.1-0.1,0.2-0.2,0.5l-2.2,3.5h-1.3l3-4.6l-2.8-4.5
				h1.3l1.9,3.2c0.1,0.2,0.2,0.4,0.3,0.6h0c0.1-0.3,0.3-0.5,0.4-0.7l1.9-3.2h1.2l-2.9,4.5L235.4,365.2z"/>
			<path class="st8" d="M240,362h-3.5v-0.8h3.5V362z"/>
			<path class="st8" d="M248.5,365.2h-1.3l-1.5-2.6c-0.1-0.2-0.3-0.4-0.4-0.6c-0.1-0.2-0.3-0.3-0.4-0.4s-0.3-0.2-0.4-0.2
				c-0.2,0-0.3-0.1-0.5-0.1h-0.9v3.9H242v-9.1h2.7c0.4,0,0.8,0,1.1,0.1c0.3,0.1,0.6,0.2,0.9,0.5c0.2,0.2,0.4,0.5,0.6,0.8
				s0.2,0.7,0.2,1.1c0,0.3,0,0.6-0.1,0.9c-0.1,0.3-0.2,0.5-0.4,0.7c-0.2,0.2-0.4,0.4-0.6,0.5c-0.2,0.1-0.5,0.3-0.8,0.3v0
				c0.2,0.1,0.3,0.1,0.4,0.2s0.2,0.2,0.3,0.3c0.1,0.1,0.2,0.3,0.3,0.4s0.2,0.3,0.3,0.5L248.5,365.2z M243.1,357.1v3.3h1.4
				c0.3,0,0.5,0,0.7-0.1c0.2-0.1,0.4-0.2,0.6-0.3s0.3-0.3,0.4-0.6c0.1-0.2,0.1-0.5,0.1-0.7c0-0.5-0.2-0.9-0.5-1.1
				c-0.3-0.3-0.8-0.4-1.4-0.4H243.1z"/>
			<path class="st8" d="M254.3,365.2h-1v-1h0c-0.5,0.8-1.1,1.2-2,1.2c-0.6,0-1.2-0.2-1.5-0.5c-0.4-0.3-0.5-0.8-0.5-1.4
				c0-1.2,0.7-1.9,2.1-2.1l1.9-0.3c0-1.1-0.4-1.7-1.3-1.7c-0.8,0-1.5,0.3-2.1,0.8v-1.1c0.6-0.4,1.4-0.6,2.2-0.6
				c1.5,0,2.3,0.8,2.3,2.4V365.2z M253.3,361.9l-1.6,0.2c-0.5,0.1-0.8,0.2-1.1,0.4c-0.2,0.2-0.4,0.5-0.4,0.9c0,0.3,0.1,0.6,0.3,0.8
				s0.5,0.3,0.9,0.3c0.5,0,0.9-0.2,1.3-0.5c0.3-0.4,0.5-0.8,0.5-1.4V361.9z"/>
			<path class="st8" d="M261.4,358.7l-3,7.5c-0.5,1.3-1.3,2-2.2,2c-0.3,0-0.5,0-0.7-0.1v-0.9c0.2,0.1,0.4,0.1,0.6,0.1
				c0.5,0,0.9-0.3,1.2-0.9l0.5-1.2l-2.5-6.5h1.2l1.8,5c0,0.1,0.1,0.2,0.1,0.5h0c0-0.1,0.1-0.3,0.1-0.5l1.8-5H261.4z"/>
			<path class="st8" d="M270,358.5c0-0.3,0-0.5-0.1-0.7c-0.1-0.2-0.2-0.4-0.4-0.5s-0.3-0.2-0.5-0.3c-0.2-0.1-0.4-0.1-0.7-0.1
				c-0.2,0-0.4,0-0.6,0.1c-0.2,0.1-0.4,0.1-0.6,0.2c-0.2,0.1-0.4,0.2-0.5,0.3c-0.2,0.1-0.3,0.3-0.5,0.5v-1.1c0.3-0.3,0.6-0.5,1-0.7
				c0.4-0.2,0.8-0.2,1.3-0.2c0.4,0,0.7,0.1,1,0.2c0.3,0.1,0.6,0.3,0.8,0.5c0.2,0.2,0.4,0.5,0.5,0.8c0.1,0.3,0.2,0.7,0.2,1
				c0,0.4,0,0.7-0.1,1c-0.1,0.3-0.2,0.6-0.4,0.8c-0.2,0.3-0.4,0.5-0.6,0.7c-0.3,0.2-0.6,0.5-0.9,0.7c-0.4,0.3-0.8,0.6-1.1,0.8
				s-0.5,0.4-0.7,0.6s-0.3,0.4-0.3,0.6s-0.1,0.4-0.1,0.7h4.5v0.9h-5.6v-0.5c0-0.4,0-0.7,0.1-1c0.1-0.3,0.2-0.6,0.4-0.8
				c0.2-0.3,0.4-0.5,0.8-0.8s0.7-0.6,1.2-0.9c0.3-0.2,0.6-0.5,0.8-0.7c0.2-0.2,0.4-0.4,0.5-0.6c0.1-0.2,0.2-0.4,0.3-0.7
				C269.9,359,270,358.7,270,358.5z"/>
			<path class="st8" d="M281.8,358.7l-2.6,6.5h-1l-2.5-6.5h1.1l1.7,4.7c0.1,0.3,0.2,0.6,0.2,0.9h0c0-0.3,0.1-0.6,0.2-0.9l1.7-4.7
				H281.8z"/>
			<path class="st8" d="M283.4,357c-0.2,0-0.3-0.1-0.5-0.2c-0.1-0.1-0.2-0.3-0.2-0.5s0.1-0.4,0.2-0.5c0.1-0.1,0.3-0.2,0.5-0.2
				c0.2,0,0.4,0.1,0.5,0.2c0.1,0.1,0.2,0.3,0.2,0.5c0,0.2-0.1,0.3-0.2,0.5C283.8,357,283.6,357,283.4,357z M283.9,365.2h-1v-6.5h1
				V365.2z"/>
			<path class="st8" d="M291.3,362.2h-4.6c0,0.7,0.2,1.3,0.6,1.7c0.4,0.4,0.9,0.6,1.5,0.6c0.7,0,1.4-0.2,2-0.7v1
				c-0.6,0.4-1.3,0.6-2.3,0.6c-0.9,0-1.6-0.3-2.2-0.9c-0.5-0.6-0.8-1.4-0.8-2.5c0-1,0.3-1.8,0.9-2.5s1.3-1,2.1-1s1.5,0.3,2,0.8
				c0.5,0.5,0.7,1.3,0.7,2.3V362.2z M290.2,361.3c0-0.6-0.1-1.1-0.4-1.4c-0.3-0.3-0.7-0.5-1.2-0.5c-0.5,0-0.9,0.2-1.3,0.5
				c-0.3,0.4-0.6,0.8-0.6,1.4H290.2z"/>
			<path class="st8" d="M301,358.7l-1.9,6.5H298l-1.3-4.7c-0.1-0.2-0.1-0.4-0.1-0.6h0c0,0.2-0.1,0.3-0.1,0.6l-1.5,4.7h-1l-2-6.5h1.1
				l1.3,4.9c0,0.1,0.1,0.3,0.1,0.6h0.1c0-0.2,0.1-0.4,0.1-0.6l1.5-4.9h1l1.3,4.9c0,0.2,0.1,0.4,0.1,0.6h0.1c0-0.2,0-0.4,0.1-0.6
				l1.3-4.9H301z"/>
		</g>
		<g class="st4">
			<path class="st5" d="M305.9,368.3v-13h0.8v13H305.9z"/>
		</g>
		<g class="st4">
			<path class="st8" d="M318.7,364.8c-0.7,0.4-1.5,0.5-2.5,0.5c-1.3,0-2.3-0.4-3.1-1.2c-0.8-0.8-1.2-1.9-1.2-3.3
				c0-1.5,0.4-2.6,1.3-3.5s2-1.3,3.3-1.3c0.9,0,1.6,0.1,2.1,0.4v1.1c-0.7-0.4-1.4-0.5-2.2-0.5c-1,0-1.9,0.3-2.5,1
				c-0.7,0.7-1,1.6-1,2.8c0,1.1,0.3,2,0.9,2.7c0.6,0.7,1.4,1,2.4,1c0.9,0,1.7-0.2,2.4-0.6V364.8z"/>
			<path class="st8" d="M326,357.1h-2.6v8.1h-1.1v-8.1h-2.6v-1h6.3V357.1z"/>
			<path class="st8" d="M330.5,364.8v-1.3c0.1,0.1,0.3,0.2,0.5,0.3s0.4,0.2,0.6,0.3c0.2,0.1,0.4,0.1,0.7,0.2c0.2,0,0.4,0.1,0.6,0.1
				c0.7,0,1.1-0.1,1.5-0.4c0.3-0.2,0.5-0.6,0.5-1.1c0-0.2-0.1-0.5-0.2-0.6c-0.1-0.2-0.3-0.3-0.4-0.5s-0.4-0.3-0.7-0.4
				c-0.3-0.1-0.5-0.3-0.8-0.4c-0.3-0.2-0.6-0.3-0.9-0.5c-0.3-0.2-0.5-0.3-0.7-0.5c-0.2-0.2-0.4-0.4-0.5-0.7s-0.2-0.5-0.2-0.9
				c0-0.4,0.1-0.8,0.3-1.1c0.2-0.3,0.4-0.6,0.7-0.8c0.3-0.2,0.6-0.3,1-0.4c0.4-0.1,0.8-0.1,1.2-0.1c0.9,0,1.6,0.1,2,0.3v1.2
				c-0.5-0.4-1.2-0.6-2.1-0.6c-0.2,0-0.5,0-0.7,0.1c-0.2,0-0.4,0.1-0.6,0.2c-0.2,0.1-0.3,0.3-0.4,0.4s-0.2,0.4-0.2,0.6
				c0,0.2,0,0.4,0.1,0.6c0.1,0.2,0.2,0.3,0.4,0.5c0.2,0.1,0.4,0.3,0.6,0.4c0.2,0.1,0.5,0.3,0.8,0.4c0.3,0.2,0.6,0.3,0.9,0.5
				s0.5,0.4,0.8,0.6c0.2,0.2,0.4,0.5,0.5,0.7c0.1,0.3,0.2,0.6,0.2,0.9c0,0.4-0.1,0.8-0.3,1.1c-0.2,0.3-0.4,0.6-0.7,0.8
				c-0.3,0.2-0.6,0.3-1,0.4c-0.4,0.1-0.8,0.1-1.2,0.1c-0.1,0-0.3,0-0.5,0c-0.2,0-0.4-0.1-0.6-0.1c-0.2,0-0.4-0.1-0.6-0.2
				C330.8,365,330.6,364.9,330.5,364.8z"/>
			<path class="st8" d="M342.1,364.9c-0.5,0.3-1.1,0.5-1.8,0.5c-0.9,0-1.7-0.3-2.2-0.9c-0.6-0.6-0.9-1.4-0.9-2.3
				c0-1.1,0.3-1.9,0.9-2.6c0.6-0.6,1.4-1,2.5-1c0.6,0,1.1,0.1,1.5,0.3v1.1c-0.5-0.3-1-0.5-1.5-0.5c-0.7,0-1.2,0.2-1.6,0.7
				c-0.4,0.5-0.6,1.1-0.6,1.9c0,0.8,0.2,1.4,0.6,1.8c0.4,0.4,0.9,0.7,1.6,0.7c0.6,0,1.1-0.2,1.6-0.6V364.9z"/>
			<path class="st8" d="M348.4,365.2h-1v-1h0c-0.5,0.8-1.1,1.2-2,1.2c-0.6,0-1.2-0.2-1.5-0.5c-0.4-0.3-0.5-0.8-0.5-1.4
				c0-1.2,0.7-1.9,2.1-2.1l1.9-0.3c0-1.1-0.4-1.7-1.3-1.7c-0.8,0-1.5,0.3-2.1,0.8v-1.1c0.6-0.4,1.4-0.6,2.2-0.6
				c1.5,0,2.3,0.8,2.3,2.4V365.2z M347.3,361.9l-1.6,0.2c-0.5,0.1-0.8,0.2-1.1,0.4c-0.2,0.2-0.4,0.5-0.4,0.9c0,0.3,0.1,0.6,0.3,0.8
				c0.2,0.2,0.5,0.3,0.9,0.3c0.5,0,0.9-0.2,1.3-0.5c0.3-0.4,0.5-0.8,0.5-1.4V361.9z"/>
			<path class="st8" d="M355.7,365.2h-1v-3.7c0-1.4-0.5-2.1-1.5-2.1c-0.5,0-1,0.2-1.3,0.6s-0.5,0.9-0.5,1.5v3.7h-1v-6.5h1v1.1h0
				c0.5-0.8,1.2-1.2,2.1-1.2c0.7,0,1.3,0.2,1.6,0.7c0.4,0.5,0.6,1.1,0.6,2V365.2z"/>
		</g>
		<g class="st4">
			<path class="st8" d="M87,380.4c-1,0-1.7-0.3-2.3-0.9c-0.6-0.6-0.9-1.4-0.9-2.4c0-1.1,0.3-1.9,0.9-2.6c0.6-0.6,1.4-0.9,2.4-0.9
				c1,0,1.7,0.3,2.3,0.9c0.5,0.6,0.8,1.4,0.8,2.5c0,1-0.3,1.9-0.9,2.5C88.8,380,88,380.4,87,380.4z M87.1,374.4
				c-0.7,0-1.2,0.2-1.6,0.7s-0.6,1.1-0.6,1.9c0,0.8,0.2,1.4,0.6,1.8c0.4,0.4,0.9,0.7,1.6,0.7c0.7,0,1.2-0.2,1.6-0.7
				c0.4-0.4,0.5-1.1,0.5-1.9c0-0.8-0.2-1.4-0.5-1.9C88.3,374.6,87.7,374.4,87.1,374.4z"/>
		</g>
		<g class="st4">
			<path class="st8" d="M94.9,371.5c-0.2-0.1-0.4-0.2-0.7-0.2c-0.7,0-1.1,0.5-1.1,1.4v1h1.5v0.9h-1.5v5.6h-1v-5.6h-1.1v-0.9h1.1
				v-1.1c0-0.7,0.2-1.2,0.6-1.6s0.9-0.6,1.5-0.6c0.3,0,0.6,0,0.8,0.1V371.5z"/>
			<path class="st8" d="M105.6,379.8c-0.7,0.4-1.5,0.5-2.5,0.5c-1.3,0-2.3-0.4-3.1-1.2c-0.8-0.8-1.2-1.9-1.2-3.3
				c0-1.5,0.4-2.6,1.3-3.5s2-1.3,3.3-1.3c0.9,0,1.6,0.1,2.1,0.4v1.1c-0.7-0.4-1.4-0.5-2.2-0.5c-1,0-1.9,0.3-2.5,1
				c-0.6,0.7-1,1.6-1,2.8c0,1.1,0.3,2,0.9,2.7c0.6,0.7,1.4,1,2.4,1c0.9,0,1.7-0.2,2.4-0.6V379.8z"/>
			<path class="st8" d="M112.7,380.2h-1v-3.7c0-1.4-0.5-2-1.5-2c-0.5,0-0.9,0.2-1.3,0.6s-0.5,0.9-0.5,1.5v3.7h-1v-9.6h1v4.2h0
				c0.5-0.8,1.2-1.2,2.1-1.2c1.5,0,2.2,0.9,2.2,2.6V380.2z"/>
			<path class="st8" d="M119.9,377.2h-4.6c0,0.7,0.2,1.3,0.6,1.7c0.4,0.4,0.9,0.6,1.5,0.6c0.7,0,1.4-0.2,2-0.7v1
				c-0.6,0.4-1.3,0.6-2.3,0.6c-0.9,0-1.6-0.3-2.2-0.9c-0.5-0.6-0.8-1.4-0.8-2.5c0-1,0.3-1.8,0.9-2.5c0.6-0.6,1.3-1,2.1-1
				s1.5,0.3,2,0.8s0.7,1.3,0.7,2.3V377.2z M118.9,376.3c0-0.6-0.1-1.1-0.4-1.4c-0.3-0.3-0.7-0.5-1.2-0.5c-0.5,0-0.9,0.2-1.3,0.5
				c-0.3,0.4-0.6,0.8-0.6,1.4H118.9z"/>
			<path class="st8" d="M121.1,380v-1.1c0.6,0.4,1.2,0.6,1.9,0.6c0.9,0,1.4-0.3,1.4-0.9c0-0.2,0-0.3-0.1-0.4
				c-0.1-0.1-0.2-0.2-0.3-0.3c-0.1-0.1-0.3-0.2-0.5-0.3c-0.2-0.1-0.4-0.2-0.6-0.2c-0.3-0.1-0.5-0.2-0.8-0.3
				c-0.2-0.1-0.4-0.2-0.5-0.4c-0.1-0.1-0.3-0.3-0.3-0.5c-0.1-0.2-0.1-0.4-0.1-0.7c0-0.3,0.1-0.6,0.2-0.8c0.1-0.2,0.3-0.4,0.6-0.6
				c0.2-0.2,0.5-0.3,0.8-0.4c0.3-0.1,0.6-0.1,0.9-0.1c0.6,0,1.1,0.1,1.5,0.3v1.1c-0.5-0.3-1-0.5-1.7-0.5c-0.2,0-0.4,0-0.5,0.1
				c-0.2,0-0.3,0.1-0.4,0.2c-0.1,0.1-0.2,0.2-0.3,0.3c-0.1,0.1-0.1,0.2-0.1,0.4c0,0.2,0,0.3,0.1,0.4c0.1,0.1,0.2,0.2,0.3,0.3
				c0.1,0.1,0.3,0.2,0.4,0.2c0.2,0.1,0.4,0.1,0.6,0.2c0.3,0.1,0.5,0.2,0.8,0.3s0.4,0.2,0.6,0.4c0.2,0.1,0.3,0.3,0.4,0.5
				c0.1,0.2,0.1,0.4,0.1,0.7c0,0.3-0.1,0.6-0.2,0.8c-0.1,0.2-0.3,0.4-0.6,0.6c-0.2,0.2-0.5,0.3-0.8,0.3s-0.6,0.1-1,0.1
				C122.2,380.4,121.6,380.2,121.1,380z"/>
			<path class="st8" d="M130,380.1c-0.2,0.1-0.6,0.2-1,0.2c-1.1,0-1.7-0.6-1.7-1.9v-3.8h-1.1v-0.9h1.1v-1.6l1-0.3v1.9h1.6v0.9h-1.6
				v3.7c0,0.4,0.1,0.7,0.2,0.9s0.4,0.3,0.7,0.3c0.3,0,0.5-0.1,0.7-0.2V380.1z"/>
			<path class="st8" d="M141.3,379.8c-0.7,0.4-1.5,0.5-2.5,0.5c-1.3,0-2.3-0.4-3.1-1.2c-0.8-0.8-1.2-1.9-1.2-3.3
				c0-1.5,0.4-2.6,1.3-3.5s2-1.3,3.3-1.3c0.9,0,1.6,0.1,2.1,0.4v1.1c-0.7-0.4-1.4-0.5-2.2-0.5c-1,0-1.9,0.3-2.5,1
				c-0.6,0.7-1,1.6-1,2.8c0,1.1,0.3,2,0.9,2.7c0.6,0.7,1.4,1,2.4,1c0.9,0,1.7-0.2,2.4-0.6V379.8z"/>
			<path class="st8" d="M145.7,380.4c-1,0-1.7-0.3-2.3-0.9c-0.6-0.6-0.9-1.4-0.9-2.4c0-1.1,0.3-1.9,0.9-2.6c0.6-0.6,1.4-0.9,2.4-0.9
				c1,0,1.7,0.3,2.3,0.9c0.5,0.6,0.8,1.4,0.8,2.5c0,1-0.3,1.9-0.9,2.5C147.5,380,146.7,380.4,145.7,380.4z M145.8,374.4
				c-0.7,0-1.2,0.2-1.6,0.7s-0.6,1.1-0.6,1.9c0,0.8,0.2,1.4,0.6,1.8c0.4,0.4,0.9,0.7,1.6,0.7c0.7,0,1.2-0.2,1.6-0.7
				c0.4-0.4,0.5-1.1,0.5-1.9c0-0.8-0.2-1.4-0.5-1.9C147,374.6,146.5,374.4,145.8,374.4z"/>
			<path class="st8" d="M156,380.2h-1v-3.7c0-1.4-0.5-2.1-1.5-2.1c-0.5,0-1,0.2-1.3,0.6c-0.3,0.4-0.5,0.9-0.5,1.5v3.7h-1v-6.5h1v1.1
				h0c0.5-0.8,1.2-1.2,2.1-1.2c0.7,0,1.3,0.2,1.6,0.7s0.6,1.1,0.6,2V380.2z"/>
			<path class="st8" d="M161,380.1c-0.2,0.1-0.6,0.2-1,0.2c-1.1,0-1.7-0.6-1.7-1.9v-3.8h-1.1v-0.9h1.1v-1.6l1-0.3v1.9h1.6v0.9h-1.6
				v3.7c0,0.4,0.1,0.7,0.2,0.9s0.4,0.3,0.7,0.3c0.3,0,0.5-0.1,0.7-0.2V380.1z"/>
			<path class="st8" d="M165.8,374.8c-0.2-0.1-0.4-0.2-0.8-0.2c-0.4,0-0.8,0.2-1.1,0.6c-0.3,0.4-0.4,1-0.4,1.7v3.3h-1v-6.5h1v1.3h0
				c0.1-0.5,0.4-0.8,0.7-1.1s0.6-0.4,1-0.4c0.3,0,0.5,0,0.6,0.1V374.8z"/>
			<path class="st8" d="M171.6,380.2h-1v-1h0c-0.5,0.8-1.1,1.2-2,1.2c-0.6,0-1.2-0.2-1.5-0.5c-0.4-0.3-0.5-0.8-0.5-1.4
				c0-1.2,0.7-1.9,2.1-2.1l1.9-0.3c0-1.1-0.4-1.7-1.3-1.7c-0.8,0-1.5,0.3-2.1,0.8v-1.1c0.6-0.4,1.4-0.6,2.2-0.6
				c1.5,0,2.3,0.8,2.3,2.4V380.2z M170.5,376.9l-1.6,0.2c-0.5,0.1-0.8,0.2-1.1,0.4c-0.2,0.2-0.4,0.5-0.4,0.9c0,0.3,0.1,0.6,0.3,0.8
				c0.2,0.2,0.5,0.3,0.9,0.3c0.5,0,0.9-0.2,1.3-0.5c0.3-0.4,0.5-0.8,0.5-1.4V376.9z"/>
			<path class="st8" d="M173.1,380v-1.1c0.6,0.4,1.2,0.6,1.9,0.6c0.9,0,1.4-0.3,1.4-0.9c0-0.2,0-0.3-0.1-0.4
				c-0.1-0.1-0.2-0.2-0.3-0.3c-0.1-0.1-0.3-0.2-0.5-0.3c-0.2-0.1-0.4-0.2-0.6-0.2c-0.3-0.1-0.5-0.2-0.8-0.3
				c-0.2-0.1-0.4-0.2-0.5-0.4c-0.1-0.1-0.3-0.3-0.3-0.5c-0.1-0.2-0.1-0.4-0.1-0.7c0-0.3,0.1-0.6,0.2-0.8c0.1-0.2,0.3-0.4,0.6-0.6
				c0.2-0.2,0.5-0.3,0.8-0.4c0.3-0.1,0.6-0.1,0.9-0.1c0.6,0,1.1,0.1,1.5,0.3v1.1c-0.5-0.3-1-0.5-1.7-0.5c-0.2,0-0.4,0-0.5,0.1
				c-0.2,0-0.3,0.1-0.4,0.2c-0.1,0.1-0.2,0.2-0.3,0.3c-0.1,0.1-0.1,0.2-0.1,0.4c0,0.2,0,0.3,0.1,0.4c0.1,0.1,0.2,0.2,0.3,0.3
				c0.1,0.1,0.3,0.2,0.4,0.2c0.2,0.1,0.4,0.1,0.6,0.2c0.3,0.1,0.5,0.2,0.8,0.3s0.4,0.2,0.6,0.4c0.2,0.1,0.3,0.3,0.4,0.5
				c0.1,0.2,0.1,0.4,0.1,0.7c0,0.3-0.1,0.6-0.2,0.8c-0.1,0.2-0.3,0.4-0.6,0.6c-0.2,0.2-0.5,0.3-0.8,0.3s-0.6,0.1-1,0.1
				C174.2,380.4,173.6,380.2,173.1,380z"/>
			<path class="st8" d="M182.1,380.1c-0.2,0.1-0.6,0.2-1,0.2c-1.1,0-1.7-0.6-1.7-1.9v-3.8h-1.1v-0.9h1.1v-1.6l1-0.3v1.9h1.6v0.9
				h-1.6v3.7c0,0.4,0.1,0.7,0.2,0.9s0.4,0.3,0.7,0.3c0.3,0,0.5-0.1,0.7-0.2V380.1z"/>
		</g>
		<g class="st4">
			<path d="M86.2,348.4h4.2v1.8h-6.5v-0.7c0-0.5,0.1-1,0.3-1.3c0.2-0.4,0.4-0.8,0.6-1.1c0.3-0.3,0.5-0.6,0.8-0.8
				c0.3-0.2,0.6-0.5,0.9-0.7c0.3-0.2,0.5-0.4,0.8-0.6s0.4-0.4,0.5-0.6c0.1-0.2,0.3-0.4,0.3-0.6c0.1-0.2,0.1-0.4,0.1-0.6
				c0-0.4-0.1-0.7-0.4-1s-0.6-0.3-1.1-0.3c-0.8,0-1.6,0.3-2.4,1V341c0.9-0.6,1.8-0.8,2.9-0.8c0.5,0,0.9,0.1,1.3,0.2
				c0.4,0.1,0.7,0.3,1,0.6s0.5,0.5,0.6,0.9c0.1,0.3,0.2,0.7,0.2,1.2c0,0.5-0.1,0.9-0.2,1.2s-0.3,0.7-0.6,1s-0.5,0.5-0.8,0.8
				c-0.3,0.2-0.6,0.5-0.9,0.7c-0.2,0.2-0.4,0.3-0.6,0.5c-0.2,0.2-0.4,0.3-0.5,0.5c-0.2,0.1-0.3,0.3-0.4,0.4S86.2,348.3,86.2,348.4z"
				/>
		</g>
		<g class="st4">
			<path d="M104.2,350.2h-2.5l-1.5-2.5c-0.1-0.2-0.2-0.4-0.3-0.5s-0.2-0.3-0.3-0.4c-0.1-0.1-0.2-0.2-0.3-0.2
				c-0.1-0.1-0.2-0.1-0.4-0.1h-0.6v3.8H96v-9.8h3.5c2.4,0,3.6,0.9,3.6,2.7c0,0.3-0.1,0.7-0.2,0.9c-0.1,0.3-0.3,0.5-0.4,0.8
				s-0.4,0.4-0.7,0.6s-0.6,0.3-0.9,0.4v0c0.1,0,0.3,0.1,0.4,0.2c0.1,0.1,0.3,0.2,0.4,0.4s0.2,0.3,0.4,0.4c0.1,0.2,0.2,0.3,0.3,0.5
				L104.2,350.2z M98.2,342v2.7h1c0.5,0,0.9-0.1,1.1-0.4c0.3-0.3,0.4-0.6,0.4-1c0-0.9-0.5-1.3-1.5-1.3H98.2z"/>
		</g>
		<g class="st4">
			<path d="M110.4,347.3h-4.6c0.1,1,0.7,1.5,1.9,1.5c0.8,0,1.4-0.2,2-0.5v1.6c-0.6,0.3-1.5,0.5-2.5,0.5c-1.1,0-2-0.3-2.6-0.9
				c-0.6-0.6-0.9-1.5-0.9-2.6c0-1.2,0.3-2.1,1-2.8s1.5-1,2.5-1c1,0,1.8,0.3,2.4,0.9s0.8,1.4,0.8,2.5V347.3z M108.4,346
				c0-1-0.4-1.5-1.2-1.5c-0.3,0-0.6,0.1-0.9,0.4s-0.4,0.6-0.5,1.1H108.4z"/>
			<path d="M111.2,350v-1.8c0.4,0.2,0.7,0.4,1.1,0.5s0.7,0.2,1,0.2c0.4,0,0.7-0.1,0.9-0.2s0.3-0.3,0.3-0.5c0-0.1-0.1-0.3-0.2-0.3
				s-0.2-0.2-0.4-0.2s-0.3-0.1-0.5-0.2s-0.4-0.1-0.5-0.2c-0.3-0.1-0.5-0.2-0.7-0.3c-0.2-0.1-0.4-0.3-0.5-0.4s-0.3-0.3-0.3-0.6
				s-0.1-0.5-0.1-0.7c0-0.4,0.1-0.7,0.3-1s0.4-0.5,0.7-0.7c0.3-0.2,0.6-0.3,1-0.4c0.4-0.1,0.7-0.1,1.1-0.1c0.3,0,0.6,0,0.9,0.1
				c0.3,0,0.6,0.1,0.9,0.2v1.7c-0.3-0.2-0.6-0.3-0.9-0.4c-0.3-0.1-0.6-0.1-0.9-0.1c-0.1,0-0.3,0-0.4,0c-0.1,0-0.2,0.1-0.3,0.1
				c-0.1,0-0.2,0.1-0.2,0.2c-0.1,0.1-0.1,0.2-0.1,0.3c0,0.1,0,0.2,0.1,0.3s0.2,0.2,0.3,0.2c0.1,0.1,0.3,0.1,0.4,0.2
				c0.2,0.1,0.3,0.1,0.5,0.2c0.3,0.1,0.5,0.2,0.8,0.3s0.4,0.3,0.6,0.4s0.3,0.3,0.4,0.6s0.1,0.5,0.1,0.8c0,0.4-0.1,0.8-0.3,1.1
				c-0.2,0.3-0.4,0.5-0.7,0.7c-0.3,0.2-0.6,0.3-1,0.4c-0.4,0.1-0.8,0.1-1.2,0.1C112.6,350.3,111.9,350.2,111.2,350z"/>
			<path d="M124.5,350.2h-2.2v-1.1h0c-0.5,0.8-1.2,1.2-2.1,1.2c-1.6,0-2.4-1-2.4-2.9v-4.2h2.2v4c0,1,0.4,1.5,1.2,1.5
				c0.4,0,0.7-0.1,0.9-0.4c0.2-0.3,0.3-0.6,0.3-1.1v-4h2.2V350.2z"/>
			<path d="M128.5,350.2h-2.2v-10.4h2.2V350.2z"/>
			<path d="M134.5,350.1c-0.3,0.2-0.8,0.3-1.4,0.3c-1.5,0-2.3-0.8-2.3-2.4v-3.2h-1.1v-1.6h1.1v-1.5l2.2-0.6v2.1h1.6v1.6H133v2.8
				c0,0.7,0.3,1.1,0.9,1.1c0.2,0,0.5-0.1,0.7-0.2V350.1z"/>
			<path d="M135.3,350v-1.8c0.4,0.2,0.7,0.4,1.1,0.5s0.7,0.2,1,0.2c0.4,0,0.7-0.1,0.9-0.2s0.3-0.3,0.3-0.5c0-0.1-0.1-0.3-0.2-0.3
				s-0.2-0.2-0.4-0.2s-0.3-0.1-0.5-0.2s-0.4-0.1-0.5-0.2c-0.3-0.1-0.5-0.2-0.7-0.3c-0.2-0.1-0.4-0.3-0.5-0.4s-0.3-0.3-0.3-0.6
				s-0.1-0.5-0.1-0.7c0-0.4,0.1-0.7,0.3-1s0.4-0.5,0.7-0.7c0.3-0.2,0.6-0.3,1-0.4c0.4-0.1,0.7-0.1,1.1-0.1c0.3,0,0.6,0,0.9,0.1
				c0.3,0,0.6,0.1,0.9,0.2v1.7c-0.3-0.2-0.6-0.3-0.9-0.4c-0.3-0.1-0.6-0.1-0.9-0.1c-0.1,0-0.3,0-0.4,0c-0.1,0-0.2,0.1-0.3,0.1
				c-0.1,0-0.2,0.1-0.2,0.2c-0.1,0.1-0.1,0.2-0.1,0.3c0,0.1,0,0.2,0.1,0.3s0.2,0.2,0.3,0.2c0.1,0.1,0.3,0.1,0.4,0.2
				c0.2,0.1,0.3,0.1,0.5,0.2c0.3,0.1,0.5,0.2,0.8,0.3s0.4,0.3,0.6,0.4s0.3,0.3,0.4,0.6s0.1,0.5,0.1,0.8c0,0.4-0.1,0.8-0.3,1.1
				c-0.2,0.3-0.4,0.5-0.7,0.7c-0.3,0.2-0.6,0.3-1,0.4c-0.4,0.1-0.8,0.1-1.2,0.1C136.7,350.3,135.9,350.2,135.3,350z"/>
			<path d="M154.6,350.2h-2.4l-0.7-2.2H148l-0.7,2.2h-2.4l3.6-9.8h2.6L154.6,350.2z M151,346.3l-1.1-3.3c-0.1-0.2-0.1-0.5-0.2-0.9
				h-0.1c0,0.3-0.1,0.6-0.2,0.9l-1.1,3.3H151z"/>
			<path d="M157.8,349.4L157.8,349.4l0,0.8h-2.2v-10.4h2.2v4.4h0c0.5-0.8,1.3-1.2,2.3-1.2c0.9,0,1.6,0.3,2.1,0.9s0.7,1.5,0.7,2.5
				c0,1.2-0.3,2.1-0.9,2.8s-1.3,1.1-2.3,1.1C158.9,350.3,158.2,350,157.8,349.4z M157.7,346.4v0.7c0,0.5,0.1,0.8,0.4,1.1
				s0.6,0.4,1,0.4c0.5,0,0.9-0.2,1.1-0.6c0.3-0.4,0.4-0.9,0.4-1.6c0-0.6-0.1-1-0.4-1.4c-0.2-0.3-0.6-0.5-1.1-0.5
				c-0.4,0-0.8,0.2-1.1,0.5S157.7,345.9,157.7,346.4z"/>
			<path d="M171,350.2h-2.2v-3.9c0-1.1-0.4-1.6-1.2-1.6c-0.4,0-0.7,0.1-0.9,0.4s-0.4,0.7-0.4,1.1v4h-2.2v-7h2.2v1.1h0
				c0.5-0.9,1.3-1.3,2.2-1.3c1.5,0,2.3,1,2.3,2.9V350.2z"/>
			<path d="M176.1,350.3c-1.2,0-2.1-0.3-2.8-1c-0.7-0.7-1-1.5-1-2.7c0-1.2,0.3-2.1,1-2.7c0.7-0.7,1.6-1,2.8-1c1.2,0,2.1,0.3,2.7,1
				c0.7,0.7,1,1.5,1,2.6c0,1.2-0.3,2.1-1,2.8S177.3,350.3,176.1,350.3z M176.1,344.7c-0.5,0-0.9,0.2-1.2,0.5s-0.4,0.8-0.4,1.5
				c0,1.3,0.5,2,1.6,2c1,0,1.6-0.7,1.6-2.1C177.7,345.3,177.2,344.7,176.1,344.7z"/>
			<path d="M185.9,345.1c-0.3-0.1-0.6-0.2-0.9-0.2c-0.5,0-0.8,0.2-1.1,0.5c-0.3,0.3-0.4,0.8-0.4,1.4v3.3h-2.2v-7h2.2v1.3h0
				c0.3-0.9,1-1.4,1.8-1.4c0.2,0,0.4,0,0.5,0.1V345.1z"/>
			<path d="M198,350.2h-2.2v-4c0-1-0.4-1.5-1.1-1.5c-0.4,0-0.6,0.2-0.9,0.5s-0.3,0.7-0.3,1.1v3.9h-2.2v-4c0-1-0.4-1.5-1.1-1.5
				c-0.4,0-0.7,0.1-0.9,0.4s-0.3,0.7-0.3,1.2v3.9h-2.2v-7h2.2v1.1h0c0.2-0.4,0.5-0.7,0.9-0.9c0.4-0.2,0.8-0.4,1.3-0.4
				c1,0,1.7,0.4,2,1.3c0.5-0.9,1.3-1.3,2.4-1.3c1.5,0,2.3,0.9,2.3,2.8V350.2z"/>
			<path d="M205.6,350.2h-2v-1h0c-0.5,0.8-1.2,1.2-2.1,1.2c-0.7,0-1.2-0.2-1.6-0.6c-0.4-0.4-0.6-0.9-0.6-1.5c0-1.4,0.8-2.1,2.4-2.4
				l1.9-0.3c0-0.8-0.4-1.1-1.2-1.1c-0.8,0-1.6,0.2-2.4,0.7v-1.6c0.3-0.2,0.7-0.3,1.2-0.4s1-0.2,1.4-0.2c2,0,3,1,3,3V350.2z
				 M203.5,347.3v-0.5l-1.3,0.2c-0.7,0.1-1.1,0.4-1.1,1c0,0.2,0.1,0.4,0.3,0.6c0.2,0.2,0.4,0.2,0.7,0.2c0.4,0,0.7-0.1,1-0.4
				C203.4,348.1,203.5,347.8,203.5,347.3z"/>
			<path d="M209.4,350.2h-2.2v-10.4h2.2V350.2z"/>
			<path d="M213.3,348.4l-1,3.5h-1.7l0.7-3.5H213.3z"/>
		</g>
		<g class="st4">
			<path d="M219.4,340.4v6.5h1.3v1h-1.3v2.3h-1.1v-2.3h-4.6v-1c0.4-0.5,0.9-1,1.3-1.5c0.4-0.5,0.9-1.1,1.3-1.7
				c0.4-0.6,0.8-1.1,1.1-1.7c0.3-0.6,0.6-1.1,0.9-1.6H219.4z M214.9,346.8h3.3V342c-0.3,0.6-0.7,1.1-1,1.6c-0.3,0.5-0.6,0.9-0.9,1.3
				c-0.3,0.4-0.5,0.7-0.8,1C215.4,346.3,215.2,346.6,214.9,346.8z"/>
			<path d="M230.2,350.3c-1.4,0-2.5-0.5-3.3-1.4c-0.8-0.9-1.3-2.1-1.3-3.6c0-1.6,0.4-2.8,1.3-3.8c0.9-0.9,2-1.4,3.5-1.4
				c1.4,0,2.4,0.5,3.3,1.4s1.2,2.1,1.2,3.6c0,1.6-0.4,2.9-1.3,3.8S231.6,350.3,230.2,350.3z M230.3,341.2c-1,0-1.9,0.4-2.5,1.1
				s-1,1.7-1,2.9s0.3,2.2,0.9,2.9c0.6,0.7,1.4,1.1,2.5,1.1c1.1,0,1.9-0.4,2.5-1.1c0.6-0.7,0.9-1.7,0.9-2.9c0-1.3-0.3-2.3-0.9-3
				S231.3,341.2,230.3,341.2z"/>
		</g>
		<g class="st4">
			<path d="M240.3,344.3c-0.2-0.2-0.5-0.2-0.8-0.2c-0.5,0-0.9,0.2-1.2,0.7s-0.5,1.1-0.5,1.8v3.6h-1.1v-7h1.1v1.4h0
				c0.2-0.5,0.4-0.9,0.7-1.2c0.3-0.3,0.7-0.4,1.1-0.4c0.3,0,0.5,0,0.7,0.1V344.3z"/>
		</g>
		<g class="st4">
			<path d="M247.3,350.2h-1.1V349h0c-0.5,0.9-1.3,1.4-2.4,1.4c-0.9,0-1.6-0.3-2.1-0.9c-0.5-0.6-0.8-1.5-0.8-2.6
				c0-1.2,0.3-2.1,0.9-2.8c0.6-0.7,1.4-1,2.3-1c1,0,1.7,0.4,2.1,1.1h0v-4.3h1.1V350.2z M246.2,347v-1c0-0.6-0.2-1-0.6-1.4
				c-0.4-0.4-0.8-0.6-1.4-0.6c-0.7,0-1.2,0.3-1.6,0.8c-0.4,0.5-0.6,1.2-0.6,2.1c0,0.8,0.2,1.4,0.6,1.9c0.4,0.5,0.9,0.7,1.5,0.7
				c0.6,0,1.1-0.2,1.5-0.7S246.2,347.7,246.2,347z"/>
			<path d="M255.2,347h-4.9c0,0.8,0.2,1.4,0.6,1.8c0.4,0.4,1,0.6,1.7,0.6c0.8,0,1.5-0.3,2.2-0.8v1.1c-0.6,0.4-1.4,0.7-2.4,0.7
				c-1,0-1.8-0.3-2.3-1c-0.6-0.6-0.8-1.5-0.8-2.7c0-1.1,0.3-2,0.9-2.7c0.6-0.7,1.4-1,2.3-1s1.6,0.3,2.1,0.9c0.5,0.6,0.8,1.4,0.8,2.5
				V347z M254.1,346c0-0.6-0.2-1.2-0.5-1.5s-0.7-0.5-1.3-0.5c-0.5,0-1,0.2-1.3,0.6s-0.6,0.9-0.7,1.5H254.1z"/>
		</g>
		<g class="st4">
			<path d="M260.5,344.3c-0.2-0.2-0.5-0.2-0.8-0.2c-0.5,0-0.9,0.2-1.2,0.7s-0.5,1.1-0.5,1.8v3.6h-1.1v-7h1.1v1.4h0
				c0.2-0.5,0.4-0.9,0.7-1.2c0.3-0.3,0.7-0.4,1.1-0.4c0.3,0,0.5,0,0.7,0.1V344.3z"/>
		</g>
		<g class="st4">
			<path d="M261.4,349.9v-1.2c0.6,0.5,1.3,0.7,2,0.7c1,0,1.5-0.3,1.5-1c0-0.2,0-0.3-0.1-0.5c-0.1-0.1-0.2-0.2-0.3-0.3
				s-0.3-0.2-0.5-0.3c-0.2-0.1-0.4-0.2-0.6-0.2c-0.3-0.1-0.6-0.2-0.8-0.4c-0.2-0.1-0.4-0.3-0.6-0.4c-0.2-0.2-0.3-0.3-0.4-0.5
				c-0.1-0.2-0.1-0.4-0.1-0.7c0-0.3,0.1-0.6,0.2-0.9c0.2-0.3,0.4-0.5,0.6-0.6c0.2-0.2,0.5-0.3,0.9-0.4s0.7-0.1,1-0.1
				c0.6,0,1.1,0.1,1.6,0.3v1.1c-0.5-0.3-1.1-0.5-1.8-0.5c-0.2,0-0.4,0-0.6,0.1c-0.2,0-0.3,0.1-0.4,0.2c-0.1,0.1-0.2,0.2-0.3,0.3
				c-0.1,0.1-0.1,0.3-0.1,0.4c0,0.2,0,0.3,0.1,0.5c0.1,0.1,0.2,0.2,0.3,0.3c0.1,0.1,0.3,0.2,0.5,0.3c0.2,0.1,0.4,0.2,0.6,0.3
				c0.3,0.1,0.6,0.2,0.8,0.4c0.2,0.1,0.5,0.3,0.6,0.4c0.2,0.2,0.3,0.3,0.4,0.5c0.1,0.2,0.1,0.4,0.1,0.7c0,0.3-0.1,0.6-0.2,0.9
				c-0.2,0.3-0.4,0.5-0.6,0.6c-0.3,0.2-0.5,0.3-0.9,0.4c-0.3,0.1-0.7,0.1-1,0.1C262.6,350.3,262,350.2,261.4,349.9z"/>
			<path d="M272.9,346.5v3.7h-1.1v-9.8h2.7c1,0,1.9,0.3,2.4,0.8c0.6,0.5,0.9,1.2,0.9,2.2s-0.3,1.7-1,2.3c-0.6,0.6-1.5,0.9-2.6,0.9
				H272.9z M272.9,341.4v4h1.2c0.8,0,1.4-0.2,1.8-0.5c0.4-0.4,0.6-0.9,0.6-1.5c0-1.3-0.8-1.9-2.3-1.9H272.9z"/>
			<path d="M280.6,350.2h-1.1v-10.4h1.1V350.2z"/>
			<path d="M287.9,350.2h-1.1v-1.1h0c-0.5,0.8-1.2,1.3-2.2,1.3c-0.7,0-1.2-0.2-1.6-0.6c-0.4-0.4-0.6-0.9-0.6-1.5
				c0-1.3,0.8-2.1,2.3-2.3l2.1-0.3c0-1.2-0.5-1.8-1.4-1.8c-0.8,0-1.6,0.3-2.3,0.9v-1.1c0.7-0.4,1.5-0.7,2.4-0.7
				c1.6,0,2.5,0.9,2.5,2.6V350.2z M286.8,346.6l-1.7,0.2c-0.5,0.1-0.9,0.2-1.2,0.4c-0.3,0.2-0.4,0.5-0.4,1c0,0.3,0.1,0.6,0.4,0.8
				c0.2,0.2,0.6,0.3,1,0.3c0.6,0,1-0.2,1.4-0.6c0.4-0.4,0.5-0.9,0.5-1.5V346.6z"/>
			<path d="M294.8,349.8c-0.5,0.3-1.2,0.5-1.9,0.5c-1,0-1.8-0.3-2.4-1c-0.6-0.6-0.9-1.5-0.9-2.5c0-1.2,0.3-2.1,1-2.8
				c0.7-0.7,1.5-1,2.6-1c0.6,0,1.2,0.1,1.6,0.3v1.1c-0.5-0.4-1.1-0.5-1.7-0.5c-0.7,0-1.3,0.3-1.8,0.8c-0.5,0.5-0.7,1.2-0.7,2
				c0,0.8,0.2,1.5,0.6,1.9s1,0.7,1.7,0.7c0.6,0,1.2-0.2,1.7-0.6V349.8z"/>
			<path d="M302.1,347h-4.9c0,0.8,0.2,1.4,0.6,1.8c0.4,0.4,1,0.6,1.7,0.6c0.8,0,1.5-0.3,2.2-0.8v1.1c-0.6,0.4-1.4,0.7-2.4,0.7
				c-1,0-1.8-0.3-2.3-1c-0.6-0.6-0.8-1.5-0.8-2.7c0-1.1,0.3-2,0.9-2.7c0.6-0.7,1.4-1,2.3-1s1.6,0.3,2.1,0.9c0.5,0.6,0.8,1.4,0.8,2.5
				V347z M300.9,346c0-0.6-0.2-1.2-0.5-1.5s-0.7-0.5-1.3-0.5c-0.5,0-1,0.2-1.3,0.6s-0.6,0.9-0.7,1.5H300.9z"/>
			<path d="M309.8,350.2h-1.1V349h0c-0.5,0.9-1.3,1.4-2.4,1.4c-0.9,0-1.6-0.3-2.1-0.9c-0.5-0.6-0.8-1.5-0.8-2.6
				c0-1.2,0.3-2.1,0.9-2.8c0.6-0.7,1.4-1,2.3-1c1,0,1.7,0.4,2.1,1.1h0v-4.3h1.1V350.2z M308.6,347v-1c0-0.6-0.2-1-0.6-1.4
				c-0.4-0.4-0.8-0.6-1.4-0.6c-0.7,0-1.2,0.3-1.6,0.8c-0.4,0.5-0.6,1.2-0.6,2.1c0,0.8,0.2,1.4,0.6,1.9c0.4,0.5,0.9,0.7,1.5,0.7
				c0.6,0,1.1-0.2,1.5-0.7S308.6,347.7,308.6,347z"/>
		</g>
		<circle class="st9" cx="58" cy="353.7" r="15.8"/>
		<path class="st7" d="M66.4,363.4H49.7l-0.2-0.1c-1.3-1.3-1.3-3.5,0-4.8l6.1-6.1v-8.5H55c-0.8,0-1.5-0.7-1.5-1.5s0.7-1.5,1.5-1.5h6
			c0.8,0,1.5,0.7,1.5,1.5s-0.7,1.5-1.5,1.5h-0.6v8.5l6.1,6.1c1.3,1.3,1.3,3.4,0,4.8c0,0,0,0,0,0L66.4,363.4z M50.1,362.4H66
			c0.8-0.9,0.7-2.3-0.1-3.2l0,0l-6.1-6.1h-0.1l-0.2-0.1v-9.9H61c0.3,0,0.5-0.2,0.5-0.5s-0.2-0.5-0.5-0.5h-6c-0.3,0-0.5,0.2-0.5,0.5
			s0.2,0.5,0.5,0.5h1.6v9.9l-0.2,0.1l-0.1,0.1l-6.1,6.1C49.3,360.1,49.3,361.5,50.1,362.4L50.1,362.4z"/>
		<path class="st7" d="M51.8,359.4c-0.6,0.6-0.7,1.5-0.3,2.1h13c0.4-0.7,0.3-1.6-0.3-2.1l-2.6-2.6h-7.4L51.8,359.4z"/>
		<g class="st4">
			<path d="M91.8,285.4h-3v8.6h-2.4v-8.6h-3v-1.9h8.3V285.4z"/>
		</g>
		<g class="st4">
			<path d="M98.9,286.5l-3,8.1c-0.7,1.9-1.8,2.9-3.3,2.9c-0.6,0-1-0.1-1.4-0.2v-1.8c0.3,0.2,0.6,0.3,1,0.3c0.6,0,1-0.3,1.2-0.8
				l0.4-0.9l-3-7.5h2.6l1.4,4.6c0.1,0.3,0.2,0.6,0.2,1h0c0-0.3,0.1-0.6,0.2-1l1.4-4.6H98.9z"/>
			<path d="M102.1,293.1L102.1,293.1l0,4.3h-2.3v-10.9h2.3v1.1h0c0.6-0.9,1.4-1.3,2.4-1.3c1,0,1.7,0.3,2.3,1
				c0.5,0.7,0.8,1.6,0.8,2.7c0,1.3-0.3,2.3-0.9,3s-1.4,1.1-2.5,1.1C103.3,294.1,102.6,293.8,102.1,293.1z M102.1,290v0.6
				c0,0.5,0.1,0.9,0.4,1.3s0.6,0.5,1.1,0.5c0.5,0,0.9-0.2,1.2-0.6c0.3-0.4,0.4-1,0.4-1.7c0-1.3-0.5-2-1.5-2c-0.5,0-0.9,0.2-1.2,0.5
				C102.2,288.9,102.1,289.4,102.1,290z"/>
			<path d="M115.8,290.9h-4.9c0.1,1.1,0.8,1.6,2.1,1.6c0.8,0,1.6-0.2,2.2-0.6v1.7c-0.7,0.4-1.6,0.6-2.7,0.6c-1.2,0-2.2-0.3-2.8-1
				c-0.7-0.7-1-1.6-1-2.8c0-1.2,0.4-2.2,1.1-3s1.6-1.1,2.7-1.1c1.1,0,1.9,0.3,2.5,1c0.6,0.6,0.9,1.5,0.9,2.6V290.9z M113.7,289.4
				c0-1.1-0.4-1.6-1.3-1.6c-0.4,0-0.7,0.2-1,0.5c-0.3,0.3-0.4,0.7-0.5,1.2H113.7z"/>
			<path d="M123.5,292h4.5v1.9h-7v-0.8c0-0.5,0.1-1,0.3-1.4c0.2-0.4,0.4-0.8,0.7-1.2c0.3-0.3,0.6-0.6,0.9-0.9
				c0.3-0.3,0.6-0.5,0.9-0.7c0.3-0.2,0.6-0.4,0.8-0.6c0.2-0.2,0.4-0.4,0.6-0.6c0.2-0.2,0.3-0.4,0.4-0.6c0.1-0.2,0.1-0.4,0.1-0.6
				c0-0.4-0.1-0.8-0.4-1s-0.6-0.3-1.2-0.3c-0.9,0-1.8,0.4-2.6,1.1v-2c0.9-0.6,1.9-0.9,3.1-0.9c0.5,0,1,0.1,1.4,0.2
				c0.4,0.1,0.8,0.3,1.1,0.6s0.5,0.6,0.7,0.9c0.2,0.4,0.2,0.8,0.2,1.2c0,0.5-0.1,0.9-0.2,1.3c-0.1,0.4-0.3,0.7-0.6,1
				c-0.2,0.3-0.5,0.6-0.9,0.8c-0.3,0.3-0.7,0.5-1,0.7c-0.2,0.2-0.5,0.3-0.7,0.5c-0.2,0.2-0.4,0.3-0.6,0.5c-0.2,0.2-0.3,0.3-0.4,0.5
				C123.6,291.8,123.5,291.9,123.5,292z"/>
			<path d="M134.3,294v-10.5h3.7c3.7,0,5.6,1.7,5.6,5.1c0,1.6-0.5,2.9-1.5,3.9c-1,1-2.4,1.5-4.1,1.5H134.3z M136.7,285.4v6.7h1.2
				c1,0,1.8-0.3,2.4-0.9c0.6-0.6,0.9-1.5,0.9-2.5c0-1-0.3-1.8-0.9-2.4c-0.6-0.6-1.4-0.9-2.4-0.9H136.7z"/>
			<path d="M146.3,285.3c-0.4,0-0.7-0.1-1-0.3c-0.2-0.2-0.4-0.5-0.4-0.9c0-0.3,0.1-0.6,0.4-0.8s0.6-0.3,1-0.3c0.4,0,0.7,0.1,1,0.3
				c0.2,0.2,0.4,0.5,0.4,0.8c0,0.4-0.1,0.6-0.4,0.9C147.1,285.2,146.7,285.3,146.3,285.3z M147.5,294h-2.3v-7.5h2.3V294z"/>
			<path d="M155.7,294h-2.2v-1.1h0c-0.5,0.8-1.2,1.3-2.2,1.3c-0.7,0-1.3-0.2-1.7-0.6c-0.4-0.4-0.6-1-0.6-1.7c0-1.5,0.9-2.3,2.6-2.5
				l2-0.3c0-0.8-0.4-1.2-1.3-1.2c-0.9,0-1.7,0.3-2.5,0.8v-1.7c0.3-0.2,0.8-0.3,1.3-0.4c0.6-0.1,1.1-0.2,1.5-0.2
				c2.1,0,3.2,1.1,3.2,3.2V294z M153.5,290.9v-0.5l-1.4,0.2c-0.8,0.1-1.1,0.4-1.1,1c0,0.3,0.1,0.5,0.3,0.6c0.2,0.2,0.4,0.3,0.7,0.3
				c0.4,0,0.8-0.2,1.1-0.5C153.4,291.7,153.5,291.4,153.5,290.9z"/>
			<path d="M159.8,293.1L159.8,293.1l0,0.9h-2.3v-11.1h2.3v4.7h0c0.6-0.9,1.4-1.3,2.4-1.3c1,0,1.7,0.3,2.2,1
				c0.5,0.7,0.8,1.6,0.8,2.7c0,1.3-0.3,2.3-0.9,3s-1.4,1.1-2.4,1.1C161,294.1,160.3,293.8,159.8,293.1z M159.8,289.9v0.8
				c0,0.5,0.1,0.9,0.4,1.2s0.6,0.5,1.1,0.5c0.5,0,0.9-0.2,1.2-0.6c0.3-0.4,0.4-1,0.4-1.7c0-0.6-0.1-1.1-0.4-1.5
				c-0.3-0.3-0.6-0.5-1.1-0.5c-0.5,0-0.8,0.2-1.2,0.5C159.9,288.9,159.8,289.4,159.8,289.9z"/>
			<path d="M173.5,290.9h-4.9c0.1,1.1,0.8,1.6,2.1,1.6c0.8,0,1.6-0.2,2.2-0.6v1.7c-0.7,0.4-1.6,0.6-2.7,0.6c-1.2,0-2.2-0.3-2.8-1
				c-0.7-0.7-1-1.6-1-2.8c0-1.2,0.4-2.2,1.1-3s1.6-1.1,2.7-1.1c1.1,0,1.9,0.3,2.5,1c0.6,0.6,0.9,1.5,0.9,2.6V290.9z M171.4,289.4
				c0-1.1-0.4-1.6-1.3-1.6c-0.4,0-0.7,0.2-1,0.5c-0.3,0.3-0.4,0.7-0.5,1.2H171.4z"/>
		</g>
		<g class="st4">
			<path d="M179,293.9c-0.3,0.2-0.9,0.3-1.5,0.3c-1.6,0-2.4-0.8-2.4-2.5v-3.4h-1.2v-1.7h1.2v-1.6l2.3-0.7v2.3h1.7v1.7h-1.7v3
				c0,0.8,0.3,1.2,0.9,1.2c0.2,0,0.5-0.1,0.8-0.2V293.9z"/>
		</g>
		<g class="st4">
			<path d="M186.5,290.9h-4.9c0.1,1.1,0.8,1.6,2.1,1.6c0.8,0,1.6-0.2,2.2-0.6v1.7c-0.7,0.4-1.6,0.6-2.7,0.6c-1.2,0-2.2-0.3-2.8-1
				c-0.7-0.7-1-1.6-1-2.8c0-1.2,0.4-2.2,1.1-3s1.6-1.1,2.7-1.1c1.1,0,1.9,0.3,2.5,1c0.6,0.6,0.9,1.5,0.9,2.6V290.9z M184.4,289.4
				c0-1.1-0.4-1.6-1.3-1.6c-0.4,0-0.7,0.2-1,0.5c-0.3,0.3-0.4,0.7-0.5,1.2H184.4z"/>
			<path d="M187.4,293.8v-1.9c0.4,0.2,0.8,0.4,1.1,0.5c0.4,0.1,0.7,0.2,1.1,0.2c0.4,0,0.7-0.1,1-0.2c0.2-0.1,0.4-0.3,0.4-0.5
				c0-0.1-0.1-0.3-0.2-0.4c-0.1-0.1-0.2-0.2-0.4-0.3c-0.2-0.1-0.4-0.1-0.6-0.2s-0.4-0.1-0.6-0.2c-0.3-0.1-0.6-0.2-0.8-0.4
				c-0.2-0.1-0.4-0.3-0.6-0.5c-0.2-0.2-0.3-0.4-0.4-0.6c-0.1-0.2-0.1-0.5-0.1-0.8c0-0.4,0.1-0.8,0.3-1.1c0.2-0.3,0.4-0.6,0.7-0.7
				c0.3-0.2,0.7-0.3,1-0.4c0.4-0.1,0.8-0.1,1.2-0.1c0.3,0,0.7,0,1,0.1c0.3,0.1,0.7,0.1,1,0.2v1.8c-0.3-0.2-0.6-0.3-0.9-0.4
				c-0.3-0.1-0.7-0.1-1-0.1c-0.2,0-0.3,0-0.4,0c-0.1,0-0.3,0.1-0.4,0.1c-0.1,0.1-0.2,0.1-0.2,0.2c-0.1,0.1-0.1,0.2-0.1,0.3
				c0,0.1,0,0.3,0.1,0.4s0.2,0.2,0.3,0.3c0.1,0.1,0.3,0.1,0.5,0.2c0.2,0.1,0.3,0.1,0.5,0.2c0.3,0.1,0.6,0.2,0.8,0.4s0.5,0.3,0.6,0.4
				c0.2,0.2,0.3,0.4,0.4,0.6c0.1,0.2,0.1,0.5,0.1,0.8c0,0.4-0.1,0.8-0.3,1.1c-0.2,0.3-0.4,0.6-0.8,0.8c-0.3,0.2-0.7,0.3-1.1,0.4
				c-0.4,0.1-0.9,0.1-1.3,0.1C188.9,294.1,188.1,294,187.4,293.8z"/>
			<path d="M210.5,294h-2.3v-4.3c0-1.1-0.4-1.6-1.2-1.6c-0.4,0-0.7,0.2-0.9,0.5s-0.4,0.7-0.4,1.2v4.2h-2.3v-4.3
				c0-1.1-0.4-1.6-1.2-1.6c-0.4,0-0.7,0.2-0.9,0.5s-0.4,0.7-0.4,1.3v4.2h-2.3v-7.5h2.3v1.2h0c0.2-0.4,0.6-0.7,1-1
				c0.4-0.3,0.9-0.4,1.4-0.4c1.1,0,1.8,0.5,2.2,1.4c0.6-0.9,1.4-1.4,2.5-1.4c1.6,0,2.4,1,2.4,3V294z"/>
			<path d="M219.1,290.9h-4.9c0.1,1.1,0.8,1.6,2.1,1.6c0.8,0,1.6-0.2,2.2-0.6v1.7c-0.7,0.4-1.6,0.6-2.7,0.6c-1.2,0-2.2-0.3-2.8-1
				c-0.7-0.7-1-1.6-1-2.8c0-1.2,0.4-2.2,1.1-3s1.6-1.1,2.7-1.1c1.1,0,1.9,0.3,2.5,1c0.6,0.6,0.9,1.5,0.9,2.6V290.9z M217,289.4
				c0-1.1-0.4-1.6-1.3-1.6c-0.4,0-0.7,0.2-1,0.5c-0.3,0.3-0.4,0.7-0.5,1.2H217z"/>
			<path d="M222.8,294h-2.3v-11.1h2.3V294z"/>
			<path d="M227.1,294h-2.3v-11.1h2.3V294z"/>
			<path d="M230.2,285.3c-0.4,0-0.7-0.1-1-0.3c-0.2-0.2-0.4-0.5-0.4-0.9c0-0.3,0.1-0.6,0.4-0.8s0.6-0.3,1-0.3c0.4,0,0.7,0.1,1,0.3
				c0.2,0.2,0.4,0.5,0.4,0.8c0,0.4-0.1,0.6-0.4,0.9C230.9,285.2,230.6,285.3,230.2,285.3z M231.3,294H229v-7.5h2.3V294z"/>
			<path d="M237.8,293.9c-0.3,0.2-0.9,0.3-1.5,0.3c-1.6,0-2.4-0.8-2.4-2.5v-3.4h-1.2v-1.7h1.2v-1.6l2.3-0.7v2.3h1.7v1.7h-1.7v3
				c0,0.8,0.3,1.2,0.9,1.2c0.2,0,0.5-0.1,0.8-0.2V293.9z"/>
			<path d="M246.2,294h-2.3v-1.1h0c-0.6,0.9-1.3,1.3-2.3,1.3c-1.7,0-2.6-1.1-2.6-3.2v-4.5h2.3v4.3c0,1.1,0.4,1.6,1.3,1.6
				c0.4,0,0.7-0.1,1-0.4c0.2-0.3,0.4-0.7,0.4-1.2v-4.3h2.3V294z"/>
			<path d="M247.7,293.8v-1.9c0.4,0.2,0.8,0.4,1.1,0.5c0.4,0.1,0.7,0.2,1.1,0.2c0.4,0,0.7-0.1,1-0.2c0.2-0.1,0.4-0.3,0.4-0.5
				c0-0.1-0.1-0.3-0.2-0.4c-0.1-0.1-0.2-0.2-0.4-0.3c-0.2-0.1-0.4-0.1-0.6-0.2s-0.4-0.1-0.6-0.2c-0.3-0.1-0.6-0.2-0.8-0.4
				c-0.2-0.1-0.4-0.3-0.6-0.5c-0.2-0.2-0.3-0.4-0.4-0.6c-0.1-0.2-0.1-0.5-0.1-0.8c0-0.4,0.1-0.8,0.3-1.1c0.2-0.3,0.4-0.6,0.7-0.7
				c0.3-0.2,0.7-0.3,1-0.4c0.4-0.1,0.8-0.1,1.2-0.1c0.3,0,0.7,0,1,0.1c0.3,0.1,0.7,0.1,1,0.2v1.8c-0.3-0.2-0.6-0.3-0.9-0.4
				c-0.3-0.1-0.7-0.1-1-0.1c-0.2,0-0.3,0-0.4,0c-0.1,0-0.3,0.1-0.4,0.1c-0.1,0.1-0.2,0.1-0.2,0.2c-0.1,0.1-0.1,0.2-0.1,0.3
				c0,0.1,0,0.3,0.1,0.4s0.2,0.2,0.3,0.3c0.1,0.1,0.3,0.1,0.5,0.2c0.2,0.1,0.3,0.1,0.5,0.2c0.3,0.1,0.6,0.2,0.8,0.4s0.5,0.3,0.6,0.4
				c0.2,0.2,0.3,0.4,0.4,0.6c0.1,0.2,0.1,0.5,0.1,0.8c0,0.4-0.1,0.8-0.3,1.1c-0.2,0.3-0.4,0.6-0.8,0.8c-0.3,0.2-0.7,0.3-1.1,0.4
				c-0.4,0.1-0.9,0.1-1.3,0.1C249.2,294.1,248.4,294,247.7,293.8z"/>
			<path d="M257,292.1l-1.1,3.7h-1.8l0.7-3.7H257z"/>
			<path d="M268.7,293.7c-0.5,0.3-1.3,0.5-2.3,0.5c-1.2,0-2.1-0.3-2.8-1s-1.1-1.6-1.1-2.7c0-1.3,0.4-2.3,1.1-3
				c0.8-0.7,1.8-1.1,3.1-1.1c0.9,0,1.5,0.1,1.9,0.4v2c-0.5-0.4-1-0.5-1.6-0.5c-0.7,0-1.2,0.2-1.6,0.6c-0.4,0.4-0.6,0.9-0.6,1.6
				c0,0.7,0.2,1.2,0.6,1.6c0.4,0.4,0.9,0.6,1.5,0.6c0.6,0,1.1-0.2,1.7-0.5V293.7z"/>
			<path d="M273.8,294.1c-1.2,0-2.2-0.4-2.9-1.1c-0.7-0.7-1.1-1.7-1.1-2.9c0-1.2,0.4-2.2,1.1-2.9c0.7-0.7,1.7-1.1,3-1.1
				c1.2,0,2.2,0.4,2.9,1.1c0.7,0.7,1.1,1.6,1.1,2.8c0,1.2-0.4,2.2-1.1,3C276,293.8,275,294.1,273.8,294.1z M273.8,288
				c-0.5,0-1,0.2-1.3,0.6s-0.5,0.9-0.5,1.6c0,1.4,0.6,2.2,1.7,2.2c1.1,0,1.7-0.7,1.7-2.2C275.5,288.7,274.9,288,273.8,288z"/>
			<path d="M286.6,294h-2.3v-4.2c0-1.2-0.4-1.7-1.2-1.7c-0.4,0-0.7,0.2-1,0.5s-0.4,0.7-0.4,1.2v4.3h-2.3v-7.5h2.3v1.2h0
				c0.6-0.9,1.4-1.4,2.4-1.4c1.7,0,2.5,1,2.5,3.1V294z"/>
			<path d="M293,293.9c-0.3,0.2-0.9,0.3-1.5,0.3c-1.6,0-2.4-0.8-2.4-2.5v-3.4h-1.2v-1.7h1.2v-1.6l2.3-0.7v2.3h1.7v1.7h-1.7v3
				c0,0.8,0.3,1.2,0.9,1.2c0.2,0,0.5-0.1,0.8-0.2V293.9z"/>
		</g>
		<g class="st4">
			<path d="M298.8,288.5c-0.3-0.2-0.6-0.2-1-0.2c-0.5,0-0.9,0.2-1.2,0.6c-0.3,0.4-0.4,0.9-0.4,1.5v3.6h-2.3v-7.5h2.3v1.4h0
				c0.4-1,1-1.5,2-1.5c0.2,0,0.4,0,0.6,0.1V288.5z"/>
		</g>
		<g class="st4">
			<path d="M302.9,294.1c-1.2,0-2.2-0.4-2.9-1.1c-0.7-0.7-1.1-1.7-1.1-2.9c0-1.2,0.4-2.2,1.1-2.9c0.7-0.7,1.7-1.1,3-1.1
				c1.2,0,2.2,0.4,2.9,1.1c0.7,0.7,1.1,1.6,1.1,2.8c0,1.2-0.4,2.2-1.1,3C305.2,293.8,304.2,294.1,302.9,294.1z M303,288
				c-0.5,0-1,0.2-1.3,0.6s-0.5,0.9-0.5,1.6c0,1.4,0.6,2.2,1.7,2.2c1.1,0,1.7-0.7,1.7-2.2C304.6,288.7,304.1,288,303,288z"/>
			<path d="M310.8,294h-2.3v-11.1h2.3V294z"/>
			<path d="M315.1,294h-2.3v-11.1h2.3V294z"/>
			<path d="M323.8,290.9h-4.9c0.1,1.1,0.8,1.6,2.1,1.6c0.8,0,1.6-0.2,2.2-0.6v1.7c-0.7,0.4-1.6,0.6-2.7,0.6c-1.2,0-2.2-0.3-2.8-1
				c-0.7-0.7-1-1.6-1-2.8c0-1.2,0.4-2.2,1.1-3s1.6-1.1,2.7-1.1c1.1,0,1.9,0.3,2.5,1c0.6,0.6,0.9,1.5,0.9,2.6V290.9z M321.6,289.4
				c0-1.1-0.4-1.6-1.3-1.6c-0.4,0-0.7,0.2-1,0.5c-0.3,0.3-0.4,0.7-0.5,1.2H321.6z"/>
			<path d="M332.5,294h-2.3v-1h0c-0.5,0.8-1.3,1.2-2.3,1.2c-0.9,0-1.7-0.3-2.3-1c-0.6-0.7-0.9-1.6-0.9-2.8c0-1.2,0.3-2.2,0.9-3
				s1.5-1.1,2.5-1.1c1,0,1.6,0.3,2,1h0v-4.5h2.3V294z M330.2,290.3v-0.6c0-0.5-0.1-0.9-0.4-1.2s-0.7-0.5-1.1-0.5
				c-0.5,0-0.9,0.2-1.2,0.6c-0.3,0.4-0.4,1-0.4,1.7c0,0.7,0.1,1.2,0.4,1.5s0.7,0.5,1.2,0.5c0.5,0,0.9-0.2,1.1-0.6
				C330.1,291.4,330.2,290.9,330.2,290.3z"/>
		</g>
		<g class="st4">
			<path d="M92.7,315h-1.4l-1.1-2.9h-4.5l-1,2.9h-1.4l4-10.5h1.3L92.7,315z M89.9,310.9l-1.6-4.5c-0.1-0.1-0.1-0.4-0.2-0.7h0
				c0,0.3-0.1,0.5-0.2,0.7l-1.6,4.5H89.9z"/>
			<path d="M93.7,314.7v-1.3c0.7,0.5,1.4,0.7,2.2,0.7c1.1,0,1.6-0.4,1.6-1.1c0-0.2,0-0.4-0.1-0.5c-0.1-0.1-0.2-0.3-0.4-0.4
				c-0.2-0.1-0.3-0.2-0.5-0.3c-0.2-0.1-0.4-0.2-0.7-0.3c-0.3-0.1-0.6-0.3-0.9-0.4c-0.3-0.1-0.5-0.3-0.6-0.5
				c-0.2-0.2-0.3-0.4-0.4-0.6c-0.1-0.2-0.1-0.5-0.1-0.8c0-0.4,0.1-0.7,0.2-0.9c0.2-0.3,0.4-0.5,0.6-0.7c0.3-0.2,0.6-0.3,0.9-0.4
				c0.3-0.1,0.7-0.1,1.1-0.1c0.6,0,1.2,0.1,1.7,0.3v1.2c-0.6-0.4-1.2-0.5-1.9-0.5c-0.2,0-0.4,0-0.6,0.1c-0.2,0.1-0.3,0.1-0.5,0.2
				s-0.2,0.2-0.3,0.3c-0.1,0.1-0.1,0.3-0.1,0.4c0,0.2,0,0.4,0.1,0.5c0.1,0.1,0.2,0.2,0.3,0.4c0.1,0.1,0.3,0.2,0.5,0.3
				c0.2,0.1,0.4,0.2,0.7,0.3c0.3,0.1,0.6,0.3,0.9,0.4c0.3,0.1,0.5,0.3,0.7,0.5c0.2,0.2,0.3,0.4,0.4,0.6c0.1,0.2,0.1,0.5,0.1,0.8
				c0,0.4-0.1,0.7-0.2,1s-0.4,0.5-0.7,0.7c-0.3,0.2-0.6,0.3-0.9,0.4s-0.7,0.1-1.1,0.1C94.9,315.1,94.2,315,93.7,314.7z"/>
			<path d="M104,314.9c-0.3,0.2-0.7,0.2-1.1,0.2c-1.3,0-2-0.7-2-2.2v-4.4h-1.3v-1h1.3v-1.8l1.2-0.4v2.2h1.9v1h-1.9v4.2
				c0,0.5,0.1,0.9,0.3,1.1s0.5,0.3,0.8,0.3c0.3,0,0.6-0.1,0.8-0.2V314.9z"/>
			<path d="M111.8,315h-1.2v-4.3c0-1.6-0.6-2.3-1.7-2.3c-0.6,0-1.1,0.2-1.5,0.7c-0.4,0.5-0.6,1-0.6,1.7v4.2h-1.2v-11.1h1.2v4.8h0
				c0.6-0.9,1.4-1.4,2.5-1.4c1.7,0,2.5,1,2.5,3.1V315z"/>
			<path d="M124.7,315h-1.2v-4.3c0-0.8-0.1-1.4-0.4-1.8c-0.3-0.4-0.7-0.6-1.3-0.6c-0.5,0-0.9,0.2-1.3,0.7c-0.4,0.5-0.5,1-0.5,1.7
				v4.3h-1.2v-4.5c0-1.5-0.6-2.2-1.7-2.2c-0.5,0-1,0.2-1.3,0.7c-0.3,0.4-0.5,1-0.5,1.7v4.3h-1.2v-7.5h1.2v1.2h0
				c0.5-0.9,1.3-1.4,2.3-1.4c0.5,0,1,0.1,1.3,0.4c0.4,0.3,0.6,0.7,0.8,1.1c0.6-1,1.4-1.6,2.5-1.6c1.7,0,2.5,1,2.5,3.1V315z"/>
			<path d="M132.3,315h-1.2v-1.2h0c-0.5,0.9-1.3,1.3-2.3,1.3c-0.7,0-1.3-0.2-1.8-0.6c-0.4-0.4-0.6-0.9-0.6-1.6
				c0-1.4,0.8-2.2,2.5-2.4l2.2-0.3c0-1.3-0.5-1.9-1.5-1.9c-0.9,0-1.7,0.3-2.4,0.9V308c0.7-0.5,1.6-0.7,2.5-0.7
				c1.8,0,2.6,0.9,2.6,2.8V315z M131.1,311.2l-1.8,0.2c-0.6,0.1-1,0.2-1.3,0.4c-0.3,0.2-0.4,0.5-0.4,1.1c0,0.4,0.1,0.7,0.4,0.9
				c0.3,0.2,0.6,0.3,1,0.3c0.6,0,1.1-0.2,1.5-0.6c0.4-0.4,0.6-0.9,0.6-1.6V311.2z"/>
		</g>
		<g class="st4">
			<path class="st5" d="M138.6,318v-13h0.8v13H138.6z"/>
		</g>
		<g class="st4">
			<path d="M153.2,314.5c-0.8,0.4-1.7,0.6-2.9,0.6c-1.5,0-2.7-0.5-3.6-1.4c-0.9-1-1.3-2.2-1.3-3.8c0-1.7,0.5-3,1.5-4.1
				s2.3-1.6,3.8-1.6c1,0,1.8,0.1,2.5,0.4v1.3c-0.8-0.4-1.6-0.6-2.5-0.6c-1.2,0-2.2,0.4-2.9,1.2c-0.7,0.8-1.1,1.9-1.1,3.2
				c0,1.3,0.4,2.3,1.1,3.1c0.7,0.8,1.6,1.1,2.8,1.1c1.1,0,2-0.2,2.7-0.7V314.5z"/>
		</g>
		<g class="st4">
			<path d="M159.3,315.1c-1.5,0-2.7-0.5-3.6-1.5c-0.9-1-1.3-2.3-1.3-3.8c0-1.7,0.5-3,1.4-4s2.2-1.5,3.7-1.5c1.5,0,2.6,0.5,3.5,1.5
				c0.9,1,1.3,2.3,1.3,3.8c0,1.7-0.5,3.1-1.4,4.1S160.9,315.1,159.3,315.1z M159.4,305.4c-1.1,0-2,0.4-2.7,1.2s-1,1.8-1,3.1
				s0.3,2.3,1,3.1c0.7,0.8,1.5,1.2,2.6,1.2c1.2,0,2.1-0.4,2.7-1.1c0.7-0.8,1-1.8,1-3.2c0-1.4-0.3-2.5-1-3.2S160.6,305.4,159.4,305.4
				z"/>
			<path d="M167.6,311v4h-1.2v-10.5h2.9c1.1,0,2,0.3,2.6,0.8c0.6,0.5,0.9,1.3,0.9,2.3s-0.3,1.8-1,2.4c-0.7,0.6-1.6,1-2.8,1H167.6z
				 M167.6,305.6v4.3h1.3c0.8,0,1.5-0.2,1.9-0.6c0.4-0.4,0.7-0.9,0.7-1.6c0-1.4-0.8-2.1-2.5-2.1H167.6z"/>
			<path d="M174.8,315v-10.5h2.9c3.7,0,5.6,1.7,5.6,5.1c0,1.6-0.5,2.9-1.5,3.9c-1,1-2.4,1.5-4.1,1.5H174.8z M176,305.6v8.3h1.6
				c1.4,0,2.4-0.4,3.2-1.1s1.1-1.8,1.1-3.1c0-2.7-1.4-4-4.3-4H176z"/>
		</g>
		<g class="st4">
			<path class="st5" d="M189.2,318v-13h0.8v13H189.2z"/>
		</g>
		<g class="st4">
			<path d="M202.1,315h-5.6v-10.5h5.3v1.1h-4.1v3.5h3.8v1.1h-3.8v3.7h4.3V315z"/>
		</g>
		<g class="st4">
			<path d="M209.5,307.5l-2.5,3.8l2.5,3.7H208l-1.5-2.4c-0.1-0.2-0.2-0.3-0.3-0.6h0c0,0-0.1,0.2-0.3,0.6l-1.5,2.4H203l2.6-3.7
				l-2.4-3.8h1.4l1.5,2.6c0.1,0.2,0.2,0.4,0.3,0.6h0l1.9-3.1H209.5z"/>
		</g>
		<g class="st4">
			<path d="M215.9,314.6c-0.6,0.3-1.3,0.5-2.1,0.5c-1.1,0-1.9-0.3-2.6-1c-0.7-0.7-1-1.6-1-2.7c0-1.2,0.4-2.2,1.1-3
				c0.7-0.7,1.7-1.1,2.8-1.1c0.7,0,1.2,0.1,1.7,0.4v1.2c-0.6-0.4-1.2-0.6-1.8-0.6c-0.8,0-1.4,0.3-1.9,0.8c-0.5,0.5-0.7,1.3-0.7,2.2
				c0,0.9,0.2,1.6,0.7,2.1c0.5,0.5,1.1,0.8,1.9,0.8c0.7,0,1.3-0.2,1.8-0.7V314.6z"/>
			<path d="M223.7,311.5h-5.3c0,0.8,0.2,1.5,0.7,1.9c0.4,0.5,1,0.7,1.8,0.7c0.8,0,1.6-0.3,2.3-0.8v1.1c-0.7,0.5-1.5,0.7-2.6,0.7
				c-1.1,0-1.9-0.3-2.5-1c-0.6-0.7-0.9-1.6-0.9-2.9c0-1.2,0.3-2.1,1-2.9c0.7-0.7,1.5-1.1,2.5-1.1s1.7,0.3,2.3,1s0.8,1.5,0.8,2.6
				V311.5z M222.5,310.5c0-0.7-0.2-1.2-0.5-1.6c-0.3-0.4-0.8-0.6-1.4-0.6c-0.6,0-1,0.2-1.4,0.6s-0.6,0.9-0.7,1.6H222.5z"/>
			<path d="M236.2,315H235v-4.3c0-0.8-0.1-1.4-0.4-1.8c-0.3-0.4-0.7-0.6-1.3-0.6c-0.5,0-0.9,0.2-1.3,0.7c-0.4,0.5-0.5,1-0.5,1.7v4.3
				h-1.2v-4.5c0-1.5-0.6-2.2-1.7-2.2c-0.5,0-1,0.2-1.3,0.7c-0.3,0.4-0.5,1-0.5,1.7v4.3h-1.2v-7.5h1.2v1.2h0c0.5-0.9,1.3-1.4,2.3-1.4
				c0.5,0,1,0.1,1.3,0.4c0.4,0.3,0.6,0.7,0.8,1.1c0.6-1,1.4-1.6,2.5-1.6c1.7,0,2.5,1,2.5,3.1V315z"/>
			<path d="M243.8,315h-1.2v-1.2h0c-0.5,0.9-1.3,1.3-2.3,1.3c-0.7,0-1.3-0.2-1.8-0.6c-0.4-0.4-0.6-0.9-0.6-1.6
				c0-1.4,0.8-2.2,2.5-2.4l2.2-0.3c0-1.3-0.5-1.9-1.5-1.9c-0.9,0-1.7,0.3-2.4,0.9V308c0.7-0.5,1.6-0.7,2.5-0.7
				c1.8,0,2.6,0.9,2.6,2.8V315z M242.6,311.2l-1.8,0.2c-0.6,0.1-1,0.2-1.3,0.4c-0.3,0.2-0.4,0.5-0.4,1.1c0,0.4,0.1,0.7,0.4,0.9
				c0.3,0.2,0.6,0.3,1,0.3c0.6,0,1.1-0.2,1.5-0.6c0.4-0.4,0.6-0.9,0.6-1.6V311.2z"/>
		</g>
		<g class="st4">
			<path d="M88.9,405.1v10h-2.2v-7.6c-0.1,0.1-0.3,0.2-0.4,0.3c-0.2,0.1-0.3,0.2-0.5,0.3c-0.2,0.1-0.4,0.1-0.6,0.2
				c-0.2,0.1-0.4,0.1-0.6,0.1v-1.8c0.6-0.2,1.1-0.4,1.6-0.6s0.9-0.5,1.3-0.8H88.9z"/>
			<path d="M107.4,415.2h-2.2v-5.9c0-0.6,0-1.3,0.1-2.1h-0.1c-0.1,0.6-0.2,1-0.3,1.3l-2.3,6.7h-1.8l-2.3-6.6
				c-0.1-0.2-0.2-0.6-0.3-1.4h-0.1c0.1,1,0.1,1.8,0.1,2.5v5.4h-2v-9.8h3.2l2,5.8c0.2,0.5,0.3,0.9,0.3,1.4h0c0.1-0.5,0.3-1,0.4-1.4
				l2-5.8h3.2V415.2z"/>
			<path d="M115.7,412.3h-4.6c0.1,1,0.7,1.5,1.9,1.5c0.8,0,1.4-0.2,2-0.5v1.6c-0.6,0.3-1.5,0.5-2.5,0.5c-1.1,0-2-0.3-2.6-0.9
				c-0.6-0.6-0.9-1.5-0.9-2.6c0-1.2,0.3-2.1,1-2.8s1.5-1,2.5-1c1,0,1.8,0.3,2.4,0.9s0.8,1.4,0.8,2.5V412.3z M113.7,411
				c0-1-0.4-1.5-1.2-1.5c-0.3,0-0.6,0.1-0.9,0.4s-0.4,0.6-0.5,1.1H113.7z"/>
			<path d="M123.9,415.2h-2.2v-1h0c-0.5,0.8-1.2,1.1-2.2,1.1c-0.9,0-1.6-0.3-2.1-0.9c-0.5-0.6-0.8-1.5-0.8-2.6
				c0-1.2,0.3-2.1,0.9-2.8s1.4-1,2.3-1c0.9,0,1.5,0.3,1.9,1h0v-4.2h2.2V415.2z M121.8,411.8v-0.5c0-0.5-0.1-0.8-0.4-1.1
				s-0.6-0.5-1-0.5c-0.5,0-0.9,0.2-1.1,0.6c-0.3,0.4-0.4,0.9-0.4,1.5c0,0.6,0.1,1.1,0.4,1.4s0.6,0.5,1.1,0.5c0.4,0,0.8-0.2,1.1-0.5
				S121.8,412.3,121.8,411.8z"/>
			<path d="M126.8,407.1c-0.4,0-0.7-0.1-0.9-0.3c-0.2-0.2-0.3-0.5-0.3-0.8c0-0.3,0.1-0.6,0.3-0.8s0.5-0.3,0.9-0.3
				c0.4,0,0.7,0.1,0.9,0.3s0.3,0.5,0.3,0.8c0,0.3-0.1,0.6-0.3,0.8S127.2,407.1,126.8,407.1z M127.9,415.2h-2.2v-7h2.2V415.2z"/>
			<path d="M135,414.9c-0.5,0.3-1.2,0.4-2.1,0.4c-1.1,0-1.9-0.3-2.6-1s-1-1.5-1-2.5c0-1.2,0.4-2.1,1.1-2.8c0.7-0.7,1.7-1,2.9-1
				c0.8,0,1.4,0.1,1.8,0.3v1.8c-0.5-0.3-1-0.5-1.5-0.5c-0.6,0-1.1,0.2-1.5,0.5c-0.4,0.4-0.5,0.9-0.5,1.5c0,0.6,0.2,1.1,0.5,1.5
				c0.3,0.4,0.8,0.5,1.4,0.5c0.5,0,1.1-0.2,1.6-0.5V414.9z"/>
			<path d="M142.2,415.2h-2v-1h0c-0.5,0.8-1.2,1.2-2.1,1.2c-0.7,0-1.2-0.2-1.6-0.6c-0.4-0.4-0.6-0.9-0.6-1.5c0-1.4,0.8-2.1,2.4-2.4
				l1.9-0.3c0-0.8-0.4-1.1-1.2-1.1c-0.8,0-1.6,0.2-2.4,0.7v-1.6c0.3-0.2,0.7-0.3,1.2-0.4s1-0.2,1.4-0.2c2,0,3,1,3,3V415.2z
				 M140.2,412.3v-0.5l-1.3,0.2c-0.7,0.1-1.1,0.4-1.1,1c0,0.2,0.1,0.4,0.3,0.6c0.2,0.2,0.4,0.2,0.7,0.2c0.4,0,0.7-0.1,1-0.4
				C140.1,413.1,140.2,412.8,140.2,412.3z"/>
			<path d="M148.2,415.1c-0.3,0.2-0.8,0.3-1.4,0.3c-1.5,0-2.3-0.8-2.3-2.4v-3.2h-1.1v-1.6h1.1v-1.5l2.2-0.6v2.1h1.6v1.6h-1.6v2.8
				c0,0.7,0.3,1.1,0.9,1.1c0.2,0,0.5-0.1,0.7-0.2V415.1z"/>
			<path d="M150.5,407.1c-0.4,0-0.7-0.1-0.9-0.3c-0.2-0.2-0.3-0.5-0.3-0.8c0-0.3,0.1-0.6,0.3-0.8s0.5-0.3,0.9-0.3
				c0.4,0,0.7,0.1,0.9,0.3s0.3,0.5,0.3,0.8c0,0.3-0.1,0.6-0.3,0.8S150.8,407.1,150.5,407.1z M151.5,415.2h-2.2v-7h2.2V415.2z"/>
			<path d="M156.7,415.3c-1.2,0-2.1-0.3-2.8-1c-0.7-0.7-1-1.5-1-2.7c0-1.2,0.3-2.1,1-2.7c0.7-0.7,1.6-1,2.8-1c1.2,0,2.1,0.3,2.7,1
				c0.7,0.7,1,1.5,1,2.6c0,1.2-0.3,2.1-1,2.8S157.9,415.3,156.7,415.3z M156.7,409.7c-0.5,0-0.9,0.2-1.2,0.5s-0.4,0.8-0.4,1.5
				c0,1.3,0.5,2,1.6,2c1,0,1.6-0.7,1.6-2.1C158.3,410.3,157.8,409.7,156.7,409.7z"/>
			<path d="M168.7,415.2h-2.2v-3.9c0-1.1-0.4-1.6-1.2-1.6c-0.4,0-0.7,0.1-0.9,0.4s-0.4,0.7-0.4,1.1v4h-2.2v-7h2.2v1.1h0
				c0.5-0.9,1.3-1.3,2.2-1.3c1.5,0,2.3,1,2.3,2.9V415.2z"/>
			<path d="M181.5,414.8c-0.7,0.3-1.6,0.5-2.8,0.5c-1.5,0-2.7-0.4-3.5-1.3s-1.3-2.1-1.3-3.5c0-1.6,0.5-2.8,1.5-3.8s2.2-1.5,3.8-1.5
				c1,0,1.8,0.1,2.4,0.4v2.1c-0.7-0.4-1.4-0.6-2.2-0.6c-0.9,0-1.7,0.3-2.2,0.9s-0.8,1.4-0.8,2.4c0,0.9,0.3,1.7,0.8,2.3
				c0.5,0.6,1.3,0.8,2.2,0.8c0.9,0,1.6-0.2,2.4-0.6V414.8z"/>
			<path d="M189.7,415.2h-2.2v-4c0-1-0.4-1.5-1.1-1.5c-0.4,0-0.7,0.1-0.9,0.4s-0.4,0.7-0.4,1.1v4H183v-10.4h2.2v4.4h0
				c0.5-0.8,1.2-1.2,2.2-1.2c1.6,0,2.4,1,2.4,2.9V415.2z"/>
			<path d="M197.2,415.2h-2v-1h0c-0.5,0.8-1.2,1.2-2.1,1.2c-0.7,0-1.2-0.2-1.6-0.6c-0.4-0.4-0.6-0.9-0.6-1.5c0-1.4,0.8-2.1,2.4-2.4
				l1.9-0.3c0-0.8-0.4-1.1-1.2-1.1c-0.8,0-1.6,0.2-2.4,0.7v-1.6c0.3-0.2,0.7-0.3,1.2-0.4s1-0.2,1.4-0.2c2,0,3,1,3,3V415.2z
				 M195.2,412.3v-0.5l-1.3,0.2c-0.7,0.1-1.1,0.4-1.1,1c0,0.2,0.1,0.4,0.3,0.6c0.2,0.2,0.4,0.2,0.7,0.2c0.4,0,0.7-0.1,1-0.4
				C195.1,413.1,195.2,412.8,195.2,412.3z"/>
			<path d="M205.7,415.2h-2.2v-3.9c0-1.1-0.4-1.6-1.2-1.6c-0.4,0-0.7,0.1-0.9,0.4s-0.4,0.7-0.4,1.1v4h-2.2v-7h2.2v1.1h0
				c0.5-0.9,1.3-1.3,2.2-1.3c1.5,0,2.3,1,2.3,2.9V415.2z"/>
			<path d="M214.3,414.4c0,1.3-0.4,2.3-1.1,3c-0.8,0.7-1.8,1.1-3.3,1.1c-0.9,0-1.7-0.1-2.2-0.4v-1.8c0.7,0.4,1.4,0.6,2.2,0.6
				c0.7,0,1.3-0.2,1.7-0.6c0.4-0.4,0.6-0.9,0.6-1.6v-0.6h0c-0.5,0.8-1.2,1.2-2.2,1.2c-0.9,0-1.6-0.3-2.1-0.9s-0.8-1.5-0.8-2.5
				c0-1.2,0.3-2.1,0.9-2.8s1.4-1,2.3-1c0.9,0,1.5,0.3,1.9,1h0v-0.8h2.2V414.4z M212.1,411.8v-0.6c0-0.4-0.1-0.8-0.4-1.1
				c-0.3-0.3-0.6-0.5-1-0.5c-0.5,0-0.9,0.2-1.1,0.6s-0.4,0.9-0.4,1.6c0,0.6,0.1,1,0.4,1.4c0.3,0.3,0.6,0.5,1.1,0.5
				c0.4,0,0.8-0.2,1.1-0.5C212,412.8,212.1,412.4,212.1,411.8z"/>
			<path d="M222.4,412.3h-4.6c0.1,1,0.7,1.5,1.9,1.5c0.8,0,1.4-0.2,2-0.5v1.6c-0.6,0.3-1.5,0.5-2.5,0.5c-1.1,0-2-0.3-2.6-0.9
				c-0.6-0.6-0.9-1.5-0.9-2.6c0-1.2,0.3-2.1,1-2.8c0.7-0.7,1.5-1,2.5-1c1,0,1.8,0.3,2.4,0.9c0.6,0.6,0.8,1.4,0.8,2.5V412.3z
				 M220.4,411c0-1-0.4-1.5-1.2-1.5c-0.3,0-0.6,0.1-0.9,0.4s-0.4,0.6-0.5,1.1H220.4z"/>
		</g>
		<g class="st4">
			<path class="st8" d="M89.8,453.7c0,2.4-1.1,3.6-3.4,3.6c-0.8,0-1.5-0.2-2.1-0.5v-1c0.7,0.4,1.4,0.6,2.1,0.6
				c1.6,0,2.4-0.9,2.4-2.6v-0.7h0c-0.5,0.8-1.2,1.2-2.2,1.2c-0.8,0-1.5-0.3-2-0.9c-0.5-0.6-0.7-1.4-0.7-2.3c0-1.1,0.3-2,0.8-2.6
				c0.5-0.7,1.3-1,2.2-1c0.9,0,1.5,0.4,1.9,1.1h0v-0.9h1V453.7z M88.8,451.3v-1c0-0.5-0.2-1-0.5-1.3c-0.3-0.4-0.8-0.6-1.3-0.6
				c-0.6,0-1.1,0.2-1.5,0.7s-0.5,1.1-0.5,2c0,0.7,0.2,1.3,0.5,1.7c0.3,0.4,0.8,0.7,1.4,0.7c0.6,0,1.1-0.2,1.4-0.6
				C88.6,452.4,88.8,451.9,88.8,451.3z"/>
			<path class="st8" d="M93,454.2h-1v-9.6h1V454.2z"/>
			<path class="st8" d="M95.6,446c-0.2,0-0.3-0.1-0.5-0.2s-0.2-0.3-0.2-0.5s0.1-0.4,0.2-0.5s0.3-0.2,0.5-0.2c0.2,0,0.4,0.1,0.5,0.2
				c0.1,0.1,0.2,0.3,0.2,0.5c0,0.2-0.1,0.3-0.2,0.5C96,446,95.8,446,95.6,446z M96.1,454.2h-1v-6.5h1V454.2z"/>
			<path class="st8" d="M99.3,453.3L99.3,453.3l0,3.9h-1v-9.5h1v1.1h0c0.5-0.9,1.3-1.3,2.2-1.3c0.8,0,1.5,0.3,2,0.9s0.7,1.4,0.7,2.3
				c0,1.1-0.3,2-0.8,2.6c-0.5,0.7-1.3,1-2.2,1C100.4,454.4,99.8,454,99.3,453.3z M99.3,450.6v0.9c0,0.5,0.2,1,0.5,1.4
				c0.3,0.4,0.8,0.6,1.3,0.6c0.6,0,1.1-0.2,1.5-0.7c0.4-0.5,0.5-1.2,0.5-2c0-0.7-0.2-1.3-0.5-1.7c-0.3-0.4-0.8-0.6-1.4-0.6
				c-0.6,0-1.1,0.2-1.5,0.6S99.3,450,99.3,450.6z"/>
			<path class="st8" d="M106.4,446c-0.2,0-0.3-0.1-0.5-0.2s-0.2-0.3-0.2-0.5s0.1-0.4,0.2-0.5s0.3-0.2,0.5-0.2c0.2,0,0.4,0.1,0.5,0.2
				c0.1,0.1,0.2,0.3,0.2,0.5c0,0.2-0.1,0.3-0.2,0.5C106.8,446,106.6,446,106.4,446z M106.9,454.2h-1v-6.5h1V454.2z"/>
			<path class="st8" d="M115.1,445.4l-5.3,7.9h5.2v1h-6.8v-0.3l5.3-7.8h-4.9v-1h6.5V445.4z"/>
			<path class="st8" d="M117.6,454.2h-1.1v-9.1h1.1V454.2z"/>
			<path class="st8" d="M120,454.2v-9.1h2.5c3.2,0,4.8,1.5,4.8,4.4c0,1.4-0.4,2.5-1.3,3.4c-0.9,0.9-2.1,1.3-3.6,1.3H120z
				 M121.1,446.1v7.2h1.4c1.2,0,2.1-0.3,2.8-1c0.7-0.6,1-1.5,1-2.7c0-2.3-1.2-3.5-3.7-3.5H121.1z"/>
			<path class="st8" d="M134,454.2h-4.8v-9.1h4.6v1h-3.6v3h3.3v1h-3.3v3.2h3.8V454.2z"/>
		</g>
		<g class="st4">
			<path class="st10" d="M88.3,437.5c-0.5,0.3-1,0.4-1.6,0.4c-0.9,0-1.5-0.3-2.1-0.8s-0.8-1.3-0.8-2.2c0-1,0.3-1.8,0.8-2.4
				s1.3-0.9,2.3-0.9c0.5,0,1,0.1,1.4,0.3v1c-0.4-0.3-0.9-0.5-1.4-0.5c-0.6,0-1.1,0.2-1.5,0.7s-0.6,1-0.6,1.7c0,0.7,0.2,1.3,0.6,1.7
				s0.9,0.6,1.5,0.6c0.5,0,1-0.2,1.5-0.5V437.5z"/>
			<path class="st10" d="M94.7,437.7h-1v-3.5c0-1.2-0.5-1.9-1.4-1.9c-0.5,0-0.9,0.2-1.2,0.5s-0.5,0.8-0.5,1.4v3.4h-1v-8.9h1v3.9h0
				c0.5-0.8,1.1-1.1,2-1.1c1.4,0,2,0.8,2,2.4V437.7z"/>
			<path class="st10" d="M100.8,437.7h-1v-0.9h0c-0.4,0.7-1,1.1-1.8,1.1c-0.6,0-1.1-0.2-1.4-0.5s-0.5-0.7-0.5-1.3c0-1.1,0.7-1.8,2-2
				l1.8-0.3c0-1-0.4-1.5-1.2-1.5c-0.7,0-1.4,0.2-2,0.7v-1c0.6-0.4,1.3-0.6,2-0.6c1.4,0,2.1,0.7,2.1,2.2V437.7z M99.9,434.7l-1.4,0.2
				c-0.4,0.1-0.8,0.2-1,0.3s-0.3,0.4-0.3,0.8c0,0.3,0.1,0.5,0.3,0.7s0.5,0.3,0.8,0.3c0.5,0,0.9-0.2,1.2-0.5s0.5-0.8,0.5-1.3V434.7z"
				/>
			<path class="st10" d="M107.6,437.7h-1v-3.4c0-1.3-0.5-1.9-1.4-1.9c-0.5,0-0.9,0.2-1.2,0.5s-0.5,0.8-0.5,1.4v3.4h-1v-6h1v1h0
				c0.5-0.8,1.1-1.1,2-1.1c0.7,0,1.2,0.2,1.5,0.6s0.5,1,0.5,1.8V437.7z"/>
			<path class="st10" d="M114.6,437.2c0,2.2-1.1,3.3-3.2,3.3c-0.7,0-1.4-0.1-1.9-0.4v-1c0.7,0.4,1.3,0.6,1.9,0.6
				c1.5,0,2.2-0.8,2.2-2.4v-0.7h0c-0.5,0.8-1.1,1.1-2.1,1.1c-0.7,0-1.3-0.3-1.8-0.8s-0.7-1.2-0.7-2.1c0-1,0.2-1.8,0.7-2.4
				s1.2-0.9,2-0.9c0.8,0,1.4,0.3,1.8,1h0v-0.8h1V437.2z M113.6,435v-0.9c0-0.5-0.2-0.9-0.5-1.2s-0.7-0.5-1.2-0.5
				c-0.6,0-1.1,0.2-1.4,0.6s-0.5,1-0.5,1.8c0,0.7,0.2,1.2,0.5,1.6s0.7,0.6,1.3,0.6c0.5,0,1-0.2,1.3-0.6S113.6,435.6,113.6,435z"/>
			<path class="st10" d="M121.3,435h-4.2c0,0.7,0.2,1.2,0.5,1.5s0.8,0.5,1.4,0.5c0.7,0,1.3-0.2,1.9-0.7v0.9
				c-0.5,0.4-1.2,0.6-2.1,0.6c-0.8,0-1.5-0.3-2-0.8s-0.7-1.3-0.7-2.3c0-0.9,0.3-1.7,0.8-2.3s1.2-0.9,2-0.9s1.4,0.3,1.8,0.8
				s0.6,1.2,0.6,2.1V435z M120.3,434.2c0-0.6-0.1-1-0.4-1.3s-0.6-0.5-1.1-0.5c-0.5,0-0.8,0.2-1.2,0.5s-0.5,0.7-0.6,1.3H120.3z"/>
			<path class="st10" d="M127.9,437.7h-1v-1h0c-0.4,0.8-1.1,1.2-2.1,1.2c-0.8,0-1.4-0.3-1.8-0.8s-0.7-1.3-0.7-2.2
				c0-1,0.2-1.8,0.8-2.4s1.2-0.9,2-0.9c0.8,0,1.4,0.3,1.8,1h0v-3.7h1V437.7z M126.9,435v-0.9c0-0.5-0.2-0.9-0.5-1.2
				s-0.7-0.5-1.2-0.5c-0.6,0-1,0.2-1.4,0.6s-0.5,1-0.5,1.8c0,0.7,0.2,1.2,0.5,1.6s0.8,0.6,1.3,0.6c0.5,0,1-0.2,1.3-0.6
				S126.9,435.6,126.9,435z"/>
			<path class="st10" d="M135.6,439.6h-0.9c-1.2-1.4-1.8-3.1-1.8-5.1c0-2,0.6-3.8,1.8-5.2h0.9c-1.2,1.5-1.8,3.2-1.8,5.2
				C133.8,436.5,134.4,438.2,135.6,439.6z"/>
			<path class="st10" d="M140,437.7h-1v-7.3c-0.1,0.1-0.2,0.2-0.3,0.3s-0.3,0.2-0.5,0.3s-0.4,0.2-0.6,0.3s-0.4,0.1-0.6,0.2v-1
				c0.2-0.1,0.4-0.1,0.7-0.2s0.5-0.2,0.7-0.3s0.4-0.3,0.6-0.4s0.4-0.3,0.5-0.4h0.4V437.7z"/>
			<path class="st10" d="M143.2,439.6h-0.9c1.2-1.5,1.8-3.2,1.8-5.1c0-2-0.6-3.7-1.8-5.2h0.9c1.2,1.4,1.8,3.2,1.8,5.2
				C145.1,436.6,144.5,438.3,143.2,439.6z"/>
		</g>
		<polygon class="st11" points="193.7,229.9 203.7,229.9 203.7,245.9 198.7,238.6 193.7,245.6 		"/>
	</g>
	<g id="With_Me_flag">
		
			<image style="overflow:visible;opacity:0.15;enable-background:new    ;" width="306" height="91" xlink:href="92906DD20E15469.png"  transform="matrix(0.9967 0 0 0.989 98.29 21.17)">
		</image>
		<path class="st2" d="M107.4,27.5h287.3c1.1,0,2,0.9,2,2v71.5c0,1.1-0.9,2-2,2H107.4c-1.1,0-2-0.9-2-2V29.5
			C105.4,28.4,106.3,27.5,107.4,27.5z"/>
		<path class="st12" d="M107.4,27.5h287.3c1.1,0,2,0.9,2,2v71.5c0,1.1-0.9,2-2,2H107.4c-1.1,0-2-0.9-2-2V29.5
			C105.4,28.4,106.3,27.5,107.4,27.5z"/>
		<circle class="st0" cx="124.6" cy="45.2" r="12"/>
		<path class="st2" d="M127,43.9l-2.4,4.6l-2.4-4.6c-1.6,0.3-3.6,1-3.6,2.3v5c3.6,2.7,8.4,2.7,12,0v-5C130.6,45,128.5,44.2,127,43.9
			z M124.6,43.8c1.8,0,3.2-1.5,3.2-3.2s-1.5-3.2-3.2-3.2s-3.2,1.5-3.2,3.2l0,0C121.4,42.3,122.8,43.7,124.6,43.8L124.6,43.8z"/>
		<g class="st4">
			<path class="st8" d="M148.6,51.4c-1.7,0-3.1-0.6-4.2-1.7s-1.6-2.6-1.6-4.3c0-1.9,0.5-3.4,1.6-4.6s2.5-1.7,4.3-1.7
				c1.7,0,3.1,0.6,4.1,1.7c1,1.1,1.6,2.6,1.6,4.4c0,1.9-0.5,3.4-1.6,4.5C151.8,50.8,150.4,51.4,148.6,51.4z M148.7,41.4
				c-0.9,0-1.7,0.4-2.2,1.1c-0.6,0.7-0.8,1.6-0.8,2.8c0,1.2,0.3,2.1,0.8,2.8s1.3,1,2.2,1c0.9,0,1.7-0.3,2.2-1s0.8-1.6,0.8-2.8
				c0-1.2-0.3-2.2-0.8-2.9S149.6,41.4,148.7,41.4z"/>
			<path class="st8" d="M161.8,40.6c-0.3-0.1-0.7-0.2-1-0.2c-0.8,0-1.3,0.5-1.3,1.4v0.9h1.9v1.9h-1.9v6.6h-2.6v-6.6h-1.4v-1.9h1.4
				v-1.1c0-1,0.3-1.7,0.9-2.3c0.6-0.6,1.5-0.9,2.6-0.9c0.5,0,1,0.1,1.3,0.2V40.6z"/>
			<path class="st8" d="M168.3,40.6c-0.3-0.1-0.7-0.2-1-0.2c-0.8,0-1.3,0.5-1.3,1.4v0.9h1.9v1.9H166v6.6h-2.6v-6.6H162v-1.9h1.4
				v-1.1c0-1,0.3-1.7,0.9-2.3c0.6-0.6,1.5-0.9,2.6-0.9c0.5,0,1,0.1,1.3,0.2V40.6z"/>
			<path class="st8" d="M170.6,41.3c-0.4,0-0.8-0.1-1.1-0.4s-0.4-0.6-0.4-1c0-0.4,0.1-0.7,0.4-1s0.6-0.4,1.1-0.4
				c0.4,0,0.8,0.1,1.1,0.4c0.3,0.2,0.4,0.6,0.4,1c0,0.4-0.1,0.7-0.4,1C171.4,41.2,171,41.3,170.6,41.3z M171.9,51.2h-2.6v-8.5h2.6
				V51.2z"/>
			<path class="st8" d="M180.5,50.9c-0.6,0.3-1.4,0.5-2.6,0.5c-1.3,0-2.4-0.4-3.2-1.2s-1.2-1.8-1.2-3.1c0-1.4,0.4-2.6,1.3-3.4
				c0.9-0.8,2-1.2,3.5-1.2c1,0,1.7,0.1,2.2,0.4v2.2c-0.5-0.4-1.2-0.6-1.8-0.6c-0.8,0-1.3,0.2-1.8,0.7c-0.4,0.4-0.7,1-0.7,1.8
				c0,0.8,0.2,1.3,0.6,1.8s1,0.6,1.7,0.6c0.7,0,1.3-0.2,1.9-0.6V50.9z"/>
			<path class="st8" d="M189.9,47.7h-5.5c0.1,1.2,0.9,1.9,2.3,1.9c0.9,0,1.8-0.2,2.5-0.7v1.9c-0.8,0.4-1.8,0.6-3.1,0.6
				c-1.4,0-2.4-0.4-3.2-1.1s-1.1-1.8-1.1-3.2c0-1.4,0.4-2.5,1.2-3.4s1.8-1.2,3-1.2c1.2,0,2.2,0.4,2.9,1.1c0.7,0.7,1,1.7,1,3V47.7z
				 M187.4,46.1c0-1.2-0.5-1.8-1.5-1.8c-0.4,0-0.8,0.2-1.1,0.5c-0.3,0.3-0.5,0.8-0.6,1.3H187.4z"/>
			<path class="st8" d="M206.3,39.3l-4.1,11.9h-3l-4.1-11.9h2.9l2.5,8.3c0.1,0.4,0.2,0.8,0.2,1.2h0c0-0.4,0.1-0.8,0.3-1.2l2.5-8.3
				H206.3z"/>
			<path class="st8" d="M208.8,41.3c-0.4,0-0.8-0.1-1.1-0.4s-0.4-0.6-0.4-1c0-0.4,0.1-0.7,0.4-1s0.6-0.4,1.1-0.4
				c0.4,0,0.8,0.1,1.1,0.4c0.3,0.2,0.4,0.6,0.4,1c0,0.4-0.1,0.7-0.4,1C209.6,41.2,209.2,41.3,208.8,41.3z M210.1,51.2h-2.6v-8.5h2.6
				V51.2z"/>
			<path class="st8" d="M211.7,50.9v-2.1c0.4,0.3,0.9,0.5,1.3,0.6c0.4,0.1,0.8,0.2,1.2,0.2c0.5,0,0.8-0.1,1.1-0.2
				c0.3-0.1,0.4-0.3,0.4-0.6c0-0.2-0.1-0.3-0.2-0.4c-0.1-0.1-0.3-0.2-0.5-0.3c-0.2-0.1-0.4-0.2-0.6-0.2c-0.2-0.1-0.4-0.1-0.7-0.2
				c-0.3-0.1-0.6-0.3-0.9-0.4c-0.3-0.1-0.5-0.3-0.6-0.5c-0.2-0.2-0.3-0.4-0.4-0.7c-0.1-0.3-0.1-0.6-0.1-0.9c0-0.5,0.1-0.9,0.3-1.2
				c0.2-0.3,0.5-0.6,0.8-0.8c0.3-0.2,0.7-0.4,1.2-0.5s0.9-0.2,1.4-0.2c0.4,0,0.8,0,1.1,0.1c0.4,0.1,0.8,0.1,1.1,0.3v2
				c-0.3-0.2-0.7-0.3-1.1-0.4c-0.4-0.1-0.8-0.1-1.1-0.1c-0.2,0-0.3,0-0.5,0s-0.3,0.1-0.4,0.1c-0.1,0.1-0.2,0.1-0.3,0.2
				c-0.1,0.1-0.1,0.2-0.1,0.3c0,0.2,0,0.3,0.1,0.4s0.2,0.2,0.4,0.3c0.2,0.1,0.3,0.2,0.5,0.2s0.4,0.1,0.6,0.2
				c0.3,0.1,0.7,0.3,0.9,0.4s0.5,0.3,0.7,0.5c0.2,0.2,0.4,0.4,0.5,0.7c0.1,0.3,0.2,0.6,0.2,0.9c0,0.5-0.1,0.9-0.3,1.3
				c-0.2,0.4-0.5,0.6-0.9,0.9c-0.4,0.2-0.8,0.4-1.3,0.5c-0.5,0.1-1,0.2-1.5,0.2C213.4,51.4,212.5,51.2,211.7,50.9z"/>
			<path class="st8" d="M221.1,41.3c-0.4,0-0.8-0.1-1.1-0.4s-0.4-0.6-0.4-1c0-0.4,0.1-0.7,0.4-1s0.6-0.4,1.1-0.4
				c0.4,0,0.8,0.1,1.1,0.4c0.3,0.2,0.4,0.6,0.4,1c0,0.4-0.1,0.7-0.4,1C221.9,41.2,221.6,41.3,221.1,41.3z M222.4,51.2h-2.6v-8.5h2.6
				V51.2z"/>
			<path class="st8" d="M229.7,51.1c-0.4,0.2-1,0.3-1.8,0.3c-1.8,0-2.8-1-2.8-2.9v-3.9h-1.4v-1.9h1.4v-1.8l2.6-0.7v2.6h1.9v1.9h-1.9
				V48c0,0.9,0.4,1.3,1.1,1.3c0.3,0,0.6-0.1,0.9-0.2V51.1z"/>
			<path class="st8" d="M240.5,47.6H236v-1.8h4.5V47.6z"/>
			<path class="st8" d="M261.3,51.2h-2.6V44c0-0.8,0-1.6,0.1-2.5h-0.1c-0.1,0.7-0.3,1.3-0.4,1.6l-2.8,8.1h-2.2l-2.8-8
				c-0.1-0.2-0.2-0.8-0.4-1.7H250c0.1,1.2,0.1,2.2,0.1,3.1v6.6h-2.4V39.3h3.9l2.4,7.1c0.2,0.6,0.3,1.1,0.4,1.7h0
				c0.1-0.7,0.3-1.2,0.5-1.7l2.4-7h3.8V51.2z"/>
			<path class="st8" d="M271.8,42.7l-3.5,9.2c-0.8,2.2-2.1,3.3-3.8,3.3c-0.6,0-1.2-0.1-1.6-0.2v-2.1c0.3,0.2,0.7,0.3,1.1,0.3
				c0.7,0,1.1-0.3,1.4-1l0.4-1.1l-3.5-8.5h2.9l1.6,5.2c0.1,0.3,0.2,0.7,0.2,1.1h0c0-0.3,0.1-0.7,0.3-1.1l1.6-5.2H271.8z"/>
			<path class="st8" d="M286.4,50.7c-0.9,0.4-2,0.6-3.4,0.6c-1.8,0-3.3-0.5-4.3-1.6c-1-1.1-1.6-2.5-1.6-4.3c0-1.9,0.6-3.4,1.8-4.6
				c1.2-1.2,2.7-1.8,4.6-1.8c1.2,0,2.1,0.1,2.9,0.4v2.6c-0.8-0.5-1.7-0.7-2.7-0.7c-1.1,0-2,0.4-2.7,1.1c-0.7,0.7-1,1.7-1,2.9
				c0,1.2,0.3,2.1,1,2.8s1.5,1,2.6,1c1,0,2-0.3,2.9-0.8V50.7z"/>
			<path class="st8" d="M290.8,51.2h-2.6V38.6h2.6V51.2z"/>
			<path class="st8" d="M294.3,41.3c-0.4,0-0.8-0.1-1.1-0.4s-0.4-0.6-0.4-1c0-0.4,0.1-0.7,0.4-1s0.6-0.4,1.1-0.4
				c0.4,0,0.8,0.1,1.1,0.4c0.3,0.2,0.4,0.6,0.4,1c0,0.4-0.1,0.7-0.4,1C295.2,41.2,294.8,41.3,294.3,41.3z M295.6,51.2H293v-8.5h2.6
				V51.2z"/>
			<path class="st8" d="M306.1,51.2h-2.6v-4.7c0-1.3-0.5-2-1.4-2c-0.5,0-0.8,0.2-1.1,0.5c-0.3,0.3-0.4,0.8-0.4,1.3v4.8h-2.6v-8.5
				h2.6V44h0c0.6-1,1.5-1.6,2.7-1.6c1.9,0,2.8,1.2,2.8,3.5V51.2z"/>
			<path class="st8" d="M309.5,41.3c-0.4,0-0.8-0.1-1.1-0.4s-0.4-0.6-0.4-1c0-0.4,0.1-0.7,0.4-1s0.6-0.4,1.1-0.4
				c0.4,0,0.8,0.1,1.1,0.4s0.4,0.6,0.4,1c0,0.4-0.1,0.7-0.4,1S309.9,41.3,309.5,41.3z M310.8,51.2h-2.6v-8.5h2.6V51.2z"/>
			<path class="st8" d="M319.4,50.9c-0.6,0.3-1.4,0.5-2.6,0.5c-1.3,0-2.4-0.4-3.2-1.2c-0.8-0.8-1.2-1.8-1.2-3.1
				c0-1.4,0.4-2.6,1.3-3.4s2-1.2,3.5-1.2c1,0,1.7,0.1,2.2,0.4v2.2c-0.5-0.4-1.2-0.6-1.8-0.6c-0.8,0-1.3,0.2-1.8,0.7
				c-0.4,0.4-0.7,1-0.7,1.8c0,0.8,0.2,1.3,0.6,1.8c0.4,0.4,1,0.6,1.7,0.6c0.7,0,1.3-0.2,1.9-0.6V50.9z"/>
		</g>
		<g class="st4">
			<path class="st5" d="M143,66.8v-1.4c0.2,0.1,0.3,0.3,0.6,0.4s0.4,0.2,0.7,0.3c0.2,0.1,0.5,0.1,0.7,0.2s0.5,0.1,0.7,0.1
				c0.7,0,1.2-0.1,1.6-0.4c0.3-0.3,0.5-0.6,0.5-1.1c0-0.3-0.1-0.5-0.2-0.7s-0.3-0.4-0.5-0.5c-0.2-0.2-0.4-0.3-0.7-0.5
				c-0.3-0.1-0.6-0.3-0.9-0.5c-0.3-0.2-0.7-0.3-1-0.5s-0.6-0.4-0.8-0.6s-0.4-0.5-0.5-0.7c-0.1-0.3-0.2-0.6-0.2-1
				c0-0.4,0.1-0.8,0.3-1.2c0.2-0.3,0.5-0.6,0.8-0.8s0.7-0.4,1.1-0.5s0.8-0.2,1.2-0.2c1,0,1.7,0.1,2.1,0.3v1.3
				c-0.6-0.4-1.3-0.6-2.2-0.6c-0.3,0-0.5,0-0.8,0.1c-0.3,0.1-0.5,0.1-0.7,0.3s-0.4,0.3-0.5,0.5s-0.2,0.4-0.2,0.7
				c0,0.3,0,0.5,0.1,0.6s0.2,0.3,0.4,0.5s0.4,0.3,0.7,0.4s0.6,0.3,0.9,0.5c0.4,0.2,0.7,0.4,1,0.5s0.6,0.4,0.8,0.6s0.4,0.5,0.6,0.8
				s0.2,0.6,0.2,1c0,0.5-0.1,0.9-0.3,1.2c-0.2,0.3-0.4,0.6-0.8,0.8s-0.7,0.4-1.1,0.5c-0.4,0.1-0.9,0.1-1.3,0.1c-0.2,0-0.3,0-0.6,0
				c-0.2,0-0.5-0.1-0.7-0.1c-0.2,0-0.5-0.1-0.7-0.2C143.3,66.9,143.2,66.9,143,66.8z"/>
		</g>
		<g class="st4">
			<path class="st5" d="M153.7,67.1c-0.3,0.1-0.6,0.2-1,0.2c-1.2,0-1.8-0.7-1.8-2.1v-4.1h-1.2v-1h1.2v-1.7l1.1-0.4v2.1h1.8v1h-1.8
				v3.9c0,0.5,0.1,0.8,0.2,1s0.4,0.3,0.8,0.3c0.3,0,0.5-0.1,0.7-0.2V67.1z"/>
		</g>
		<g class="st4">
			<path class="st5" d="M155.7,67.3c-0.2,0-0.4-0.1-0.5-0.2s-0.2-0.3-0.2-0.5s0.1-0.4,0.2-0.5c0.1-0.2,0.3-0.2,0.5-0.2
				c0.2,0,0.4,0.1,0.5,0.2c0.2,0.2,0.2,0.3,0.2,0.5s-0.1,0.4-0.2,0.5S155.9,67.3,155.7,67.3z"/>
		</g>
		<g class="st4">
			<path class="st5" d="M167.4,67.2h-5.1v-9.8h1.1v8.8h3.9V67.2z"/>
		</g>
		<g class="st4">
			<path class="st5" d="M171.6,67.3c-1,0-1.9-0.3-2.5-1c-0.6-0.7-0.9-1.5-0.9-2.6c0-1.2,0.3-2.1,1-2.8s1.5-1,2.6-1
				c1,0,1.9,0.3,2.4,1c0.6,0.6,0.9,1.5,0.9,2.7c0,1.1-0.3,2-0.9,2.7C173.5,67,172.6,67.3,171.6,67.3z M171.7,60.9
				c-0.7,0-1.3,0.2-1.7,0.7c-0.4,0.5-0.6,1.2-0.6,2c0,0.8,0.2,1.5,0.6,2s1,0.7,1.7,0.7c0.7,0,1.3-0.2,1.7-0.7s0.6-1.1,0.6-2
				c0-0.9-0.2-1.5-0.6-2S172.4,60.9,171.7,60.9z"/>
		</g>
		<g class="st4">
			<path class="st5" d="M182.5,67.2h-1.1v-1.1h0c-0.5,0.8-1.2,1.3-2.2,1.3c-1.7,0-2.5-1-2.5-3v-4.2h1.1v4c0,1.5,0.6,2.2,1.7,2.2
				c0.5,0,1-0.2,1.4-0.6c0.4-0.4,0.5-0.9,0.5-1.6v-4h1.1V67.2z"/>
		</g>
		<g class="st4">
			<path class="st5" d="M185.2,58.4c-0.2,0-0.4-0.1-0.5-0.2s-0.2-0.3-0.2-0.5s0.1-0.4,0.2-0.5c0.1-0.1,0.3-0.2,0.5-0.2
				c0.2,0,0.4,0.1,0.5,0.2c0.1,0.1,0.2,0.3,0.2,0.5c0,0.2-0.1,0.4-0.2,0.5S185.4,58.4,185.2,58.4z M185.7,67.2h-1.1v-7h1.1V67.2z"/>
		</g>
		<g class="st4">
			<path class="st5" d="M187.4,66.9v-1.2c0.6,0.5,1.3,0.7,2,0.7c1,0,1.5-0.3,1.5-1c0-0.2,0-0.3-0.1-0.5c-0.1-0.1-0.2-0.2-0.3-0.3
				s-0.3-0.2-0.5-0.3c-0.2-0.1-0.4-0.2-0.6-0.2c-0.3-0.1-0.6-0.2-0.8-0.4c-0.2-0.1-0.4-0.3-0.6-0.4c-0.2-0.2-0.3-0.3-0.4-0.5
				s-0.1-0.4-0.1-0.7c0-0.3,0.1-0.6,0.2-0.9c0.2-0.3,0.4-0.5,0.6-0.6c0.3-0.2,0.5-0.3,0.9-0.4s0.7-0.1,1-0.1c0.6,0,1.1,0.1,1.6,0.3
				v1.1c-0.5-0.3-1.1-0.5-1.8-0.5c-0.2,0-0.4,0-0.6,0.1c-0.2,0-0.3,0.1-0.4,0.2s-0.2,0.2-0.3,0.3c-0.1,0.1-0.1,0.3-0.1,0.4
				c0,0.2,0,0.3,0.1,0.5s0.2,0.2,0.3,0.3s0.3,0.2,0.5,0.3s0.4,0.2,0.6,0.3c0.3,0.1,0.6,0.2,0.8,0.4c0.2,0.1,0.5,0.3,0.6,0.4
				c0.2,0.2,0.3,0.3,0.4,0.5s0.1,0.4,0.1,0.7c0,0.3-0.1,0.6-0.2,0.9s-0.4,0.5-0.6,0.6s-0.5,0.3-0.9,0.4s-0.7,0.1-1,0.1
				C188.6,67.3,187.9,67.2,187.4,66.9z"/>
		</g>
		<g class="st4">
			<path class="st5" d="M194.9,65.6l-1.1,3.4H193l0.8-3.4H194.9z"/>
		</g>
		<g class="st4">
			<path class="st5" d="M210.9,67.2h-1.1v-6.6c0-0.5,0-1.2,0.1-1.9h0c-0.1,0.4-0.2,0.8-0.3,1l-3.3,7.5h-0.6l-3.3-7.5
				c-0.1-0.2-0.2-0.6-0.3-1h0c0,0.4,0.1,1,0.1,1.9v6.6h-1.1v-9.8h1.5l3,6.8c0.2,0.5,0.4,0.9,0.5,1.2h0c0.2-0.5,0.4-0.9,0.5-1.2
				l3.1-6.8h1.4V67.2z"/>
		</g>
		<g class="st4">
			<path class="st5" d="M217.3,67.3c-1.4,0-2.5-0.5-3.3-1.4s-1.3-2.1-1.3-3.6c0-1.6,0.4-2.8,1.3-3.8c0.9-0.9,2-1.4,3.5-1.4
				c1.4,0,2.4,0.5,3.3,1.4s1.2,2.1,1.2,3.6c0,1.6-0.4,2.9-1.3,3.8S218.7,67.3,217.3,67.3z M217.4,58.2c-1,0-1.9,0.4-2.5,1.1
				s-1,1.7-1,2.9s0.3,2.2,0.9,2.9c0.6,0.7,1.4,1.1,2.5,1.1c1.1,0,1.9-0.4,2.5-1.1c0.6-0.7,0.9-1.7,0.9-2.9c0-1.3-0.3-2.3-0.9-3
				S218.5,58.2,217.4,58.2z"/>
			<path class="st5" d="M228.7,70.5h-1v-14h1V70.5z"/>
		</g>
		<g class="st4">
			<path class="st5" d="M244.9,67.2h-1.1v-6.6c0-0.5,0-1.2,0.1-1.9h0c-0.1,0.4-0.2,0.8-0.3,1l-3.3,7.5h-0.6l-3.3-7.5
				c-0.1-0.2-0.2-0.6-0.3-1h0c0,0.4,0.1,1,0.1,1.9v6.6h-1.1v-9.8h1.5l3,6.8c0.2,0.5,0.4,0.9,0.5,1.2h0c0.2-0.5,0.4-0.9,0.5-1.2
				l3.1-6.8h1.4V67.2z"/>
		</g>
		<g class="st4">
			<path class="st5" d="M252.2,67.2h-1.1v-1.1h0c-0.5,0.8-1.2,1.3-2.2,1.3c-0.7,0-1.2-0.2-1.6-0.6c-0.4-0.4-0.6-0.9-0.6-1.5
				c0-1.3,0.8-2.1,2.3-2.3l2.1-0.3c0-1.2-0.5-1.8-1.4-1.8c-0.8,0-1.6,0.3-2.3,0.9v-1.1c0.7-0.4,1.5-0.7,2.4-0.7
				c1.6,0,2.5,0.9,2.5,2.6V67.2z M251.1,63.6l-1.7,0.2c-0.5,0.1-0.9,0.2-1.2,0.4c-0.3,0.2-0.4,0.5-0.4,1c0,0.3,0.1,0.6,0.4,0.8
				c0.2,0.2,0.6,0.3,1,0.3c0.6,0,1-0.2,1.4-0.6c0.4-0.4,0.5-0.9,0.5-1.5V63.6z"/>
		</g>
		<g class="st4">
			<path class="st5" d="M257.9,61.3c-0.2-0.2-0.5-0.2-0.8-0.2c-0.5,0-0.9,0.2-1.2,0.7s-0.5,1.1-0.5,1.8v3.6h-1.1v-7h1.1v1.4h0
				c0.2-0.5,0.4-0.9,0.7-1.2c0.3-0.3,0.7-0.4,1.1-0.4c0.3,0,0.5,0,0.7,0.1V61.3z"/>
		</g>
		<g class="st4">
			<path class="st5" d="M268.5,64.2c0,0.5-0.1,0.9-0.2,1.3s-0.4,0.7-0.7,1c-0.3,0.3-0.7,0.5-1.1,0.6c-0.4,0.2-0.9,0.2-1.4,0.2
				c-0.9,0-1.6-0.1-2-0.4v-1.2c0.7,0.4,1.3,0.6,2,0.6c0.4,0,0.7-0.1,1-0.2c0.3-0.1,0.5-0.3,0.7-0.4c0.2-0.2,0.4-0.4,0.5-0.7
				c0.1-0.3,0.2-0.6,0.2-0.9c0-0.6-0.2-1.1-0.6-1.5c-0.4-0.4-1.1-0.5-1.9-0.5c-0.1,0-0.3,0-0.4,0c-0.1,0-0.3,0-0.4,0
				c-0.1,0-0.3,0-0.4,0c-0.1,0-0.3,0-0.4,0l0.3-4.9h4.5v1h-3.6l-0.2,2.9c0.1,0,0.3,0,0.5,0c0.2,0,0.3,0,0.4,0c0.5,0,1,0.1,1.4,0.2
				s0.8,0.3,1,0.6c0.3,0.3,0.5,0.6,0.6,0.9C268.4,63.3,268.5,63.7,268.5,64.2z"/>
		</g>
		<g class="st4">
			<path class="st5" d="M271.5,65.6l-1.1,3.4h-0.8l0.8-3.4H271.5z"/>
		</g>
		<g class="st4">
			<path class="st5" d="M281.4,59.9c0-0.3,0-0.6-0.1-0.8c-0.1-0.2-0.2-0.4-0.4-0.6c-0.2-0.1-0.4-0.3-0.6-0.3s-0.5-0.1-0.7-0.1
				c-0.2,0-0.4,0-0.6,0.1c-0.2,0.1-0.4,0.1-0.6,0.2s-0.4,0.2-0.6,0.4s-0.4,0.3-0.5,0.5v-1.2c0.3-0.3,0.7-0.5,1.1-0.7
				c0.4-0.2,0.9-0.2,1.4-0.2c0.4,0,0.8,0.1,1.1,0.2c0.3,0.1,0.6,0.3,0.9,0.5c0.2,0.2,0.4,0.5,0.6,0.8s0.2,0.7,0.2,1.1
				c0,0.4,0,0.7-0.1,1.1s-0.2,0.6-0.4,0.9c-0.2,0.3-0.4,0.5-0.7,0.8s-0.6,0.5-1,0.8c-0.5,0.3-0.8,0.6-1.1,0.8
				c-0.3,0.2-0.5,0.5-0.7,0.7c-0.2,0.2-0.3,0.4-0.4,0.6c-0.1,0.2-0.1,0.4-0.1,0.7h4.9v1h-6v-0.5c0-0.4,0-0.8,0.1-1.1
				c0.1-0.3,0.2-0.6,0.5-0.9c0.2-0.3,0.5-0.6,0.8-0.9c0.3-0.3,0.8-0.6,1.2-1c0.4-0.3,0.7-0.5,0.9-0.7s0.4-0.5,0.6-0.7
				c0.1-0.2,0.2-0.5,0.3-0.7C281.4,60.5,281.4,60.2,281.4,59.9z"/>
		</g>
		<g class="st4">
			<path class="st5" d="M290.4,62.2c0,0.8-0.1,1.5-0.2,2.2c-0.1,0.6-0.4,1.2-0.6,1.6c-0.3,0.4-0.6,0.8-1,1c-0.4,0.2-0.9,0.3-1.4,0.3
				c-0.5,0-0.9-0.1-1.3-0.3c-0.4-0.2-0.7-0.5-1-0.9c-0.3-0.4-0.5-0.9-0.6-1.5c-0.1-0.6-0.2-1.3-0.2-2.1c0-0.9,0.1-1.6,0.2-2.3
				s0.4-1.2,0.6-1.7c0.3-0.4,0.6-0.8,1-1c0.4-0.2,0.9-0.3,1.4-0.3C289.4,57.2,290.4,58.9,290.4,62.2z M289.2,62.3
				c0-2.8-0.7-4.2-2-4.2c-1.4,0-2.1,1.4-2.1,4.3c0,2.6,0.7,4,2.1,4C288.6,66.4,289.2,65,289.2,62.3z"/>
		</g>
		<g class="st4">
			<path class="st5" d="M295.4,67.2h-1.1v-8.5c-0.1,0.1-0.2,0.2-0.4,0.3c-0.2,0.1-0.4,0.2-0.6,0.3c-0.2,0.1-0.4,0.2-0.7,0.3
				c-0.2,0.1-0.5,0.2-0.7,0.2v-1.1c0.2-0.1,0.5-0.2,0.8-0.3c0.3-0.1,0.5-0.2,0.8-0.4c0.3-0.1,0.5-0.3,0.8-0.5
				c0.2-0.2,0.4-0.3,0.6-0.5h0.4V67.2z"/>
		</g>
		<g class="st4">
			<path class="st5" d="M304.2,64.1c0,0.5-0.1,0.9-0.2,1.3c-0.2,0.4-0.4,0.7-0.6,1s-0.6,0.5-1,0.7c-0.4,0.2-0.8,0.2-1.2,0.2
				c-0.5,0-0.9-0.1-1.3-0.3s-0.7-0.5-1-0.9c-0.3-0.4-0.5-0.9-0.6-1.4c-0.1-0.6-0.2-1.2-0.2-1.9c0-0.9,0.1-1.6,0.3-2.3
				c0.2-0.7,0.5-1.3,0.8-1.8c0.3-0.5,0.8-0.9,1.3-1.1s1-0.4,1.6-0.4c0.7,0,1.2,0.1,1.6,0.3v1.1c-0.5-0.3-1-0.4-1.6-0.4
				c-0.4,0-0.8,0.1-1.2,0.3c-0.4,0.2-0.7,0.5-0.9,0.8c-0.3,0.4-0.4,0.8-0.6,1.3c-0.1,0.5-0.2,1.1-0.2,1.7h0c0.5-0.8,1.2-1.2,2.2-1.2
				c0.4,0,0.8,0.1,1.2,0.2c0.3,0.1,0.6,0.4,0.9,0.6c0.2,0.3,0.4,0.6,0.6,1C304.2,63.2,304.2,63.6,304.2,64.1z M303.1,64.2
				c0-0.3,0-0.6-0.1-0.9c-0.1-0.3-0.2-0.5-0.4-0.7c-0.2-0.2-0.4-0.3-0.6-0.4c-0.2-0.1-0.5-0.2-0.8-0.2c-0.3,0-0.5,0.1-0.8,0.2
				c-0.2,0.1-0.4,0.2-0.6,0.4c-0.2,0.2-0.3,0.4-0.4,0.6c-0.1,0.2-0.1,0.5-0.1,0.8c0,0.3,0,0.7,0.1,0.9c0.1,0.3,0.2,0.6,0.4,0.8
				c0.2,0.2,0.4,0.4,0.6,0.5c0.2,0.1,0.5,0.2,0.8,0.2c0.3,0,0.5-0.1,0.8-0.2c0.2-0.1,0.4-0.3,0.6-0.4s0.3-0.4,0.4-0.7
				C303,64.8,303.1,64.5,303.1,64.2z"/>
		</g>
		<g class="st4">
			<path d="M150.8,84h-3v8.6h-2.4V84h-3v-1.9h8.3V84z"/>
		</g>
		<g class="st4">
			<path d="M157.8,85.1l-3,8.1c-0.7,1.9-1.8,2.9-3.3,2.9c-0.6,0-1-0.1-1.4-0.2v-1.8c0.3,0.2,0.6,0.3,1,0.3c0.6,0,1-0.3,1.2-0.8
				l0.4-0.9l-3-7.5h2.6l1.4,4.6c0.1,0.3,0.2,0.6,0.2,1h0c0-0.3,0.1-0.6,0.2-1l1.4-4.6H157.8z"/>
			<path d="M161.1,91.7L161.1,91.7l0,4.3h-2.3V85.1h2.3v1.1h0c0.6-0.9,1.4-1.3,2.4-1.3c1,0,1.7,0.3,2.3,1c0.5,0.7,0.8,1.6,0.8,2.7
				c0,1.3-0.3,2.3-0.9,3s-1.4,1.1-2.5,1.1C162.3,92.8,161.6,92.4,161.1,91.7z M161.1,88.6v0.6c0,0.5,0.1,0.9,0.4,1.3
				s0.6,0.5,1.1,0.5c0.5,0,0.9-0.2,1.2-0.6c0.3-0.4,0.4-1,0.4-1.7c0-1.3-0.5-2-1.5-2c-0.5,0-0.9,0.2-1.2,0.5
				C161.2,87.6,161.1,88,161.1,88.6z"/>
			<path d="M174.8,89.5h-4.9c0.1,1.1,0.8,1.6,2.1,1.6c0.8,0,1.6-0.2,2.2-0.6v1.7c-0.7,0.4-1.6,0.6-2.7,0.6c-1.2,0-2.2-0.3-2.8-1
				c-0.7-0.7-1-1.6-1-2.8c0-1.2,0.4-2.2,1.1-3s1.6-1.1,2.7-1.1c1.1,0,1.9,0.3,2.5,1c0.6,0.6,0.9,1.5,0.9,2.6V89.5z M172.7,88.1
				c0-1.1-0.4-1.6-1.3-1.6c-0.4,0-0.7,0.2-1,0.5c-0.3,0.3-0.4,0.7-0.5,1.2H172.7z"/>
			<path d="M182.5,90.7h4.5v1.9h-7v-0.8c0-0.5,0.1-1,0.3-1.4c0.2-0.4,0.4-0.8,0.7-1.2c0.3-0.3,0.6-0.6,0.9-0.9
				c0.3-0.3,0.6-0.5,0.9-0.7c0.3-0.2,0.6-0.4,0.8-0.6c0.2-0.2,0.4-0.4,0.6-0.6c0.2-0.2,0.3-0.4,0.4-0.6c0.1-0.2,0.1-0.4,0.1-0.6
				c0-0.4-0.1-0.8-0.4-1s-0.6-0.3-1.2-0.3c-0.9,0-1.8,0.4-2.6,1.1v-2c0.9-0.6,1.9-0.9,3.1-0.9c0.5,0,1,0.1,1.4,0.2
				c0.4,0.1,0.8,0.3,1.1,0.6s0.5,0.6,0.7,0.9c0.2,0.4,0.2,0.8,0.2,1.2c0,0.5-0.1,0.9-0.2,1.3c-0.1,0.4-0.3,0.7-0.6,1
				c-0.2,0.3-0.5,0.6-0.9,0.8c-0.3,0.3-0.7,0.5-1,0.7c-0.2,0.2-0.5,0.3-0.7,0.5c-0.2,0.2-0.4,0.3-0.6,0.5c-0.2,0.2-0.3,0.3-0.4,0.5
				C182.5,90.4,182.5,90.5,182.5,90.7z"/>
			<path d="M193.3,92.6V82.1h3.7c3.7,0,5.6,1.7,5.6,5.1c0,1.6-0.5,2.9-1.5,3.9c-1,1-2.4,1.5-4.1,1.5H193.3z M195.7,84v6.7h1.2
				c1,0,1.8-0.3,2.4-0.9c0.6-0.6,0.9-1.5,0.9-2.5c0-1-0.3-1.8-0.9-2.4c-0.6-0.6-1.4-0.9-2.4-0.9H195.7z"/>
			<path d="M205.3,83.9c-0.4,0-0.7-0.1-1-0.3c-0.2-0.2-0.4-0.5-0.4-0.9c0-0.3,0.1-0.6,0.4-0.8s0.6-0.3,1-0.3c0.4,0,0.7,0.1,1,0.3
				c0.2,0.2,0.4,0.5,0.4,0.8c0,0.4-0.1,0.6-0.4,0.9C206,83.8,205.7,83.9,205.3,83.9z M206.5,92.6h-2.3v-7.5h2.3V92.6z"/>
			<path d="M214.7,92.6h-2.2v-1.1h0c-0.5,0.8-1.2,1.3-2.2,1.3c-0.7,0-1.3-0.2-1.7-0.6c-0.4-0.4-0.6-1-0.6-1.7c0-1.5,0.9-2.3,2.6-2.5
				l2-0.3c0-0.8-0.4-1.2-1.3-1.2c-0.9,0-1.7,0.3-2.5,0.8v-1.7c0.3-0.2,0.8-0.3,1.3-0.4c0.6-0.1,1.1-0.2,1.5-0.2
				c2.1,0,3.2,1.1,3.2,3.2V92.6z M212.5,89.5V89l-1.4,0.2c-0.8,0.1-1.1,0.4-1.1,1c0,0.3,0.1,0.5,0.3,0.6c0.2,0.2,0.4,0.3,0.7,0.3
				c0.4,0,0.8-0.2,1.1-0.5C212.3,90.4,212.5,90,212.5,89.5z"/>
			<path d="M218.8,91.7L218.8,91.7l0,0.9h-2.3V81.5h2.3v4.7h0c0.6-0.9,1.4-1.3,2.4-1.3c1,0,1.7,0.3,2.2,1c0.5,0.7,0.8,1.6,0.8,2.7
				c0,1.3-0.3,2.3-0.9,3s-1.4,1.1-2.4,1.1C220,92.8,219.3,92.4,218.8,91.7z M218.8,88.5v0.8c0,0.5,0.1,0.9,0.4,1.2s0.6,0.5,1.1,0.5
				c0.5,0,0.9-0.2,1.2-0.6c0.3-0.4,0.4-1,0.4-1.7c0-0.6-0.1-1.1-0.4-1.5c-0.3-0.3-0.6-0.5-1.1-0.5c-0.5,0-0.8,0.2-1.2,0.5
				C218.9,87.5,218.8,88,218.8,88.5z"/>
			<path d="M232.5,89.5h-4.9c0.1,1.1,0.8,1.6,2.1,1.6c0.8,0,1.5-0.2,2.2-0.6v1.7c-0.7,0.4-1.6,0.6-2.7,0.6c-1.2,0-2.2-0.3-2.8-1
				c-0.7-0.7-1-1.6-1-2.8c0-1.2,0.4-2.2,1.1-3s1.6-1.1,2.7-1.1c1.1,0,1.9,0.3,2.5,1c0.6,0.6,0.9,1.5,0.9,2.6V89.5z M230.4,88.1
				c0-1.1-0.4-1.6-1.3-1.6c-0.4,0-0.7,0.2-1,0.5c-0.3,0.3-0.4,0.7-0.5,1.2H230.4z"/>
		</g>
		<g class="st4">
			<path d="M238,92.5c-0.3,0.2-0.9,0.3-1.5,0.3c-1.6,0-2.4-0.8-2.4-2.5v-3.4h-1.2v-1.7h1.2v-1.6l2.3-0.7v2.3h1.7v1.7h-1.7v3
				c0,0.8,0.3,1.2,0.9,1.2c0.2,0,0.5-0.1,0.8-0.2V92.5z"/>
		</g>
		<g class="st4">
			<path d="M245.5,89.5h-4.9c0.1,1.1,0.8,1.6,2.1,1.6c0.8,0,1.5-0.2,2.2-0.6v1.7c-0.7,0.4-1.6,0.6-2.7,0.6c-1.2,0-2.2-0.3-2.8-1
				c-0.7-0.7-1-1.6-1-2.8c0-1.2,0.4-2.2,1.1-3s1.6-1.1,2.7-1.1c1.1,0,1.9,0.3,2.5,1c0.6,0.6,0.9,1.5,0.9,2.6V89.5z M243.4,88.1
				c0-1.1-0.4-1.6-1.3-1.6c-0.4,0-0.7,0.2-1,0.5c-0.3,0.3-0.4,0.7-0.5,1.2H243.4z"/>
			<path d="M246.4,92.4v-1.9c0.4,0.2,0.8,0.4,1.1,0.5c0.4,0.1,0.7,0.2,1.1,0.2c0.4,0,0.7-0.1,1-0.2c0.2-0.1,0.4-0.3,0.4-0.5
				c0-0.1-0.1-0.3-0.2-0.4c-0.1-0.1-0.2-0.2-0.4-0.3c-0.2-0.1-0.4-0.1-0.6-0.2s-0.4-0.1-0.6-0.2c-0.3-0.1-0.6-0.2-0.8-0.4
				c-0.2-0.1-0.4-0.3-0.6-0.5c-0.2-0.2-0.3-0.4-0.4-0.6c-0.1-0.2-0.1-0.5-0.1-0.8c0-0.4,0.1-0.8,0.3-1.1c0.2-0.3,0.4-0.6,0.7-0.7
				c0.3-0.2,0.7-0.3,1-0.4c0.4-0.1,0.8-0.1,1.2-0.1c0.3,0,0.7,0,1,0.1c0.3,0.1,0.7,0.1,1,0.2V87c-0.3-0.2-0.6-0.3-0.9-0.4
				c-0.3-0.1-0.7-0.1-1-0.1c-0.2,0-0.3,0-0.4,0c-0.1,0-0.3,0.1-0.4,0.1c-0.1,0.1-0.2,0.1-0.2,0.2c-0.1,0.1-0.1,0.2-0.1,0.3
				c0,0.1,0,0.3,0.1,0.4s0.2,0.2,0.3,0.3c0.1,0.1,0.3,0.1,0.5,0.2c0.2,0.1,0.3,0.1,0.5,0.2c0.3,0.1,0.6,0.2,0.8,0.4s0.5,0.3,0.6,0.4
				c0.2,0.2,0.3,0.4,0.4,0.6c0.1,0.2,0.1,0.5,0.1,0.8c0,0.4-0.1,0.8-0.3,1.1c-0.2,0.3-0.5,0.6-0.8,0.8c-0.3,0.2-0.7,0.3-1.1,0.4
				c-0.4,0.1-0.9,0.1-1.3,0.1C247.9,92.8,247.1,92.6,246.4,92.4z"/>
			<path d="M269.5,92.6h-2.3v-4.3c0-1.1-0.4-1.6-1.2-1.6c-0.4,0-0.7,0.2-0.9,0.5s-0.4,0.7-0.4,1.2v4.2h-2.3v-4.3
				c0-1.1-0.4-1.6-1.2-1.6c-0.4,0-0.7,0.2-0.9,0.5c-0.2,0.3-0.4,0.7-0.4,1.3v4.2h-2.3v-7.5h2.3v1.2h0c0.2-0.4,0.6-0.7,1-1
				c0.4-0.3,0.9-0.4,1.4-0.4c1.1,0,1.8,0.5,2.2,1.4c0.6-0.9,1.4-1.4,2.5-1.4c1.6,0,2.4,1,2.4,3V92.6z"/>
			<path d="M278.1,89.5h-4.9c0.1,1.1,0.8,1.6,2.1,1.6c0.8,0,1.5-0.2,2.2-0.6v1.7c-0.7,0.4-1.6,0.6-2.7,0.6c-1.2,0-2.2-0.3-2.8-1
				c-0.7-0.7-1-1.6-1-2.8c0-1.2,0.4-2.2,1.1-3s1.6-1.1,2.7-1.1c1.1,0,1.9,0.3,2.5,1c0.6,0.6,0.9,1.5,0.9,2.6V89.5z M275.9,88.1
				c0-1.1-0.4-1.6-1.3-1.6c-0.4,0-0.7,0.2-1,0.5c-0.3,0.3-0.4,0.7-0.5,1.2H275.9z"/>
			<path d="M281.8,92.6h-2.3V81.5h2.3V92.6z"/>
			<path d="M286,92.6h-2.3V81.5h2.3V92.6z"/>
			<path d="M289.2,83.9c-0.4,0-0.7-0.1-1-0.3c-0.2-0.2-0.4-0.5-0.4-0.9c0-0.3,0.1-0.6,0.4-0.8s0.6-0.3,1-0.3c0.4,0,0.7,0.1,1,0.3
				c0.2,0.2,0.4,0.5,0.4,0.8c0,0.4-0.1,0.6-0.4,0.9C289.9,83.8,289.6,83.9,289.2,83.9z M290.3,92.6H288v-7.5h2.3V92.6z"/>
			<path d="M296.8,92.5c-0.3,0.2-0.9,0.3-1.5,0.3c-1.6,0-2.4-0.8-2.4-2.5v-3.4h-1.2v-1.7h1.2v-1.6l2.3-0.7v2.3h1.7v1.7h-1.7v3
				c0,0.8,0.3,1.2,0.9,1.2c0.2,0,0.5-0.1,0.8-0.2V92.5z"/>
			<path d="M305.2,92.6h-2.3v-1.1h0c-0.6,0.9-1.3,1.3-2.3,1.3c-1.7,0-2.6-1.1-2.6-3.2v-4.5h2.3v4.3c0,1.1,0.4,1.6,1.3,1.6
				c0.4,0,0.7-0.1,1-0.4c0.2-0.3,0.4-0.7,0.4-1.2v-4.3h2.3V92.6z"/>
			<path d="M306.7,92.4v-1.9c0.4,0.2,0.8,0.4,1.1,0.5c0.4,0.1,0.7,0.2,1.1,0.2c0.4,0,0.7-0.1,1-0.2c0.2-0.1,0.4-0.3,0.4-0.5
				c0-0.1-0.1-0.3-0.2-0.4c-0.1-0.1-0.2-0.2-0.4-0.3c-0.2-0.1-0.4-0.1-0.6-0.2s-0.4-0.1-0.6-0.2c-0.3-0.1-0.6-0.2-0.8-0.4
				c-0.2-0.1-0.4-0.3-0.6-0.5c-0.2-0.2-0.3-0.4-0.4-0.6c-0.1-0.2-0.1-0.5-0.1-0.8c0-0.4,0.1-0.8,0.3-1.1c0.2-0.3,0.4-0.6,0.7-0.7
				c0.3-0.2,0.7-0.3,1-0.4c0.4-0.1,0.8-0.1,1.2-0.1c0.3,0,0.7,0,1,0.1c0.3,0.1,0.7,0.1,1,0.2V87c-0.3-0.2-0.6-0.3-0.9-0.4
				c-0.3-0.1-0.7-0.1-1-0.1c-0.2,0-0.3,0-0.4,0c-0.1,0-0.3,0.1-0.4,0.1c-0.1,0.1-0.2,0.1-0.2,0.2c-0.1,0.1-0.1,0.2-0.1,0.3
				c0,0.1,0,0.3,0.1,0.4s0.2,0.2,0.3,0.3c0.1,0.1,0.3,0.1,0.5,0.2c0.2,0.1,0.3,0.1,0.5,0.2c0.3,0.1,0.6,0.2,0.8,0.4s0.5,0.3,0.6,0.4
				c0.2,0.2,0.3,0.4,0.4,0.6c0.1,0.2,0.1,0.5,0.1,0.8c0,0.4-0.1,0.8-0.3,1.1c-0.2,0.3-0.5,0.6-0.8,0.8c-0.3,0.2-0.7,0.3-1.1,0.4
				c-0.4,0.1-0.9,0.1-1.3,0.1C308.1,92.8,307.4,92.6,306.7,92.4z"/>
			<path d="M316,90.7l-1.1,3.7h-1.8l0.7-3.7H316z"/>
			<path d="M327.7,92.3c-0.5,0.3-1.3,0.5-2.3,0.5c-1.2,0-2.1-0.3-2.8-1s-1.1-1.6-1.1-2.7c0-1.3,0.4-2.3,1.1-3
				c0.8-0.7,1.8-1.1,3.1-1.1c0.9,0,1.5,0.1,1.9,0.4v2c-0.5-0.4-1-0.5-1.6-0.5c-0.7,0-1.2,0.2-1.6,0.6c-0.4,0.4-0.6,0.9-0.6,1.6
				c0,0.7,0.2,1.2,0.6,1.6c0.4,0.4,0.9,0.6,1.5,0.6c0.6,0,1.1-0.2,1.7-0.5V92.3z"/>
			<path d="M332.7,92.8c-1.2,0-2.2-0.4-2.9-1.1c-0.7-0.7-1.1-1.7-1.1-2.9c0-1.2,0.4-2.2,1.1-2.9c0.7-0.7,1.7-1.1,3-1.1
				c1.2,0,2.2,0.4,2.9,1.1c0.7,0.7,1.1,1.6,1.1,2.8c0,1.2-0.4,2.2-1.1,3C335,92.4,334,92.8,332.7,92.8z M332.8,86.7
				c-0.5,0-1,0.2-1.3,0.6s-0.5,0.9-0.5,1.6c0,1.4,0.6,2.2,1.7,2.2c1.1,0,1.7-0.7,1.7-2.2C334.5,87.4,333.9,86.7,332.8,86.7z"/>
			<path d="M345.6,92.6h-2.3v-4.2c0-1.2-0.4-1.7-1.2-1.7c-0.4,0-0.7,0.2-1,0.5s-0.4,0.7-0.4,1.2v4.3h-2.3v-7.5h2.3v1.2h0
				c0.6-0.9,1.4-1.4,2.4-1.4c1.7,0,2.5,1,2.5,3.1V92.6z"/>
			<path d="M352,92.5c-0.3,0.2-0.9,0.3-1.5,0.3c-1.6,0-2.4-0.8-2.4-2.5v-3.4h-1.2v-1.7h1.2v-1.6l2.3-0.7v2.3h1.7v1.7h-1.7v3
				c0,0.8,0.3,1.2,0.9,1.2c0.2,0,0.5-0.1,0.8-0.2V92.5z"/>
		</g>
		<g class="st4">
			<path d="M357.8,87.2c-0.3-0.2-0.6-0.2-1-0.2c-0.5,0-0.9,0.2-1.2,0.6c-0.3,0.4-0.4,0.9-0.4,1.5v3.6h-2.3v-7.5h2.3v1.4h0
				c0.4-1,1-1.5,2-1.5c0.2,0,0.4,0,0.6,0.1V87.2z"/>
		</g>
		<g class="st4">
			<path d="M361.9,92.8c-1.2,0-2.2-0.4-2.9-1.1c-0.7-0.7-1.1-1.7-1.1-2.9c0-1.2,0.4-2.2,1.1-2.9c0.7-0.7,1.7-1.1,3-1.1
				c1.2,0,2.2,0.4,2.9,1.1c0.7,0.7,1.1,1.6,1.1,2.8c0,1.2-0.4,2.2-1.1,3C364.2,92.4,363.2,92.8,361.9,92.8z M361.9,86.7
				c-0.5,0-1,0.2-1.3,0.6s-0.5,0.9-0.5,1.6c0,1.4,0.6,2.2,1.7,2.2c1.1,0,1.7-0.7,1.7-2.2C363.6,87.4,363.1,86.7,361.9,86.7z"/>
			<path d="M369.8,92.6h-2.3V81.5h2.3V92.6z"/>
			<path d="M374.1,92.6h-2.3V81.5h2.3V92.6z"/>
			<path d="M382.7,89.5h-4.9c0.1,1.1,0.8,1.6,2.1,1.6c0.8,0,1.6-0.2,2.2-0.6v1.7c-0.7,0.4-1.6,0.6-2.7,0.6c-1.2,0-2.2-0.3-2.8-1
				c-0.7-0.7-1-1.6-1-2.8c0-1.2,0.4-2.2,1.1-3s1.6-1.1,2.7-1.1c1.1,0,1.9,0.3,2.5,1c0.6,0.6,0.9,1.5,0.9,2.6V89.5z M380.6,88.1
				c0-1.1-0.4-1.6-1.3-1.6c-0.4,0-0.7,0.2-1,0.5c-0.3,0.3-0.4,0.7-0.5,1.2H380.6z"/>
			<path d="M391.5,92.6h-2.3v-1h0c-0.5,0.8-1.3,1.2-2.3,1.2c-0.9,0-1.7-0.3-2.3-1c-0.6-0.7-0.9-1.6-0.9-2.8c0-1.2,0.3-2.2,0.9-3
				s1.5-1.1,2.5-1.1c1,0,1.6,0.3,2,1h0v-4.5h2.3V92.6z M389.2,88.9v-0.6c0-0.5-0.1-0.9-0.4-1.2s-0.7-0.5-1.1-0.5
				c-0.5,0-0.9,0.2-1.2,0.6c-0.3,0.4-0.4,1-0.4,1.7c0,0.7,0.1,1.2,0.4,1.5s0.7,0.5,1.2,0.5c0.5,0,0.9-0.2,1.1-0.6
				C389,90,389.2,89.5,389.2,88.9z"/>
		</g>
		<line class="st13" x1="106.1" y1="103.3" x2="396.5" y2="103.3"/>
		<line class="st13" x1="285.6" y1="103.8" x2="285.6" y2="134.8"/>
		<polygon class="st6" points="374,28.3 384,28.3 384,44.3 379,37 374,44.1 		"/>
		
			<image style="overflow:visible;opacity:0.3;enable-background:new    ;" width="33" height="33" xlink:href="92906DD20E1546A.png"  transform="matrix(0.9697 0 0 0.9697 269.29 132.17)">
		</image>
		<circle class="st6" cx="285" cy="146.9" r="12"/>
		<path class="st2" d="M287.5,145.6l-2.4,4.6l-2.4-4.6c-1.6,0.3-3.6,1.1-3.6,2.4v5c3.6,2.7,8.4,2.7,12,0v-5
			C291,146.6,289,145.9,287.5,145.6z M285.1,145.4c1.8,0,3.2-1.5,3.2-3.2s-1.5-3.2-3.2-3.2s-3.2,1.5-3.2,3.2l0,0
			C281.8,144,283.2,145.4,285.1,145.4L285.1,145.4z"/>
	</g>
</g>
</svg>
